<svg width="234" height="333" viewBox="0 0 234 333" fill="none" xmlns="http://www.w3.org/2000/svg">
<path d="M233.844 0.469971H0.154297V332.53H233.844V0.469971Z" fill="#F1D046"/>
<path d="M177.715 61.87H69.7754V302.41H93.0853V88.41H173.745C180.585 88.41 186.135 93.96 186.135 100.8V120.46C186.135 128.28 179.795 134.62 171.975 134.62H127.885V162.14H175.945C194.445 162.14 209.445 147.14 209.445 128.64V93.61C209.445 76.09 195.235 61.88 177.715 61.88V61.87Z" fill="#FBFCFB"/>
<path d="M142.415 25.8899H34.4746V302.41H57.7847V52.4299H138.445C145.285 52.4299 150.835 57.9799 150.835 64.8199V84.4799C150.835 92.2999 144.495 98.6399 136.675 98.6399H92.5846V126.16H140.645C159.145 126.16 174.145 111.16 174.145 92.6599V57.6299C174.145 40.1099 159.935 25.8999 142.415 25.8999V25.8899Z" fill="black"/>
<path d="M189.764 229.47H141.244V251.18H189.764V229.47Z" fill="black"/>
<path d="M130.296 278.55V204.63H202.256V180.38H106.436V191.14V204.63V278.55V292.04V302.41H207.346V278.55H130.296Z" fill="black"/>
</svg>
