<svg width="42" height="42" viewBox="0 0 42 42" fill="none" xmlns="http://www.w3.org/2000/svg">
<g clipPath="url(#clip0_105_2041)">
<path d="M40.7106 8.62786L38.6899 10.8313C37.2861 12.3625 35.0211 12.3712 33.607 10.8518L32.8996 10.0915L32.9297 10.0583L32.1341 9.16773C30.7248 7.5904 30.7605 5.05361 32.2139 3.52508L34.2024 1.4336C34.6998 0.910297 34.3562 0.0026806 33.667 6.62467e-05C32.1508 -0.00603391 29.8624 0.406162 27.804 2.47847C24.3446 5.96166 26.1567 12.1638 26.1567 12.1638L23.9024 14.2679C23.8691 14.4853 23.8445 14.735 23.8468 15.0108C23.8576 16.2047 24.3597 17.2448 25.3285 18.0936C26.4133 19.0264 27.493 19.4465 27.9398 19.4465H27.9414C28.0864 19.4338 28.2286 19.4277 28.3684 19.4277C28.5754 19.4277 28.772 19.4469 28.9655 19.47L30.7061 17.1986C30.7061 17.1986 36.3427 19.3349 39.6007 15.6243C41.5547 13.3982 41.9757 10.8758 41.9999 9.21348C42.0107 8.47667 41.1864 8.10848 40.7102 8.6283L40.7106 8.62786Z" fill="#FEFCF3"/>
<path d="M29.3343 21.2378C29.0407 21.1589 28.7158 21.1071 28.3678 21.1071C28.2681 21.1071 28.1664 21.1114 28.0627 21.1206C28.0151 21.1249 27.9658 21.1267 27.915 21.1267C27.8502 21.1267 27.7779 21.1158 27.7088 21.1092C26.7916 21.0221 25.4983 20.3742 24.3837 19.4156C23.0192 18.2204 22.506 16.8723 22.3646 15.7032C22.1668 14.0697 22.7006 12.7895 22.7006 12.7895C22.471 12.7146 22.2156 12.681 21.9435 12.681C19.7441 12.681 16.4368 14.8627 16.413 14.8784C15.9677 14.9524 15.5498 14.9986 15.1462 14.9986C14.6636 14.9986 14.202 14.9328 13.7397 14.7716C12.6378 14.386 9.40438 12.7904 7.40634 11.7878C6.36562 11.2653 5.13423 11.5481 4.37751 12.4897C3.06509 14.1237 1.14094 16.9938 0.106968 20.7794C-0.263642 22.1371 0.347288 23.5859 1.52227 24.1754L5.83413 26.3388L8.22939 28.897L12.2247 33.1636C12.2247 33.1636 14.0972 34.8119 16.6362 35.5579C17.3766 35.7753 18.1707 35.92 18.9953 35.92C19.2237 35.92 19.4537 35.9091 19.6857 35.8864C19.6857 35.8864 19.8768 35.9148 20.1624 35.9148C21.0808 35.9148 22.9795 35.6206 22.6704 33.1414C22.6704 33.1414 25.4721 32.8703 24.9159 29.8564C24.9159 29.8564 25.0589 29.8852 25.2806 29.8852C26.0484 29.8852 27.7593 29.5388 27.7168 26.4434C27.7168 26.4434 30.1442 26.3149 30.8008 24.09C31.1643 22.8574 30.4806 21.5471 29.3335 21.2387L29.3343 21.2378Z" fill="#FEFCF3"/>
<path d="M11.2088 34.42L11.1576 34.3651L7.05902 29.9883L5.0598 31.8545C3.23217 33.6689 3.16107 36.7917 4.90409 38.7032L5.78513 39.6697L6.6467 40.6148C8.39687 42.5346 11.2581 42.447 12.9077 40.423L15.5644 36.956C13.1028 36.0675 11.3665 34.559 11.2648 34.4693L11.2088 34.42ZM10.1637 37.9764C9.48248 38.7237 8.3778 38.7237 7.69617 37.9764C7.01493 37.2292 7.01493 36.0174 7.69617 35.2701C8.37741 34.5229 9.48208 34.5229 10.1637 35.2701C10.8454 36.0174 10.845 37.2292 10.1637 37.9764Z" fill="#FEFCF3"/>
</g>
<defs>
<clipPath id="clip0_105_2041">
<rect width="42" height="42" fill="white"/>
</clipPath>
</defs>
</svg>
