
<svg width="42" height="42" viewBox="0 0 42 42" fill="none" xmlns="http://www.w3.org/2000/svg">
<g clipPath="url(#clip0_105_2067)">
<path d="M20.25 0C19.0031 0 18 0.877734 18 1.96875V6.5625L15.3375 1.89492C11.775 3.56836 9.28125 6.77578 9.01875 10.5H9C7.75313 10.5 6.75 11.3777 6.75 12.4688C6.75 13.5598 7.75313 14.4375 9 14.4375H33C34.2469 14.4375 35.25 13.5598 35.25 12.4688C35.25 11.3777 34.2469 10.5 33 10.5H32.9812C32.7188 6.77578 30.225 3.56836 26.6625 1.89492L24 6.5625V1.96875C24 0.877734 22.9969 0 21.75 0H20.25ZM21 26.25C27.1219 26.25 32.1656 22.2387 32.9062 17.0625H9.09375C9.83438 22.2387 14.8781 26.25 21 26.25ZM12.6 28.875C5.64375 28.875 0 33.8133 0 39.9C0 41.0566 1.07812 42 2.4 42H39.6C40.9219 42 42 41.0566 42 39.9C42 33.8133 36.3563 28.875 29.4 28.875H12.6Z" fill="#FEFCF3"/>
</g>
<defs>
<clipPath id="clip0_105_2067">
<rect width="42" height="42" fill="white"/>
</clipPath>
</defs>
</svg>
