<svg width="42" height="38" viewBox="0 0 42 38" fill="none" xmlns="http://www.w3.org/2000/svg">
<g clipPath="url(#clip0_105_2070)">
<path d="M6.3 0C3.98344 0 2.1 2.13008 2.1 4.75V18.4359C3.21562 17.3078 4.68562 16.625 6.3 16.625V4.75H35.7V16.625C37.3144 16.625 38.7844 17.3078 39.9 18.4359V4.75C39.9 2.13008 38.0166 0 35.7 0H6.3ZM10.5 23.75C10.5 22.4902 10.0575 21.282 9.26985 20.3912C8.4822 19.5004 7.41391 19 6.3 19C5.18609 19 4.1178 19.5004 3.33015 20.3912C2.5425 21.282 2.1 22.4902 2.1 23.75C2.1 25.0098 2.5425 26.218 3.33015 27.1088C4.1178 27.9996 5.18609 28.5 6.3 28.5C7.41391 28.5 8.4822 27.9996 9.26985 27.1088C10.0575 26.218 10.5 25.0098 10.5 23.75ZM0 35.625C0 36.9387 0.938437 38 2.1 38H10.5C11.6616 38 12.6 36.9387 12.6 35.625C12.6 33.0051 10.7166 30.875 8.4 30.875H4.2C1.88344 30.875 0 33.0051 0 35.625ZM25.2 23.75C25.2 22.4902 24.7575 21.282 23.9698 20.3912C23.1822 19.5004 22.1139 19 21 19C19.8861 19 18.8178 19.5004 18.0302 20.3912C17.2425 21.282 16.8 22.4902 16.8 23.75C16.8 25.0098 17.2425 26.218 18.0302 27.1088C18.8178 27.9996 19.8861 28.5 21 28.5C22.1139 28.5 23.1822 27.9996 23.9698 27.1088C24.7575 26.218 25.2 25.0098 25.2 23.75ZM14.7 35.625C14.7 36.9387 15.6384 38 16.8 38H25.2C26.3616 38 27.3 36.9387 27.3 35.625C27.3 33.0051 25.4166 30.875 23.1 30.875H18.9C16.5834 30.875 14.7 33.0051 14.7 35.625ZM35.7 28.5C36.8139 28.5 37.8822 27.9996 38.6698 27.1088C39.4575 26.218 39.9 25.0098 39.9 23.75C39.9 22.4902 39.4575 21.282 38.6698 20.3912C37.8822 19.5004 36.8139 19 35.7 19C34.5861 19 33.5178 19.5004 32.7302 20.3912C31.9425 21.282 31.5 22.4902 31.5 23.75C31.5 25.0098 31.9425 26.218 32.7302 27.1088C33.5178 27.9996 34.5861 28.5 35.7 28.5ZM33.6 30.875C31.2834 30.875 29.4 33.0051 29.4 35.625C29.4 36.9387 30.3384 38 31.5 38H39.9C41.0616 38 42 36.9387 42 35.625C42 33.0051 40.1166 30.875 37.8 30.875H33.6Z" fill="#FEFCF3"/>
</g>
<defs>
<clipPath id="clip0_105_2070">
<rect width="42" height="38" fill="white"/>
</clipPath>
</defs>
</svg>
