<svg width="57" height="31" viewBox="0 0 57 31" fill="none" xmlns="http://www.w3.org/2000/svg">
<path d="M21.0016 0.579102H0V30.4211H21.0016V0.579102Z" fill="#F1D046"/>
<path d="M15.9571 6.09717H6.25659V27.7143H8.35144V8.4823H15.6003C16.215 8.4823 16.7138 8.98107 16.7138 9.59578V11.3626C16.7138 12.0654 16.144 12.6352 15.4412 12.6352H11.4789V15.1084H15.798C17.4606 15.1084 18.8086 13.7603 18.8086 12.0977V8.94962C18.8086 7.37511 17.5316 6.09807 15.9571 6.09807V6.09717Z" fill="#FBFCFB"/>
<path d="M27.3042 9.29207C27.3042 10.2905 26.1637 10.2905 26.1637 10.2905H25.5939V11.7132H25.0242V8.29272H26.1646C26.1646 8.29272 27.3051 8.29273 27.3051 9.29117L27.3042 9.29207ZM26.7344 9.29207C26.7344 8.86339 26.1646 8.8634 26.1646 8.8634H25.5948V9.72075H26.1646C26.1646 9.72075 26.7344 9.72075 26.7344 9.29207Z" fill="black"/>
<path d="M28.8778 10.2814H28.415V11.704H27.8452V8.29346H28.9803C28.9803 8.29346 30.1207 8.29346 30.1207 9.28741C30.1207 9.83831 29.7702 10.0819 29.4629 10.1933L30.1594 11.704H29.5312L28.8787 10.2814H28.8778ZM28.415 9.71609H28.9803C28.9803 9.71609 29.55 9.71609 29.55 9.28741C29.55 8.85874 28.9803 8.86323 28.9803 8.86323H28.415V9.71609Z" fill="black"/>
<path d="M31.3383 8.86323V9.71609H32.7565V10.2814H31.3383V11.1342H33.044V11.704H30.7686V8.29346H33.044V8.86323H31.3383Z" fill="black"/>
<path d="M37.3274 11.704H36.7576V9.60916L35.778 11.704H35.2424L34.1999 9.56513V11.704H33.6301V8.28809H34.2098L35.5057 10.9437L36.7486 8.28809H37.3283V11.704H37.3274Z" fill="black"/>
<path d="M38.1118 8.29346H38.6816V11.704H38.1118V8.29346Z" fill="black"/>
<path d="M39.4618 10.612V8.29248H40.0316V10.612C40.0613 11.0065 40.3776 11.1818 40.738 11.1818C41.0984 11.1818 41.4497 10.9922 41.4497 10.612V8.29248H42.0195V10.612C42.0195 11.3382 41.4641 11.7525 40.738 11.7525C40.0118 11.7525 39.4609 11.3139 39.4609 10.612H39.4618Z" fill="black"/>
<path d="M46.4831 11.704H45.9133V9.60916L44.9338 11.704H44.3981L43.3557 9.56513V11.704H42.7859V8.28809H43.3655L44.6615 10.9437L45.9044 8.28809H46.484V11.704H46.4831Z" fill="black"/>
<path d="M27.3042 15.1388C27.3042 16.1372 26.1637 16.1372 26.1637 16.1372H25.5939V17.5598H25.0242V14.1394H26.1646C26.1646 14.1394 27.3051 14.1394 27.3051 15.1379L27.3042 15.1388ZM26.7344 15.1388C26.7344 14.7101 26.1646 14.7101 26.1646 14.7101H25.5948V15.5674H26.1646C26.1646 15.5674 26.7344 15.5674 26.7344 15.1388Z" fill="black"/>
<path d="M28.8778 16.1283H28.415V17.5509H27.8452V14.1404H28.9803C28.9803 14.1404 30.1207 14.1404 30.1207 15.1343C30.1207 15.6852 29.7702 15.9288 29.4629 16.0402L30.1594 17.5509H29.5312L28.8787 16.1283H28.8778ZM28.415 15.563H28.9803C28.9803 15.563 29.55 15.563 29.55 15.1343C29.55 14.7057 28.9803 14.7102 28.9803 14.7102H28.415V15.563Z" fill="black"/>
<path d="M32.318 17.595C30.0668 17.595 30.0722 14.0964 32.318 14.0964C34.5638 14.0964 34.5593 17.595 32.318 17.595ZM32.318 14.6518C30.8468 14.6518 30.8414 17.0441 32.318 17.0441C33.7945 17.0441 33.7945 14.6518 32.318 14.6518Z" fill="black"/>
<path d="M36.2265 17.1565H35.0276L34.8811 17.551H34.2673L35.6271 14.0425L36.9913 17.551H36.3775L36.2265 17.1565ZM35.2128 16.664H36.0414L35.6271 15.4795L35.2128 16.664Z" fill="black"/>
<path d="M39.7737 16.6982L40.1736 17.1026C39.8662 17.4099 39.4429 17.5996 38.9702 17.5996C38.0302 17.5996 37.26 16.9175 37.26 15.8453C37.26 14.7732 37.9718 14.0911 38.9702 14.0911C39.4429 14.0911 39.8671 14.2807 40.1736 14.5925L39.7737 14.9925C39.5688 14.7876 39.2812 14.6608 38.9693 14.6608C38.2674 14.6608 37.8388 15.1578 37.8388 15.8453C37.8388 16.576 38.3402 17.0298 38.9693 17.0298C39.2812 17.0298 39.5688 16.9031 39.7737 16.6982Z" fill="black"/>
<path d="M42.4678 14.6616H41.7515V17.5509H41.1862V14.6616H40.47V14.1404H42.4678V14.6616Z" fill="black"/>
<path d="M42.9548 14.1404H43.5246V17.5509H42.9548V14.1404Z" fill="black"/>
<path d="M46.6431 14.1404L45.2789 17.639L43.9192 14.1404H44.533L45.2789 16.1526L46.0293 14.1404H46.6431Z" fill="black"/>
<path d="M47.6039 14.7102V15.563H49.0221V16.1283H47.6039V16.9811H49.3097V17.5509H47.0342V14.1404H49.3097V14.7102H47.6039Z" fill="black"/>
<path d="M25.5939 20.558V21.4109H27.0121V21.9762H25.5939V22.829H27.2997V23.3988H25.0242V19.9883H27.2997V20.558H25.5939Z" fill="black"/>
<path d="M30.7299 23.3978H30.1548L28.4589 20.9714V23.3978H27.8892V19.9873H28.4643L30.1646 22.4138V19.9873H30.7299V23.3978Z" fill="black"/>
<path d="M34.5305 21.4593V23.4032H34.0335L34.0038 23.0913C33.7261 23.3493 33.4385 23.4472 33.0341 23.4472C32.1184 23.4472 31.4021 22.8091 31.4021 21.693C31.4021 20.6792 32.1669 19.9387 33.1078 19.9387C33.5805 19.9387 34.0047 20.1283 34.3112 20.4402L33.9113 20.8401C33.7064 20.6352 33.4188 20.5085 33.1069 20.5085C32.4787 20.5085 31.9719 20.9471 31.9719 21.693C31.9719 22.5261 32.4787 22.8774 33.1069 22.8774C33.4475 22.8774 33.7504 22.731 33.9598 22.4928V21.9617H33.0539V21.4602H34.5305V21.4593Z" fill="black"/>
<path d="M35.2854 19.9873H35.8552V23.3978H35.2854V19.9873Z" fill="black"/>
<path d="M39.476 23.3978H38.9009L37.205 20.9714V23.3978H36.6353V19.9873H37.2104L38.9108 22.4138V19.9873H39.476V23.3978Z" fill="black"/>
<path d="M40.8205 20.558V21.4109H42.2386V21.9762H40.8205V22.829H42.5262V23.3988H40.2507V19.9883H42.5262V20.558H40.8205Z" fill="black"/>
<path d="M43.6855 20.558V21.4109H45.1036V21.9762H43.6855V22.829H45.3912V23.3988H43.1157V19.9883H45.3912V20.558H43.6855Z" fill="black"/>
<path d="M47.0089 21.9752H46.5461V23.3978H45.9763V19.9873H47.1114C47.1114 19.9873 48.2518 19.9873 48.2518 20.9813C48.2518 21.5322 47.9013 21.7757 47.594 21.8871L48.2905 23.3978H47.6623L47.0098 21.9752H47.0089ZM46.5461 21.4099H47.1114C47.1114 21.4099 47.6811 21.4099 47.6811 20.9813C47.6811 20.5526 47.1114 20.5571 47.1114 20.5571H46.5461V21.4099Z" fill="black"/>
<path d="M48.9141 19.9873H49.4838V23.3978H48.9141V19.9873Z" fill="black"/>
<path d="M53.1047 23.3978H52.5295L50.8337 20.9714V23.3978H50.2639V19.9873H50.8391L52.5394 22.4138V19.9873H53.1047V23.3978Z" fill="black"/>
<path d="M56.9054 21.4593V23.4032H56.4085L56.3788 23.0913C56.1011 23.3493 55.8135 23.4472 55.4091 23.4472C54.4934 23.4472 53.7771 22.8091 53.7771 21.693C53.7771 20.6792 54.5419 19.9387 55.4828 19.9387C55.9555 19.9387 56.3797 20.1283 56.6862 20.4402L56.2862 20.8401C56.0813 20.6352 55.7938 20.5085 55.4819 20.5085C54.8537 20.5085 54.3469 20.9471 54.3469 21.693C54.3469 22.5261 54.8537 22.8774 55.4819 22.8774C55.8225 22.8774 56.1254 22.731 56.3348 22.4928V21.9617H55.4289V21.4602H56.9054V21.4593Z" fill="black"/>
<path d="M12.7847 2.86353H3.08423V27.7142H5.17909V5.24866H12.4279C13.0426 5.24866 13.5414 5.74743 13.5414 6.36214V8.12897C13.5414 8.83175 12.9716 9.40152 12.2689 9.40152H8.30653V11.8747H12.6257C14.2882 11.8747 15.6363 10.5267 15.6363 8.8641V5.71598C15.6363 4.14147 14.3592 2.86442 12.7847 2.86442V2.86353Z" fill="black"/>
<path d="M17.0401 21.1592H12.6797V23.1102H17.0401V21.1592Z" fill="black"/>
<path d="M11.6956 25.57V18.9269H18.1626V16.7476H9.55127V17.7146V18.9269V25.57V26.7824V27.7143H18.62V25.57H11.6956Z" fill="black"/>
</svg>
