<svg width="149" height="79" viewBox="0 0 149 79" fill="none" xmlns="http://www.w3.org/2000/svg">
<path d="M54.99 0H0V78.1376H54.99V0Z" fill="#F1D046"/>
<path d="M41.7816 14.4482H16.3821V71.0501H21.8672V20.6934H40.8474C42.457 20.6934 43.7629 21.9994 43.7629 23.6089V28.2352C43.7629 30.0753 42.2711 31.5672 40.4309 31.5672H30.056V38.0429H41.3651C45.7184 38.0429 49.248 34.5133 49.248 30.16V21.917C49.248 17.7944 45.9043 14.4506 41.7816 14.4506V14.4482Z" fill="#FBFCFB"/>
<path d="M71.4926 22.813C71.4926 25.4273 68.5065 25.4273 68.5065 25.4273H67.0146V29.1523H65.5227V20.1963H68.5088C68.5088 20.1963 71.4949 20.1963 71.4949 22.8106L71.4926 22.813ZM70.0007 22.813C70.0007 21.6905 68.5088 21.6905 68.5088 21.6905H67.0169V23.9354H68.5088C68.5088 23.9354 70.0007 23.9354 70.0007 22.813Z" fill="white"/>
<path d="M75.6129 25.4043H74.401V29.1293H72.9092V20.1992H75.8812C75.8812 20.1992 78.8673 20.1992 78.8673 22.8018C78.8673 24.2442 77.9496 24.8819 77.1448 25.1737L78.9685 29.1293H77.3236L75.6153 25.4043H75.6129ZM74.401 23.9242H75.8812C75.8812 23.9242 77.373 23.9242 77.373 22.8018C77.373 21.6793 75.8812 21.6911 75.8812 21.6911H74.401V23.9242Z" fill="white"/>
<path d="M82.0556 21.6911V23.9242H85.7688V25.4043H82.0556V27.6374H86.5218V29.1293H80.5637V20.1992H86.5218V21.6911H82.0556Z" fill="white"/>
<path d="M97.7371 29.1288H96.2452V23.6436L93.6804 29.1288H92.2779L89.5483 23.5283V29.1288H88.0564V20.1846H89.5741L92.9673 27.138L96.2217 20.1846H97.7395V29.1288H97.7371Z" fill="white"/>
<path d="M99.791 20.1992H101.283V29.1293H99.791V20.1992Z" fill="white"/>
<path d="M103.326 26.2697V20.1963H104.818V26.2697C104.895 27.3027 105.724 27.7616 106.667 27.7616C107.611 27.7616 108.531 27.2651 108.531 26.2697V20.1963H110.023V26.2697C110.023 28.171 108.569 29.2558 106.667 29.2558C104.766 29.2558 103.323 28.1075 103.323 26.2697H103.326Z" fill="white"/>
<path d="M121.71 29.1288H120.218V23.6436L117.653 29.1288H116.251L113.521 23.5283V29.1288H112.03V20.1846H113.547L116.94 27.138L120.195 20.1846H121.713V29.1288H121.71Z" fill="white"/>
<path d="M71.4926 38.1225C71.4926 40.7368 68.5065 40.7368 68.5065 40.7368H67.0146V44.4618H65.5227V35.5059H68.5088C68.5088 35.5059 71.4949 35.5059 71.4949 38.1202L71.4926 38.1225ZM70.0007 38.1225C70.0007 37.0001 68.5088 37.0001 68.5088 37.0001H67.0169V39.245H68.5088C68.5088 39.245 70.0007 39.245 70.0007 38.1225Z" fill="white"/>
<path d="M75.6129 40.7129H74.401V44.4379H72.9092V35.5078H75.8812C75.8812 35.5078 78.8673 35.5078 78.8673 38.1104C78.8673 39.5528 77.9496 40.1905 77.1448 40.4823L78.9685 44.4379H77.3236L75.6153 40.7129H75.6129ZM74.401 39.2328H75.8812C75.8812 39.2328 77.373 39.2328 77.373 38.1104C77.373 36.9879 75.8812 36.9997 75.8812 36.9997H74.401V39.2328Z" fill="white"/>
<path d="M84.6209 44.5533C78.7264 44.5533 78.7405 35.3926 84.6209 35.3926C90.5014 35.3926 90.4896 44.5533 84.6209 44.5533ZM84.6209 36.8468C80.7689 36.8468 80.7548 43.1108 84.6209 43.1108C88.4871 43.1108 88.4871 36.8468 84.6209 36.8468Z" fill="white"/>
<path d="M94.8547 43.4055H91.7156L91.3321 44.4385H89.7249L93.2851 35.252L96.8572 44.4385H95.25L94.8547 43.4055ZM92.2003 42.116H94.3699L93.2851 39.0146L92.2003 42.116Z" fill="white"/>
<path d="M104.142 42.2043L105.189 43.2632C104.385 44.068 103.276 44.5645 102.039 44.5645C99.5772 44.5645 97.5605 42.7785 97.5605 39.9712C97.5605 37.1639 99.4242 35.3779 102.039 35.3779C103.276 35.3779 104.387 35.8744 105.189 36.691L104.142 37.7381C103.606 37.2016 102.853 36.8698 102.036 36.8698C100.198 36.8698 99.0759 38.1711 99.0759 39.9712C99.0759 41.8843 100.389 43.0726 102.036 43.0726C102.853 43.0726 103.606 42.7408 104.142 42.2043Z" fill="white"/>
<path d="M111.197 36.8726H109.321V44.4379H107.841V36.8726H105.966V35.5078H111.197V36.8726Z" fill="white"/>
<path d="M112.472 35.5078H113.964V44.4379H112.472V35.5078Z" fill="white"/>
<path d="M122.129 35.5078L118.557 44.6685L114.997 35.5078H116.604L118.557 40.7764L120.522 35.5078H122.129Z" fill="white"/>
<path d="M124.645 36.9997V39.2328H128.358V40.7129H124.645V42.946H129.111V44.4379H123.153V35.5078H129.111V36.9997H124.645Z" fill="white"/>
<path d="M67.0146 52.3122V54.5453H70.7278V56.0254H67.0146V58.2585H71.4808V59.7504H65.5227V50.8203H71.4808V52.3122H67.0146Z" fill="white"/>
<path d="M80.4624 59.7475H78.9564L74.516 53.394V59.7475H73.0242V50.8174H74.5302L78.9822 57.1708V50.8174H80.4624V59.7475Z" fill="white"/>
<path d="M90.4139 54.6729V59.7627H89.1126L89.0349 58.9461C88.3078 59.6215 87.5548 59.878 86.4959 59.878C84.0981 59.878 82.2227 58.2073 82.2227 55.2847C82.2227 52.6304 84.2252 50.6914 86.6889 50.6914C87.9266 50.6914 89.0373 51.1879 89.8397 52.0044L88.7926 53.0516C88.2561 52.5151 87.503 52.1833 86.6865 52.1833C85.0417 52.1833 83.7145 53.3316 83.7145 55.2847C83.7145 57.466 85.0417 58.3861 86.6865 58.3861C87.5783 58.3861 88.3714 58.0025 88.9196 57.379V55.9883H86.5477V54.6752H90.4139V54.6729Z" fill="white"/>
<path d="M92.3906 50.8174H93.8825V59.7475H92.3906V50.8174Z" fill="white"/>
<path d="M103.363 59.7475H101.857L97.4169 53.394V59.7475H95.925V50.8174H97.431L101.883 57.1708V50.8174H103.363V59.7475Z" fill="white"/>
<path d="M106.883 52.3122V54.5453H110.597V56.0254H106.883V58.2585H111.35V59.7504H105.392V50.8203H111.35V52.3122H106.883Z" fill="white"/>
<path d="M114.385 52.3122V54.5453H118.098V56.0254H114.385V58.2585H118.851V59.7504H112.893V50.8203H118.851V52.3122H114.385Z" fill="white"/>
<path d="M123.087 56.0225H121.875V59.7475H120.383V50.8174H123.355C123.355 50.8174 126.341 50.8174 126.341 53.4199C126.341 54.8624 125.424 55.5001 124.619 55.7919L126.443 59.7475H124.798L123.089 56.0225H123.087ZM121.875 54.5424H123.355C123.355 54.5424 124.847 54.5424 124.847 53.4199C124.847 52.2975 123.355 52.3093 123.355 52.3093H121.875V54.5424Z" fill="white"/>
<path d="M128.076 50.8174H129.568V59.7475H128.076V50.8174Z" fill="white"/>
<path d="M139.048 59.7475H137.542L133.102 53.394V59.7475H131.61V50.8174H133.116L137.568 57.1708V50.8174H139.048V59.7475Z" fill="white"/>
<path d="M149 54.6729V59.7627H147.699L147.621 58.9461C146.894 59.6215 146.141 59.878 145.082 59.878C142.684 59.878 140.809 58.2073 140.809 55.2847C140.809 52.6304 142.811 50.6914 145.275 50.6914C146.513 50.6914 147.623 51.1879 148.426 52.0044L147.379 53.0516C146.842 52.5151 146.089 52.1833 145.273 52.1833C143.628 52.1833 142.301 53.3316 142.301 55.2847C142.301 57.466 143.628 58.3861 145.273 58.3861C146.165 58.3861 146.958 58.0025 147.506 57.379V55.9883H145.134V54.6752H149V54.6729Z" fill="white"/>
<path d="M33.4752 5.98242H8.07568V71.0508H13.5608V12.2276H32.541C34.1506 12.2276 35.4565 13.5336 35.4565 15.1431V19.7693C35.4565 21.6095 33.9647 23.1013 32.1245 23.1013H21.7496V29.5771H33.0587C37.412 29.5771 40.9417 26.0475 40.9417 21.6942V13.4512C40.9417 9.32856 37.5979 5.98478 33.4752 5.98478V5.98242Z" fill="black"/>
<path d="M44.6178 53.8867H33.2004V58.9953H44.6178V53.8867Z" fill="black"/>
<path d="M30.6236 65.4355V48.0413H47.5566V42.335H25.009V44.8669V48.0413V65.4355V68.6099V71.05H48.7543V65.4355H30.6236Z" fill="black"/>
</svg>
