<svg width="452" height="454" viewBox="0 0 452 454" fill="none" xmlns="http://www.w3.org/2000/svg">
<g clipPath="url(#clip0_536_5753)">
<path d="M247.16 337.75H143.01V418.08H247.16V337.75Z" fill="#EBEBEB"/>
<path d="M221.07 417.52C220.93 417.52 220.81 399.61 220.81 377.52C220.81 355.43 220.93 337.52 221.07 337.52C221.21 337.52 221.33 355.43 221.33 377.52C221.33 399.61 221.21 417.52 221.07 417.52Z" fill="#E0E0E0"/>
<path d="M238.33 399.8H230.35V408.83H238.33V399.8Z" fill="#FAFAFA"/>
<path d="M186.62 337.96H174.79V355.1H186.62V337.96Z" fill="#E0E0E0"/>
<path d="M186.62 400.699H174.79V417.839H186.62V400.699Z" fill="#E0E0E0"/>
<path d="M436.15 317.609H304.82V418.899H436.15V317.609Z" fill="#EBEBEB"/>
<path d="M403.24 418.18C403.1 418.18 402.98 395.61 402.98 367.76C402.98 339.91 403.1 317.34 403.24 317.34C403.38 317.34 403.5 339.91 403.5 367.76C403.5 395.61 403.39 418.18 403.24 418.18Z" fill="#E0E0E0"/>
<path d="M425.01 395.84H414.94V407.22H425.01V395.84Z" fill="#FAFAFA"/>
<path d="M359.8 317.869H344.88V339.479H359.8V317.869Z" fill="#E0E0E0"/>
<path d="M359.8 396.979H344.88V418.589H359.8V396.979Z" fill="#E0E0E0"/>
<path d="M57.46 320.59C62.78 317.85 69.04 317.49 74.94 318.47C78.11 318.99 81.41 319.94 83.57 322.32C85.73 324.7 86.13 328.89 83.66 330.94C82.18 332.16 80.13 332.34 78.21 332.32C73.59 332.26 68.47 331.45 64.78 334.23C62.67 335.82 61.27 338.45 58.78 339.23C56.29 340.01 53.54 338.54 52.24 336.32C51.0373 334.005 50.7723 331.315 51.5 328.81C51.7944 327.074 52.4853 325.429 53.519 324.003C54.5527 322.577 55.9013 321.409 57.46 320.59Z" fill="#EBEBEB"/>
<path d="M45.28 297.08C48.53 301.72 54.85 300.19 57.78 297.35C60.71 294.51 61.95 290.41 63.07 286.5C65.65 277.55 68.24 268.16 66.33 259.05C65.8701 256.287 64.6553 253.705 62.82 251.59C61.8908 250.551 60.7062 249.773 59.3837 249.332C58.0611 248.892 56.6465 248.805 55.28 249.08C52.09 249.92 50.11 253.08 48.68 256.01C44.4638 264.769 42.2568 274.359 42.22 284.08C42.22 288.61 42.73 293.35 45.28 297.08Z" fill="#EBEBEB"/>
<path d="M36.36 303.74C39.89 299.55 40.56 293.45 38.99 288.2C37.42 282.95 33.87 278.49 29.78 274.84C24.9695 270.561 19.3721 267.259 13.3 265.12C10.9466 264.169 8.41527 263.739 5.87998 263.86C4.61525 263.932 3.38735 264.312 2.30324 264.968C1.21913 265.623 0.3117 266.533 -0.340017 267.62C-2.08002 270.93 -0.410018 274.94 1.38998 278.22C4.55979 283.991 8.17756 289.504 12.21 294.71C15.46 298.89 19.21 303.02 24.12 304.91C29.03 306.8 34.21 306.58 36.83 303.15" fill="#EBEBEB"/>
<path d="M45.06 367.1C45.2337 366.412 45.3343 365.709 45.36 365C45.51 363.46 45.69 361.53 45.92 359.24C46.2067 356.407 46.6372 353.59 47.21 350.8C47.9614 347.389 48.9881 344.045 50.28 340.8C51.5471 337.576 53.2605 334.547 55.37 331.8C57.0946 329.566 59.2899 327.74 61.8 326.45C63.5071 325.608 65.3363 325.041 67.22 324.77C67.9291 324.742 68.6332 324.638 69.32 324.46C68.6122 324.382 67.8979 324.382 67.19 324.46C65.2338 324.607 63.3201 325.105 61.54 325.93C58.8894 327.18 56.5651 329.029 54.75 331.33C52.5422 334.113 50.7626 337.211 49.47 340.52C48.1797 343.804 47.1759 347.193 46.47 350.65C45.926 353.475 45.5487 356.33 45.34 359.2C45.16 361.65 45.09 363.63 45.06 365C44.9863 365.698 44.9863 366.402 45.06 367.1Z" fill="#E0E0E0"/>
<path d="M45.46 362.68C45.5194 362.35 45.5395 362.014 45.52 361.68C45.52 360.94 45.52 360.01 45.52 358.88C45.52 356.45 45.52 352.93 45.64 348.59C45.86 339.91 46.64 330.59 48.05 317.4C49.42 305.01 51.25 290.6 53.19 281.23C53.6 279.1 54.02 277.18 54.42 275.5C54.82 273.82 55.11 272.36 55.42 271.19C55.73 270.02 55.9 269.19 56.08 268.47C56.1779 268.145 56.235 267.809 56.25 267.47C56.0994 267.761 55.9852 268.07 55.91 268.39C55.69 269.1 55.42 269.98 55.09 271.07C54.76 272.16 54.36 273.68 53.94 275.35C53.52 277.02 53.04 278.94 52.59 281.07C50.1878 292.152 48.3818 303.354 47.18 314.63C45.74 327.83 45.09 339.85 45.03 348.55C45.03 352.9 45.03 356.43 45.18 358.86C45.25 359.99 45.31 360.92 45.35 361.65C45.3452 361.996 45.3821 362.342 45.46 362.68Z" fill="#E0E0E0"/>
<path d="M45.52 339.499C45.5962 338.524 45.5962 337.545 45.52 336.569C45.41 334.689 45.15 331.979 44.62 328.649C43.9659 324.756 43.0912 320.903 42 317.109C40.7388 312.44 39.1242 307.874 37.17 303.449C33.8242 295.297 29.0226 287.822 23 281.389C21.955 280.285 20.8393 279.249 19.66 278.289C19.15 277.849 18.66 277.419 18.24 277.079L17 276.189C16.2217 275.595 15.3955 275.067 14.53 274.609C14.39 274.799 18.02 276.939 22.6 281.809C28.4257 288.302 33.0996 295.743 36.42 303.809C38.3405 308.205 39.9609 312.725 41.27 317.339C42.3696 321.098 43.2808 324.91 44 328.759C44.6 332.049 45 334.759 45.16 336.599C45.2027 337.574 45.3231 338.544 45.52 339.499Z" fill="#E0E0E0"/>
<path d="M21.5599 376.859L23.8799 408.689H64.7699L67.0899 376.859H21.5599Z" fill="#EBEBEB"/>
<path d="M71.96 364.319H17.61V376.859H71.96V364.319Z" fill="#EBEBEB"/>
<path d="M17.61 407.47V410.94H20.17H71.07V407.47H17.61Z" fill="#E0E0E0"/>
<path d="M22.6699 416.68L20.1699 410.56H69.1199L66.1999 416.68H22.6699Z" fill="#E0E0E0"/>
<path d="M66.33 387.26C66.2789 387.367 66.2151 387.468 66.14 387.56C65.98 387.77 65.77 388.04 65.53 388.37L63.15 391.37L63.04 391.51L62.94 391.37L57.09 383.28H57.42L51.66 391.43L51.48 391.69L51.28 391.45L44.45 383.32H44.84L44.47 383.8L38.36 391.45L38.15 391.71L37.97 391.44L32.2 383.29H32.54L25.44 391.37L25.32 391.52L25.22 391.35L23 387.67C22.76 387.27 22.58 386.94 22.43 386.67C22.3546 386.558 22.2941 386.437 22.25 386.31C22.3436 386.405 22.4243 386.513 22.49 386.63L23.12 387.58L25.45 391.25H25.23L32.23 383.07L32.4 382.86L32.56 383.08L38.38 391.2H38L44.09 383.53C44.22 383.37 44.35 383.21 44.46 383.06L44.66 382.81L44.86 383.05L51.67 391.2H51.29L57.11 383.09L57.28 382.85L57.44 383.09C59.75 386.38 61.71 389.17 63.17 391.27H62.96L65.44 388.27C65.71 387.96 65.93 387.71 66.1 387.5C66.1707 387.414 66.2476 387.334 66.33 387.26Z" fill="#F5F5F5"/>
<path d="M67.66 376.649C67.66 376.789 57.41 376.909 44.78 376.909C32.15 376.909 21.9 376.789 21.9 376.649C21.9 376.509 32.14 376.399 44.78 376.399C57.42 376.399 67.66 376.509 67.66 376.649Z" fill="#F5F5F5"/>
<path d="M354.422 15.8004L346.042 15.8457L346.268 57.5451L354.648 57.4998L354.422 15.8004Z" fill="#E0E0E0"/>
<path d="M295.144 15.9119L273.444 16.0293L273.569 39.049L295.268 38.9316L295.144 15.9119Z" fill="#EBEBEB"/>
<path d="M316.743 15.7947L295.043 15.9121L295.168 38.9318L316.867 38.8144L316.743 15.7947Z" fill="#F5F5F5"/>
<path d="M273.47 22.3995C287.897 22.5195 302.33 22.4528 316.77 22.1995C316.831 22.1995 316.89 22.1753 316.933 22.1321C316.976 22.089 317 22.0305 317 21.9695C317 21.9085 316.976 21.85 316.933 21.8069C316.89 21.7637 316.831 21.7395 316.77 21.7395C302.35 21.6595 287.89 21.7395 273.47 22.0095C273.426 22.0196 273.386 22.0444 273.358 22.0798C273.33 22.1152 273.314 22.1592 273.314 22.2045C273.314 22.2498 273.33 22.2938 273.358 22.3292C273.386 22.3647 273.426 22.3894 273.47 22.3995Z" fill="#E0E0E0"/>
<path d="M299.346 38.5484L259.917 38.7617L260.018 57.5214L299.448 57.3081L299.346 38.5484Z" fill="#EBEBEB"/>
<path d="M338.585 38.3365L299.155 38.5498L299.257 57.3095L338.686 57.0962L338.585 38.3365Z" fill="#F5F5F5"/>
<path d="M259.94 43.9998C286.13 44.2898 312.41 43.9998 338.61 43.6098C338.671 43.6098 338.73 43.5855 338.773 43.5424C338.816 43.4993 338.84 43.4408 338.84 43.3798C338.84 43.3188 338.816 43.2603 338.773 43.2171C338.73 43.174 338.671 43.1498 338.61 43.1498C312.42 43.0098 286.13 43.0198 259.94 43.5998C259.887 43.5998 259.836 43.6208 259.799 43.6583C259.761 43.6958 259.74 43.7467 259.74 43.7998C259.74 43.8528 259.761 43.9037 259.799 43.9412C259.836 43.9787 259.887 43.9998 259.94 43.9998Z" fill="#E0E0E0"/>
<path d="M397.95 57.54H245.19V64.26H397.95V57.54Z" fill="#E0E0E0"/>
<path d="M276.4 60.7695H270.2V83.6995H276.4V60.7695Z" fill="#E0E0E0"/>
<path d="M368.97 60.7695H362.77V83.6995H368.97V60.7695Z" fill="#E0E0E0"/>
<path d="M362.598 0.246652L354.218 0.291992L354.528 57.6411L362.908 57.5958L362.598 0.246652Z" fill="#EBEBEB"/>
<path d="M375.685 10.9256L362.666 10.9961L362.917 57.4754L375.937 57.405L375.685 10.9256Z" fill="#F5F5F5"/>
<path d="M375.6 19.9C371.272 20.2057 366.928 20.2057 362.6 19.9C366.928 19.6076 371.272 19.6076 375.6 19.9Z" fill="#E0E0E0"/>
<path d="M375.6 17.9998C373.437 18.2187 371.262 18.2922 369.09 18.2198C366.917 18.2918 364.743 18.2183 362.58 17.9998C366.908 17.6941 371.252 17.6941 375.58 17.9998H375.6Z" fill="#E0E0E0"/>
<path d="M375.6 50.4293C371.272 50.735 366.928 50.735 362.6 50.4293C366.928 50.1369 371.272 50.1369 375.6 50.4293Z" fill="#E0E0E0"/>
<path d="M375.6 48.4793C371.272 48.7717 366.928 48.7717 362.6 48.4793C366.928 48.1736 371.272 48.1736 375.6 48.4793Z" fill="#E0E0E0"/>
<path d="M369.3 44.2195C369.18 44.2195 369.08 39.5295 369.08 33.7495C369.08 27.9695 369.18 23.2695 369.3 23.2695C369.42 23.2695 369.53 27.9595 369.53 33.7495C369.53 39.5395 369.43 44.2195 369.3 44.2195Z" fill="#E0E0E0"/>
<path d="M389.92 22.3594H375.75V57.4394H389.92V22.3594Z" fill="#EBEBEB"/>
<path d="M358.28 12.4694C359.611 12.4694 360.69 11.3904 360.69 10.0594C360.69 8.72841 359.611 7.64941 358.28 7.64941C356.949 7.64941 355.87 8.72841 355.87 10.0594C355.87 11.3904 356.949 12.4694 358.28 12.4694Z" fill="#E0E0E0"/>
<path d="M359.03 16.6895H357.54V50.8095H359.03V16.6895Z" fill="#E0E0E0"/>
<path d="M440.66 418.35C440.66 418.5 344.54 418.61 226.01 418.61C107.48 418.61 11.34 418.5 11.34 418.35C11.34 418.2 107.44 418.09 226.01 418.09C344.58 418.09 440.66 418.21 440.66 418.35Z" fill="#263238"/>
<path d="M125.21 51.3506C129.926 57.1217 132.479 64.3579 132.43 71.8106C132.38 76.0306 131.6 80.6806 134.06 84.1106C135.92 86.7106 139.32 88.0206 140.83 90.8406C142.65 94.2306 141.1 98.5206 142.22 102.201C143.8 107.421 149.92 109.611 153.55 113.681C155.097 115.48 156.18 117.632 156.703 119.947C157.226 122.262 157.173 124.67 156.55 126.961C155.889 129.241 154.693 131.331 153.061 133.056C151.43 134.782 149.41 136.093 147.17 136.881C144.778 137.823 142.11 137.78 139.75 136.761C137.3 135.541 135.75 133.031 134.55 130.581C132.14 125.761 110.97 99.7106 109.77 94.4506" fill="#263238"/>
<path d="M109.81 45.2105C101.15 43.8105 92.81 49.5605 89.18 57.5405C85.55 65.5205 85.43 74.5405 85.18 83.3405C84.93 92.1405 84.29 101.26 79.82 108.8C76.98 113.59 72.58 117.8 71.89 123.31C71.27 128.25 73.83 133.23 72.98 138.14C72.24 142.42 68.98 146.14 69.11 150.47C69.27 155.69 74.64 159.62 79.85 159.76C85.06 159.9 89.94 157.17 94.03 153.93C100.694 148.64 106.026 141.862 109.6 134.14" fill="#263238"/>
<path d="M95.5599 65.8507C95.2879 63.6723 95.4562 61.4615 96.055 59.3494C96.6538 57.2373 97.6708 55.2671 99.0456 53.5555C100.42 51.844 102.125 50.4261 104.058 49.386C105.992 48.3459 108.114 47.7048 110.3 47.5007C119.03 46.6607 126.8 53.1707 128.11 61.8507C129.26 69.4607 130.24 77.1407 130.21 79.9307C130.1 88.3407 125.21 91.6107 123.21 92.6007C122.491 92.8589 121.747 93.0432 120.99 93.1507V93.2107L122.85 102.871C123.7 109.201 120.17 114.871 113.85 115.761C107.53 116.651 102.56 111.821 101.59 105.491L95.5599 65.8507Z" fill="#FFBE9D"/>
<path d="M126.39 65.5306C126.25 65.7306 125.14 65.1406 123.72 65.3506C122.3 65.5606 121.35 66.4206 121.17 66.2706C120.99 66.1206 121.17 65.8706 121.61 65.4706C122.157 64.9379 122.856 64.5884 123.61 64.4706C124.35 64.3565 125.107 64.4826 125.77 64.8306C126.27 65.1506 126.46 65.4506 126.39 65.5306Z" fill="#263238"/>
<path d="M113.73 68.6104C113.59 68.8104 112.48 68.2104 111.05 68.4204C109.62 68.6304 108.69 69.5004 108.51 69.3504C108.33 69.2004 108.51 68.9404 108.95 68.5504C109.497 68.0177 110.196 67.6682 110.95 67.5504C111.691 67.4449 112.446 67.5743 113.11 67.9204C113.6 68.2304 113.8 68.5204 113.73 68.6104Z" fill="#263238"/>
<path d="M118.92 76.2407C119.635 75.8966 120.391 75.6446 121.17 75.4907C121.53 75.4007 121.86 75.2807 121.89 75.0207C121.858 74.6554 121.718 74.3076 121.49 74.0207L120 71.3607C117.93 67.6407 116.38 64.5607 116.53 64.4707C116.68 64.3807 118.53 67.3507 120.53 71.0707C121.04 71.9907 121.53 72.8707 121.97 73.7007C122.261 74.1074 122.402 74.6019 122.37 75.1007C122.337 75.2372 122.273 75.3642 122.183 75.4717C122.092 75.5793 121.979 75.6645 121.85 75.7207C121.655 75.8061 121.45 75.8665 121.24 75.9007C120.485 76.1148 119.705 76.2291 118.92 76.2407Z" fill="#263238"/>
<path d="M120.91 93.1603C120.91 93.1603 115.48 94.4103 108 91.2803C108 91.2803 111.23 98.2303 121.42 95.7603L120.91 93.1603Z" fill="#EB996E"/>
<path d="M113 64.8801C112.92 65.2901 111.47 65.3101 109.83 65.7601C108.19 66.2101 106.9 66.8501 106.63 66.5401C106.51 66.3901 106.69 65.9901 107.18 65.5401C107.84 64.9758 108.619 64.5691 109.46 64.3508C110.3 64.1325 111.179 64.1083 112.03 64.2801C112.69 64.4301 113 64.6901 113 64.8801Z" fill="#263238"/>
<path d="M125.22 62.3801C125.02 62.7401 123.99 62.5501 122.81 62.7001C121.63 62.8501 120.66 63.2401 120.38 62.9301C120.26 62.7801 120.38 62.4401 120.76 62.0701C121.284 61.6052 121.942 61.3181 122.64 61.2501C123.329 61.1671 124.026 61.2962 124.64 61.6201C125.12 61.8901 125.31 62.2001 125.22 62.3801Z" fill="#263238"/>
<path d="M110.64 70.4499C110.662 70.6047 110.714 70.7535 110.794 70.8878C110.874 71.0221 110.98 71.1392 111.106 71.2322C111.231 71.3252 111.374 71.3924 111.526 71.4298C111.678 71.4671 111.835 71.474 111.99 71.4499C112.14 71.4326 112.285 71.3856 112.417 71.3117C112.549 71.2378 112.665 71.1383 112.758 71.0192C112.851 70.9001 112.919 70.7637 112.959 70.6179C112.999 70.4721 113.009 70.3198 112.99 70.1699C112.943 69.8585 112.775 69.5784 112.521 69.391C112.268 69.2036 111.951 69.1241 111.64 69.1699C111.489 69.1859 111.343 69.232 111.211 69.3056C111.078 69.3791 110.962 69.4785 110.869 69.5979C110.775 69.7174 110.707 69.8543 110.668 70.0007C110.628 70.1471 110.619 70.2998 110.64 70.4499Z" fill="#263238"/>
<path d="M123.25 67.7204C123.297 68.0318 123.465 68.3119 123.718 68.4993C123.971 68.6868 124.288 68.7663 124.6 68.7204C124.75 68.7031 124.895 68.6561 125.027 68.5822C125.159 68.5083 125.275 68.4089 125.368 68.2897C125.461 68.1706 125.529 68.0342 125.569 67.8884C125.609 67.7426 125.62 67.5903 125.6 67.4404C125.553 67.129 125.385 66.8489 125.132 66.6615C124.879 66.4741 124.562 66.3946 124.25 66.4404C124.099 66.4564 123.953 66.5025 123.821 66.5761C123.688 66.6496 123.572 66.749 123.479 66.8684C123.385 66.9879 123.317 67.1248 123.278 67.2712C123.238 67.4176 123.229 67.5703 123.25 67.7204Z" fill="#263238"/>
<path d="M121.16 79.0004C120.767 78.8782 120.344 78.8973 119.964 79.0544C119.585 79.2115 119.272 79.4967 119.08 79.8604C118.897 80.1944 118.823 80.5772 118.867 80.9554C118.912 81.3336 119.074 81.6884 119.33 81.9704C119.602 82.2381 119.961 82.4002 120.342 82.4277C120.723 82.4551 121.102 82.3462 121.41 82.1204C121.796 81.7692 122.029 81.2811 122.06 80.7604C122.128 80.283 122.014 79.7975 121.74 79.4004C121.599 79.2063 121.399 79.0638 121.169 78.9951C120.94 78.9264 120.694 78.9353 120.47 79.0204" fill="#EB996E"/>
<path d="M127 55.0003C126.215 51.832 124.256 49.0799 121.52 47.3003C119.28 45.6825 116.62 44.7481 113.86 44.6103C111.083 44.4908 108.372 45.476 106.32 47.3503C104.864 48.7937 104.031 50.7502 104 52.8003L104.16 51.4003C103.74 52.5395 103.74 53.7912 104.16 54.9303C104.39 55.5403 104.67 56.1603 104.91 56.7703C105.626 58.5331 106.954 59.9783 108.65 60.8403C109.418 61.2523 110.278 61.4623 111.15 61.4503C111.586 61.4416 112.015 61.3377 112.408 61.146C112.8 60.9543 113.145 60.6793 113.42 60.3403C114.041 59.2563 114.234 57.9792 113.96 56.7603C114.616 57.9648 115.553 58.9938 116.69 59.7603C117.271 60.1315 117.962 60.2913 118.646 60.213C119.331 60.1347 119.968 59.823 120.45 59.3303C121.27 58.3303 120.95 56.7503 120.45 55.5103C121.224 56.6799 122.307 57.6113 123.58 58.2003C123.915 58.3924 124.286 58.513 124.67 58.5543C125.054 58.5956 125.442 58.5568 125.81 58.4403C126.104 58.2944 126.362 58.0836 126.563 57.8237C126.763 57.5639 126.903 57.2618 126.97 56.9403C127.118 56.3032 127.129 55.6417 127 55.0003Z" fill="#263238"/>
<path d="M119.77 57.6607C119.68 57.6607 119.7 56.4707 119.31 54.6607C118.86 52.2555 117.651 50.058 115.86 48.3907C114.876 47.4956 113.688 46.8537 112.4 46.5207C111.345 46.2618 110.246 46.2345 109.18 46.4407C108.197 46.6704 107.258 47.0589 106.4 47.5907C106.4 47.5907 106.57 47.3407 107.01 47.0207C107.641 46.579 108.35 46.2601 109.1 46.0807C110.221 45.8182 111.388 45.8182 112.51 46.0807C113.892 46.4257 115.164 47.1135 116.21 48.0807C118.085 49.8167 119.31 52.1423 119.68 54.6707C119.799 55.4182 119.859 56.1738 119.86 56.9307C119.872 57.1774 119.842 57.4244 119.77 57.6607Z" fill="#455A64"/>
<path d="M211.87 174.25L173.42 159C173.42 159 153.73 133.17 154.14 132.67L140.31 147.81L160.41 175L207 185.92L215 183.7C213.24 175.21 211.87 174.25 211.87 174.25Z" fill="#FFBE9D"/>
<path d="M128.07 100.561L122.83 98.5605L100.21 101.431V105.431L99.5599 105.511C94.6839 106.547 90.0071 108.364 85.7099 110.891C81.6846 113.348 78.4863 116.953 76.5261 121.242C74.5659 125.531 73.9334 130.309 74.7099 134.961C75.6299 140.681 77.4099 147.631 80.8499 151.651C87.4199 159.341 93.4199 149.841 93.4199 149.841C93.4199 149.841 97.5399 159.241 97.2999 163.691C97.0999 167.421 95.4599 175.181 94.9299 177.601C94.9081 177.697 94.9063 177.797 94.9245 177.895C94.9427 177.992 94.9805 178.085 95.0357 178.167C95.0909 178.25 95.1623 178.32 95.2456 178.374C95.3288 178.428 95.4221 178.464 95.5199 178.481L143.24 187.311L143.47 175.641L141.95 127.641L139.8 109.001C139.8 109.001 139.87 100.101 128.07 100.561Z" fill="#FFE16C"/>
<path d="M139.07 105.9L157.27 132.19L142.62 150.03L139.07 105.9Z" fill="#FFE16C"/>
<path d="M143 161.22C142.935 160.656 142.911 160.088 142.93 159.52C142.93 158.34 142.93 156.79 142.87 154.9C142.781 149.828 142.418 144.764 141.78 139.73C141.03 133.83 139.88 128.56 139.01 124.73L137.95 120.23C137.796 119.686 137.683 119.131 137.61 118.57C137.837 119.09 138.018 119.629 138.15 120.18C138.46 121.18 138.88 122.75 139.36 124.65C140.651 129.584 141.633 134.594 142.3 139.65C142.943 144.705 143.257 149.795 143.24 154.89C143.24 156.89 143.19 158.43 143.13 159.52C143.135 160.09 143.092 160.658 143 161.22Z" fill="#263238"/>
<path d="M98.2 121.25C98.2 121.33 96.82 121.32 94.61 121.43C91.7264 121.587 88.8584 121.958 86.03 122.54C83.2022 123.134 80.4215 123.933 77.71 124.93C75.63 125.7 74.38 126.27 74.34 126.19C74.5963 125.989 74.8789 125.825 75.18 125.7C75.73 125.4 76.55 125.02 77.58 124.59C82.976 122.362 88.7428 121.168 94.58 121.07C95.7 121.07 96.58 121.07 97.23 121.13C97.5576 121.12 97.8848 121.16 98.2 121.25Z" fill="#FAFAFA"/>
<path d="M140.35 133.281C139.619 133.547 138.855 133.715 138.08 133.781C134.382 134.321 130.636 134.448 126.91 134.161C126.132 134.147 125.359 134.033 124.61 133.821C125.382 133.752 126.158 133.752 126.93 133.821C128.35 133.821 130.32 133.821 132.49 133.821C134.66 133.821 136.62 133.601 138.04 133.471C138.803 133.338 139.576 133.274 140.35 133.281Z" fill="#FAFAFA"/>
<path d="M148.7 121.39C147.598 122.664 146.277 123.731 144.8 124.54C143.406 125.483 141.85 126.161 140.21 126.54C140.15 126.4 142.21 125.54 144.53 124.06C146.85 122.58 148.6 121.27 148.7 121.39Z" fill="#FAFAFA"/>
<path d="M141.35 109.201C138.195 112.039 134.175 113.73 129.94 114.001C129.94 113.841 132.69 113.421 135.85 112.071C139.01 110.721 141.25 109.071 141.35 109.201Z" fill="#FAFAFA"/>
<path d="M142.34 153.64C142.046 153.838 141.73 154.002 141.4 154.13C140.77 154.43 139.86 154.8 138.7 155.23C135.686 156.313 132.575 157.104 129.41 157.59C126.245 158.079 123.04 158.256 119.84 158.12C118.61 158.07 117.62 157.98 116.94 157.89C116.584 157.867 116.232 157.803 115.89 157.7C115.89 157.61 117.41 157.7 119.89 157.76C126.248 157.82 132.573 156.847 138.62 154.88C140.9 154.13 142.31 153.56 142.34 153.64Z" fill="#FAFAFA"/>
<path d="M142.71 167.19C142.71 167.19 142.57 167.29 142.28 167.44L141 168C139.9 168.52 138.27 169.2 136.23 170C134.19 170.8 131.72 171.57 128.94 172.33C122.896 173.958 116.693 174.92 110.44 175.2C107.56 175.31 104.97 175.3 102.79 175.2C100.61 175.1 98.8599 174.94 97.6499 174.77L96.2599 174.58C96.0962 174.569 95.9348 174.535 95.7799 174.48C95.9422 174.455 96.1076 174.455 96.2699 174.48L97.6699 174.57C98.8799 174.67 100.67 174.77 102.8 174.83C104.93 174.89 107.56 174.83 110.42 174.73C113.28 174.63 116.42 174.27 119.69 173.73C122.96 173.19 126.04 172.54 128.82 171.84C131.6 171.14 134.06 170.35 136.1 169.62C138.14 168.89 139.8 168.28 140.92 167.82L142.22 167.31C142.379 167.253 142.543 167.213 142.71 167.19Z" fill="#FAFAFA"/>
<path d="M54.9999 379.78L49.5899 404.21L39.7199 422.3C39.5521 422.609 39.4494 422.949 39.4182 423.299C39.387 423.649 39.428 424.002 39.5386 424.336C39.6492 424.67 39.8271 424.977 40.0612 425.239C40.2954 425.501 40.5808 425.713 40.8999 425.86C41.2704 426.03 41.6762 426.109 42.0833 426.09C42.4905 426.071 42.8871 425.954 43.2399 425.75C47.8199 423.11 64.6299 413.28 64.9199 411.47C65.2699 409.38 72.3399 386.08 72.3399 386.08L54.9999 379.78Z" fill="#FFE16C"/>
<g opacity="0.6">
<path d="M40.8999 425.86L65.3299 409.86L65.0699 410.86C64.8561 411.753 64.3314 412.54 63.5899 413.08C61.5899 414.51 56.0199 418.35 43.3199 425.77C42.9553 425.984 42.5435 426.104 42.1212 426.12C41.699 426.135 41.2794 426.046 40.8999 425.86Z" fill="white"/>
</g>
<g opacity="0.6">
<path d="M62.26 400.77C61.9071 400.917 61.6211 401.19 61.4568 401.535C61.2925 401.88 61.2616 402.274 61.37 402.64C61.5035 402.997 61.7686 403.289 62.1108 403.457C62.453 403.624 62.8463 403.654 63.21 403.54C63.5877 403.384 63.8935 403.092 64.0674 402.722C64.2413 402.352 64.2707 401.931 64.15 401.54C63.9729 401.186 63.667 400.913 63.2951 400.778C62.9232 400.642 62.5135 400.654 62.15 400.81" fill="white"/>
</g>
<path d="M49.06 416.601C48.6565 415.701 48.0904 414.884 47.39 414.191C46.5833 413.629 45.6772 413.225 44.72 413.001C44.72 412.931 45.07 412.821 45.66 412.881C46.4277 412.98 47.1503 413.299 47.74 413.801C48.3342 414.283 48.7726 414.93 49 415.661C49.17 416.231 49.12 416.601 49.06 416.601Z" fill="#263238"/>
<path d="M46.53 419.43C46.39 419.51 45.8 418.53 44.63 417.86C43.8836 417.514 43.1153 417.216 42.33 416.97C42.7617 416.829 43.2208 416.792 43.6695 416.864C44.1182 416.935 44.5434 417.112 44.91 417.38C46.24 418.15 46.67 419.4 46.53 419.43Z" fill="#263238"/>
<path d="M53.2999 413.22C52.4495 412.276 51.5267 411.4 50.5399 410.6C49.4527 409.937 48.316 409.359 47.1399 408.87C48.4924 408.843 49.8107 409.296 50.8599 410.15C52.0167 410.846 52.8832 411.936 53.2999 413.22Z" fill="#263238"/>
<path d="M55.57 405.93C55.47 406.06 54.26 405.17 52.57 404.68C50.88 404.19 49.35 404.27 49.34 404.1C50.453 403.812 51.6232 403.83 52.7269 404.152C53.8306 404.474 54.8267 405.089 55.61 405.93H55.57Z" fill="#263238"/>
<path d="M57.3399 398.8C56.3644 398.197 55.3114 397.729 54.2099 397.41C53.0751 397.256 51.9247 397.256 50.7899 397.41C50.7899 397.35 51.0999 397.11 51.7399 396.92C52.5812 396.692 53.4642 396.663 54.3185 396.837C55.1728 397.01 55.9746 397.381 56.6599 397.92C57.1699 398.4 57.3799 398.76 57.3399 398.8Z" fill="#263238"/>
<path d="M54.5799 396.06C54.5807 395.743 54.6489 395.429 54.7799 395.14C55.0633 394.315 55.5125 393.556 56.0999 392.91C56.4843 392.399 57.025 392.027 57.6399 391.85C57.8493 391.816 58.0642 391.845 58.2567 391.934C58.4493 392.024 58.6106 392.168 58.7199 392.35C58.9037 392.723 58.9429 393.15 58.8299 393.55C58.5735 394.352 58.0463 395.04 57.3385 395.496C56.6306 395.952 55.7863 396.148 54.9499 396.05C54.1252 395.933 53.3537 395.574 52.7327 395.019C52.1116 394.463 51.6688 393.737 51.4599 392.93C51.4119 392.725 51.4076 392.513 51.4472 392.306C51.4869 392.099 51.5696 391.903 51.6899 391.73C51.8281 391.569 52.0141 391.456 52.2208 391.407C52.4276 391.359 52.6444 391.377 52.8399 391.46C53.4052 391.742 53.8876 392.166 54.2399 392.69C54.7699 393.384 55.1728 394.166 55.4299 395C55.5518 395.298 55.6097 395.619 55.5999 395.94C55.1968 394.862 54.6339 393.851 53.9299 392.94C53.6022 392.513 53.177 392.17 52.6899 391.94C52.5828 391.894 52.4635 391.883 52.35 391.91C52.2364 391.937 52.1346 392.001 52.0599 392.09C51.9901 392.208 51.9451 392.339 51.9279 392.475C51.9107 392.611 51.9216 392.749 51.9599 392.88C52.1685 393.559 52.5645 394.165 53.1024 394.628C53.6402 395.092 54.2979 395.394 54.9999 395.5C55.7073 395.582 56.4215 395.422 57.0263 395.047C57.631 394.671 58.0906 394.101 58.3299 393.43C58.4268 393.159 58.4268 392.862 58.3299 392.59C58.2733 392.488 58.1858 392.406 58.08 392.355C57.9741 392.305 57.8552 392.289 57.7399 392.31C57.2188 392.453 56.7544 392.754 56.4099 393.17C55.6428 394.025 55.0243 395.002 54.5799 396.06Z" fill="#263238"/>
<g opacity="0.3">
<path d="M54.3399 382.43L53.1699 388.03L70.8599 390.97L72.3399 386.08L54.9699 379.78L54.3399 382.43Z" fill="black"/>
</g>
<path d="M134 388.82L132.54 408.34C132.54 408.34 151.9 416.34 151.98 420.02L113.98 418.55L114.98 388.03L134 388.82Z" fill="#FFE16C"/>
<g opacity="0.6">
<path d="M120.89 406.24C120.521 406.339 120.201 406.57 119.991 406.889C119.781 407.208 119.695 407.592 119.75 407.97C119.834 408.342 120.057 408.668 120.372 408.882C120.688 409.095 121.073 409.181 121.45 409.12C121.842 409.016 122.182 408.771 122.404 408.431C122.625 408.091 122.713 407.681 122.65 407.28C122.524 406.901 122.255 406.584 121.901 406.398C121.547 406.212 121.134 406.17 120.75 406.28" fill="white"/>
</g>
<g opacity="0.6">
<path d="M114 418.551L114.22 415.471L150.57 418.001C150.57 418.001 152.24 418.801 152 420.001L114 418.551Z" fill="white"/>
</g>
<path d="M133.18 408.171C133.18 408.361 132.24 408.411 131.31 408.971C130.38 409.531 129.86 410.291 129.69 410.211C129.52 410.131 129.84 409.071 130.98 408.411C132.12 407.751 133.23 408.001 133.18 408.171Z" fill="#263238"/>
<path d="M137.1 410.001C137.1 410.191 136.32 410.471 135.66 411.231C135 411.991 134.79 412.811 134.6 412.801C134.41 412.791 134.34 411.731 135.18 410.801C136.02 409.871 137.1 409.801 137.1 410.001Z" fill="#263238"/>
<path d="M139.18 414.83C139.01 414.83 138.79 413.92 139.3 412.93C139.81 411.94 140.7 411.56 140.77 411.72C140.84 411.88 140.29 412.4 139.88 413.22C139.47 414.04 139.36 414.82 139.18 414.83Z" fill="#263238"/>
<path d="M133 403.691C132.92 403.851 132.08 403.561 131 403.591C129.92 403.621 129.12 403.921 129 403.761C128.88 403.601 129.72 402.971 131 402.951C132.28 402.931 133.12 403.551 133 403.691Z" fill="#263238"/>
<g opacity="0.3">
<path d="M133.73 392.69L133.47 396.17L114.82 395.27L114.95 391.25L133.73 392.69Z" fill="black"/>
</g>
<path d="M133.25 399.74C132.622 399.892 131.963 399.864 131.35 399.66C130.657 399.516 129.985 399.284 129.35 398.97C128.98 398.788 128.622 398.58 128.28 398.35C128.071 398.222 127.883 398.063 127.72 397.88C127.61 397.737 127.55 397.561 127.55 397.38C127.55 397.199 127.61 397.023 127.72 396.88C127.817 396.753 127.943 396.652 128.088 396.584C128.232 396.516 128.391 396.484 128.55 396.49C128.791 396.5 129.029 396.54 129.26 396.61C129.66 396.727 130.049 396.881 130.42 397.07C131.051 397.378 131.629 397.787 132.13 398.28C132.98 399.13 133.25 399.84 133.19 399.87C133.13 399.9 132.7 399.33 131.83 398.62C131.319 398.221 130.762 397.885 130.17 397.62C129.817 397.474 129.457 397.347 129.09 397.24C128.69 397.12 128.35 397.11 128.24 397.24C128.13 397.37 128.24 397.34 128.24 397.46C128.36 397.592 128.498 397.707 128.65 397.8C128.971 398.023 129.305 398.227 129.65 398.41C130.227 398.728 130.833 398.989 131.46 399.19C132.069 399.331 132.667 399.514 133.25 399.74Z" fill="#263238"/>
<path d="M133 400.001C132.668 399.44 132.517 398.79 132.57 398.141C132.574 397.437 132.689 396.738 132.91 396.071C133.053 395.679 133.231 395.301 133.44 394.941C133.552 394.693 133.726 394.479 133.945 394.318C134.164 394.157 134.42 394.054 134.69 394.021C134.861 394.032 135.025 394.091 135.163 394.192C135.301 394.293 135.408 394.431 135.47 394.591C135.557 394.815 135.611 395.051 135.63 395.291C135.696 395.715 135.696 396.146 135.63 396.571C135.496 397.277 135.191 397.94 134.74 398.501C133.96 399.501 133.18 399.651 133.16 399.591C133.14 399.531 133.76 399.161 134.37 398.231C134.72 397.7 134.949 397.099 135.04 396.471C135.091 396.106 135.091 395.735 135.04 395.371C134.99 394.971 134.85 394.631 134.7 394.671C134.55 394.711 134.18 394.951 134.01 395.271C133.815 395.59 133.644 395.925 133.5 396.271C133.268 396.874 133.12 397.507 133.06 398.151C132.93 399.271 133.1 400.001 133 400.001Z" fill="#263238"/>
<path d="M94.72 178.3C94.72 178.3 88.72 178.57 84.72 199.09C80.72 219.61 50.23 385.88 50.23 385.88L72.34 386.08L114 228L111.23 391L133.69 392.72C133.69 392.72 150.54 212.43 150.69 201.94C150.89 188.86 143.38 175.63 143.38 175.63L94.72 178.3Z" fill="#263238"/>
<path d="M125.11 176.55C125.25 176.55 122.95 188.3 119.98 202.73C117.01 217.16 114.49 228.84 114.35 228.81C114.21 228.78 116.5 217.06 119.47 202.63C122.44 188.2 125 176.52 125.11 176.55Z" fill="#455A64"/>
<path d="M128.55 179.48C128.55 179.42 129.15 179.24 129.84 179.85C130.036 180.028 130.191 180.246 130.295 180.489C130.398 180.732 130.448 180.995 130.44 181.26C130.415 181.594 130.295 181.915 130.095 182.184C129.895 182.453 129.623 182.66 129.31 182.78C129.005 182.918 128.667 182.969 128.334 182.924C128.002 182.88 127.688 182.743 127.43 182.53C127.237 182.349 127.084 182.128 126.982 181.883C126.881 181.639 126.832 181.375 126.84 181.11C126.84 180.19 127.46 179.87 127.47 179.93C127.301 180.297 127.213 180.696 127.21 181.1C127.223 181.303 127.277 181.501 127.368 181.683C127.459 181.865 127.586 182.027 127.74 182.16C127.937 182.296 128.166 182.38 128.404 182.405C128.642 182.43 128.883 182.394 129.104 182.301C129.325 182.209 129.519 182.062 129.669 181.875C129.818 181.688 129.919 181.466 129.96 181.23C129.975 181.027 129.949 180.824 129.883 180.631C129.818 180.439 129.715 180.262 129.58 180.11C129.09 179.54 128.54 179.56 128.55 179.48Z" fill="#455A64"/>
<path d="M127.6 187.6C127.6 187.54 128.22 187.6 128.6 188.43C128.697 188.667 128.74 188.922 128.728 189.178C128.716 189.433 128.649 189.683 128.53 189.91C128.358 190.18 128.116 190.397 127.829 190.54C127.543 190.682 127.223 190.743 126.905 190.718C126.586 190.692 126.28 190.58 126.021 190.394C125.761 190.207 125.557 189.954 125.43 189.66C125.35 189.419 125.324 189.163 125.353 188.911C125.383 188.659 125.467 188.416 125.6 188.2C126.07 187.45 126.71 187.47 126.69 187.53C126.67 187.59 126.21 187.73 125.92 188.37C125.773 188.729 125.773 189.131 125.92 189.49C126.024 189.689 126.177 189.857 126.364 189.981C126.552 190.104 126.767 190.179 126.99 190.197C127.214 190.214 127.438 190.176 127.643 190.084C127.847 189.992 128.025 189.849 128.16 189.67C128.348 189.328 128.395 188.926 128.29 188.55C128 187.87 127.55 187.67 127.6 187.6Z" fill="#455A64"/>
<path d="M106.41 179.68C106.369 180.024 106.281 180.36 106.15 180.68C105.838 181.596 105.446 182.482 104.98 183.33C103.454 186.159 101.251 188.565 98.5664 190.333C95.8822 192.101 92.8014 193.175 89.6 193.46C88.6385 193.544 87.6715 193.544 86.71 193.46C86.3712 193.449 86.0352 193.396 85.71 193.3C85.71 193.2 87.22 193.37 89.61 193.07C92.7249 192.692 95.7097 191.597 98.3297 189.87C100.95 188.144 103.134 185.833 104.71 183.12C105.88 181.1 106.32 179.65 106.41 179.68Z" fill="#455A64"/>
<path d="M149.43 194.27C149.43 194.27 149.17 194.15 148.76 193.87C148.187 193.458 147.652 192.996 147.16 192.49C145.515 190.825 144.232 188.839 143.391 186.655C142.549 184.472 142.168 182.138 142.27 179.8C142.293 179.096 142.383 178.396 142.54 177.71C142.65 177.22 142.72 176.96 142.76 176.97C142.8 176.98 142.64 178.06 142.64 179.81C142.642 184.404 144.349 188.833 147.43 192.24C148.6 193.53 149.48 194.19 149.43 194.27Z" fill="#455A64"/>
<path d="M227 194.85C227.33 194.05 227.24 194.37 221.94 190.85C221.94 190.85 229.54 195.85 228.75 193.47C228.066 192.569 227.231 191.794 226.28 191.18C228.28 192.36 229.44 192.49 229.79 192.01C230.39 191.18 226.04 188.01 223.97 186.58C225.862 187.934 227.847 189.154 229.91 190.23C231.14 190.61 230.55 189.17 229.72 188.12C228.89 187.07 222.45 180.87 220.72 179.02C220.555 178.88 220.423 178.705 220.332 178.508C220.242 178.311 220.195 178.097 220.195 177.88C220.195 177.664 220.242 177.45 220.332 177.253C220.423 177.056 220.555 176.881 220.72 176.74C223.82 174.74 225.18 171.55 225.14 170.5C225.106 170.264 224.997 170.045 224.83 169.874C224.663 169.703 224.446 169.589 224.211 169.549C223.975 169.509 223.733 169.545 223.519 169.651C223.305 169.757 223.13 169.929 223.02 170.14C222.237 171.113 221.326 171.974 220.31 172.7C219.522 173.315 218.637 173.791 217.69 174.11C216.59 174.47 211.18 174.17 210.02 173.58L206.33 186.09C206.33 186.09 219.72 192.35 222.26 193.57C225.38 195.05 226.77 195.46 227 194.85Z" fill="#FFBE9D"/>
<path d="M219.53 189C219.42 189.15 221.16 190.42 223.41 191.85C225.66 193.28 227.55 194.31 227.64 194.16C227.73 194.01 225.99 192.73 223.75 191.31C221.51 189.89 219.63 188.81 219.53 189Z" fill="#EB996E"/>
<path d="M220.79 186.55C220.69 186.7 222.47 188.16 224.79 189.82C227.11 191.48 229.03 192.71 229.13 192.57C229.23 192.43 227.46 190.96 225.13 189.3C222.8 187.64 220.9 186.41 220.79 186.55Z" fill="#EB996E"/>
<path d="M222.12 184.07C222.02 184.21 223.68 185.63 225.83 187.23C227.98 188.83 229.83 190.01 229.91 189.87C229.99 189.73 228.36 188.31 226.21 186.71C224.06 185.11 222.23 183.93 222.12 184.07Z" fill="#EB996E"/>
<path d="M85.93 138.761L95.75 139.301C96.4456 142.042 97.3757 144.719 98.53 147.301C106.44 133.581 112.53 115.191 114.09 107.801C113.87 107.074 113.6 106.254 113.28 105.341C113.04 103.96 113.081 102.545 113.4 101.181C113.67 99.5406 114.13 97.3206 114.26 96.3006C114.69 93.1806 115.19 92.6806 116.26 93.0406C117.74 93.5206 115.65 101.811 116.86 101.991C117.52 102.081 118.31 99.2406 118.55 96.9106C118.79 94.5806 119.83 87.4206 120.6 86.9106C121.73 86.2106 122.71 87.3206 122.43 89.6406C122.15 91.9606 121.78 98.9906 123.01 99.0806C124.24 99.1706 125.24 87.2906 125.24 87.2906C125.24 87.2906 125.05 84.7106 126.47 84.7706C129.04 84.8806 127.04 97.4106 126.82 98.6006C126.66 99.4206 128 99.6006 128.12 98.6806C128.24 97.7606 128.86 86.7906 131.47 86.8806C133.47 86.9506 129.92 97.2006 131.05 99.5806C132.18 101.961 132.96 91.5106 134.88 91.6506C135.59 91.7106 136.12 91.8506 134.81 97.7606C133.531 102.46 131.999 107.087 130.22 111.621C127.22 128.021 113.83 180.481 92.91 170.881C81.21 165.511 75.74 138.881 75.74 138.881L85.93 138.761Z" fill="#FFBE9D"/>
<path d="M130.24 111.71C130.257 111.586 130.291 111.465 130.34 111.35C130.43 111.09 130.54 110.75 130.69 110.35C131.02 109.4 131.47 108.08 132.06 106.35C132.65 104.62 133.36 102.52 134.06 100.04C134.42 98.8102 134.72 97.4702 134.99 96.0402C135.13 95.3202 135.26 94.5803 135.35 93.8203C135.375 93.444 135.375 93.0665 135.35 92.6903C135.35 92.3003 135.26 91.9803 134.95 91.9703C134.64 91.9603 134.42 92.1502 134.2 92.4802C134.001 92.8334 133.837 93.2051 133.71 93.5902C133.43 94.3802 133.21 95.2203 132.99 96.0703C132.77 96.9203 132.57 97.8103 132.31 98.7103C132.197 99.2033 131.993 99.6711 131.71 100.09C131.639 100.172 131.545 100.231 131.44 100.26C131.374 100.275 131.305 100.274 131.24 100.259C131.174 100.243 131.112 100.213 131.06 100.17C130.945 100.065 130.85 99.9395 130.78 99.8003C130.674 99.5547 130.604 99.2955 130.57 99.0302C130.524 97.0133 130.726 94.9983 131.17 93.0302C131.34 92.0302 131.52 91.0302 131.65 90.0302C131.71 89.5202 131.77 89.0303 131.78 88.4903C131.79 87.9503 131.71 87.3802 131.5 87.2902C131.29 87.2002 130.78 87.4802 130.5 87.9002C130.223 88.3439 130.005 88.8211 129.85 89.3203C129.509 90.3649 129.251 91.4349 129.08 92.5203C128.89 93.6203 128.74 94.7403 128.61 95.8803C128.56 96.4503 128.5 97.0203 128.45 97.6003L128.37 98.4703C128.381 98.6561 128.35 98.8419 128.281 99.0147C128.212 99.1876 128.106 99.3431 127.97 99.4703C127.799 99.5954 127.592 99.6628 127.38 99.6628C127.168 99.6628 126.961 99.5954 126.79 99.4703C126.693 99.4062 126.611 99.3222 126.549 99.224C126.487 99.1257 126.446 99.0153 126.43 98.9002C126.415 98.7941 126.415 98.6864 126.43 98.5803V98.3702L126.7 96.6202C126.87 95.4402 127.01 94.2602 127.12 93.0602C127.23 91.8602 127.32 90.6503 127.34 89.4403C127.398 88.2423 127.277 87.0423 126.98 85.8802C126.911 85.5854 126.732 85.3279 126.48 85.1603C126.359 85.1215 126.23 85.1219 126.109 85.1614C125.989 85.2009 125.884 85.2775 125.81 85.3802C125.486 85.9722 125.353 86.6499 125.43 87.3203C125.21 89.6703 124.96 91.9802 124.62 94.2502C124.45 95.3802 124.26 96.5102 123.98 97.6202C123.9 97.8902 123.82 98.1702 123.72 98.4502C123.625 98.7896 123.425 99.0905 123.15 99.3102C123.028 99.3701 122.89 99.3868 122.757 99.3578C122.624 99.3287 122.506 99.2556 122.42 99.1502C122.298 99.022 122.206 98.8683 122.15 98.7002C122.042 98.4229 121.965 98.1345 121.92 97.8402C121.686 95.6641 121.665 93.4703 121.86 91.2902C122.008 90.274 122.065 89.2466 122.03 88.2203C121.998 87.7822 121.797 87.3736 121.47 87.0803C121.393 87.0325 121.307 87.0008 121.218 86.9871C121.129 86.9733 121.037 86.9778 120.95 87.0002C120.856 87.0318 120.766 87.072 120.68 87.1202C120.59 87.2002 120.6 87.1202 120.54 87.2902C120.178 88.1896 119.913 89.1248 119.75 90.0803C119.55 91.0803 119.38 91.9902 119.23 92.9302C119.08 93.8702 118.94 94.7903 118.82 95.7103C118.7 96.6303 118.64 97.5302 118.46 98.4302C118.304 99.3095 118.07 100.173 117.76 101.01C117.677 101.223 117.581 101.43 117.47 101.63C117.33 101.82 117.25 102.06 116.87 102.18C116.773 102.198 116.672 102.187 116.582 102.148C116.491 102.108 116.414 102.043 116.36 101.96C116.29 101.845 116.236 101.72 116.2 101.59C116.155 101.373 116.128 101.152 116.12 100.93C116.12 99.2202 116.35 97.6602 116.44 96.1502C116.505 95.4284 116.505 94.7021 116.44 93.9802C116.44 93.6602 116.29 93.2803 116.11 93.2103C115.984 93.1484 115.845 93.1163 115.705 93.1163C115.564 93.1163 115.426 93.1484 115.3 93.2103C114.88 93.661 114.62 94.2373 114.56 94.8503C114.41 95.4603 114.35 96.0802 114.24 96.6702C113.82 99.0302 113.38 101.07 113.17 102.73C113.071 103.46 113.071 104.2 113.17 104.93C113.31 105.53 113.52 106.07 113.63 106.49C113.74 106.91 113.85 107.21 113.92 107.49C113.957 107.597 113.984 107.708 114 107.82C113.94 107.723 113.893 107.619 113.86 107.51L113.52 106.51C113.38 106.08 113.17 105.6 113 104.94C112.893 104.191 112.893 103.43 113 102.68C113.19 100.99 113.59 98.9703 114 96.6003C114.11 96.0103 114.17 95.3902 114.3 94.7502C114.372 94.4122 114.462 94.0784 114.57 93.7502C114.67 93.3865 114.888 93.0664 115.19 92.8402C115.372 92.7439 115.574 92.6936 115.78 92.6936C115.986 92.6936 116.188 92.7439 116.37 92.8402C116.565 92.9635 116.726 93.1349 116.836 93.338C116.947 93.5411 117.003 93.7691 117 94.0002C117.07 94.752 117.07 95.5085 117 96.2602C116.93 97.7802 116.69 99.3703 116.73 100.99C116.737 101.182 116.761 101.373 116.8 101.56C116.8 101.75 116.94 101.83 116.92 101.79C116.9 101.75 117.11 101.63 117.19 101.47C117.288 101.293 117.375 101.109 117.45 100.92C117.746 100.11 117.964 99.2725 118.1 98.4202C118.27 97.5502 118.33 96.6503 118.45 95.7203C118.57 94.7902 118.69 93.8702 118.84 92.9202C118.99 91.9702 119.16 91.0203 119.35 90.0503C119.512 89.0372 119.794 88.047 120.19 87.1003C120.27 86.9415 120.391 86.8068 120.54 86.7102C120.673 86.6374 120.814 86.5803 120.96 86.5403C121.128 86.4923 121.304 86.4809 121.476 86.5068C121.649 86.5326 121.814 86.5952 121.96 86.6903C122.192 86.8745 122.384 87.1045 122.523 87.366C122.662 87.6275 122.746 87.9149 122.77 88.2103C122.845 88.7543 122.845 89.3062 122.77 89.8503C122.72 90.3603 122.67 90.8503 122.64 91.4103C122.445 93.5402 122.465 95.6843 122.7 97.8102C122.743 98.0627 122.81 98.3106 122.9 98.5503C122.93 98.647 122.981 98.7358 123.05 98.8102C123.05 98.8102 123.05 98.8102 123.1 98.8102C123.1 99.0402 123.1 98.8102 123.1 98.9002C123.1 98.9902 123.1 98.9003 123.1 98.8203C123.225 98.6532 123.322 98.4676 123.39 98.2703C123.483 98.0236 123.563 97.7636 123.63 97.4903C123.9 96.4303 124.08 95.3103 124.25 94.1903C124.59 91.9403 124.84 89.6302 125.05 87.2902V87.3402C124.961 86.516 125.14 85.685 125.56 84.9703C125.72 84.766 125.94 84.6167 126.189 84.5433C126.439 84.4698 126.704 84.4757 126.95 84.5602C127.16 84.6766 127.344 84.834 127.492 85.0229C127.639 85.2119 127.748 85.4286 127.81 85.6603C128.13 86.8899 128.262 88.1611 128.2 89.4302C128.2 90.6702 128.09 91.8903 127.98 93.1003C127.87 94.3103 127.72 95.5002 127.55 96.6802C127.46 97.2802 127.37 97.8602 127.28 98.4502C127.2 98.8202 127.22 98.8303 127.28 98.9403C127.349 98.9871 127.431 99.0122 127.515 99.0122C127.599 99.0122 127.68 98.9871 127.75 98.9403C127.87 98.8503 127.89 98.6803 127.92 98.3503L127.99 97.4802L128.17 95.7502C128.29 94.6102 128.45 93.4703 128.64 92.3602C128.825 91.2453 129.092 90.1456 129.44 89.0703C129.621 88.5267 129.866 88.0064 130.17 87.5203C130.335 87.2582 130.553 87.0334 130.81 86.8602C130.952 86.7571 131.118 86.6896 131.292 86.6635C131.466 86.6374 131.643 86.6535 131.81 86.7102C131.963 86.8047 132.092 86.9333 132.188 87.0859C132.283 87.2386 132.342 87.4111 132.36 87.5902C132.401 87.8716 132.418 88.156 132.41 88.4403C132.41 88.9903 132.34 89.5203 132.28 90.0503C132.14 91.0503 131.95 92.1102 131.77 93.1202C131.34 95.0198 131.132 96.9628 131.15 98.9103C131.178 99.1194 131.232 99.3242 131.31 99.5203C131.346 99.5912 131.39 99.6583 131.44 99.7203C131.44 99.7203 131.44 99.7202 131.44 99.6502C131.664 99.2888 131.83 98.8938 131.93 98.4802C132.19 97.6102 132.4 96.7302 132.63 95.8702C132.836 95.0146 133.086 94.1701 133.38 93.3402C133.518 92.9292 133.699 92.5337 133.92 92.1603C134.039 91.9567 134.195 91.777 134.38 91.6303C134.48 91.5431 134.6 91.4813 134.73 91.4502C134.859 91.43 134.991 91.43 135.12 91.4502C135.256 91.4639 135.387 91.5137 135.497 91.5946C135.608 91.6754 135.695 91.7844 135.75 91.9103C135.833 92.1204 135.877 92.3441 135.88 92.5703C135.888 92.9748 135.864 93.3793 135.81 93.7802C135.72 94.5602 135.57 95.3002 135.43 96.0302C135.14 97.4602 134.82 98.8202 134.43 100.03C133.68 102.51 132.93 104.61 132.32 106.32C131.71 108.03 131.19 109.32 130.84 110.24C130.67 110.66 130.53 110.99 130.43 111.24C130.385 111.404 130.321 111.562 130.24 111.71Z" fill="#EB996E"/>
<path d="M75.6499 139.89C77.5499 146.6 81.2699 156.95 85.2599 167.89C85.3857 168.242 85.6132 168.55 85.9138 168.773C86.2143 168.996 86.5742 169.124 86.948 169.143C87.3218 169.161 87.6926 169.068 88.0134 168.875C88.3341 168.682 88.5905 168.398 88.7499 168.06L98.5299 147.37C98.5299 147.37 96.1699 130.37 96.3699 130.98C96.5699 131.59 76.1899 133.18 76.1899 133.18L75.6499 139.89Z" fill="#FFE16C"/>
<path d="M97.69 136.56C97.69 136.64 96.47 137 94.54 137.74C92.0177 138.697 89.5876 139.882 87.28 141.28C84.9754 142.684 82.8001 144.291 80.78 146.08C79.23 147.45 78.34 148.39 78.28 148.33C78.22 148.27 78.45 148.05 78.83 147.6C79.3657 146.975 79.9331 146.377 80.53 145.81C82.5011 143.912 84.6741 142.235 87.01 140.81C89.3466 139.402 91.8274 138.249 94.41 137.37C95.1906 137.101 95.9851 136.874 96.79 136.69C97.0811 136.599 97.385 136.555 97.69 136.56Z" fill="#FAFAFA"/>
<path d="M101.57 141.72C100.934 141.08 100.383 140.361 99.9299 139.58C98.7621 137.76 97.7581 135.839 96.9299 133.84C96.1011 131.836 95.4552 129.761 94.9999 127.64C94.7669 126.773 94.6492 125.879 94.6499 124.98C94.9481 125.819 95.1854 126.678 95.3599 127.55C95.8956 129.621 96.5637 131.655 97.3599 133.64C98.1918 135.615 99.147 137.536 100.22 139.39C100.719 140.137 101.17 140.916 101.57 141.72Z" fill="#263238"/>
<path d="M108.09 50.1002C106.393 52.8964 105.342 56.0357 105.011 59.2896C104.681 62.5435 105.08 65.8301 106.18 68.9102C107.18 71.6602 108.78 74.3702 108.49 77.2902C108.2 80.2102 105.92 83.1002 106.72 85.9802C107.2 87.6902 108.66 88.9802 109.23 90.6402C109.88 92.6402 109.23 94.7502 108.88 96.8002C108.08 102.04 109.76 107.31 110.17 112.59C110.58 117.87 109.17 124.06 104.45 126.36C103.02 127.06 101.15 127.26 99.9599 126.19C98.4399 124.84 98.8599 122.4 99.2799 120.4C103.42 100.4 90.6299 80.8802 93.5499 60.6402C94.0199 57.4002 95.8299 51.9002 98.1599 49.6402C100.49 47.3802 106.96 47.6402 109.16 50.0402" fill="#263238"/>
<path d="M88.3899 108.12C88.3899 108.12 88.9999 107.4 89.8999 105.98C91.1629 103.975 92.0475 101.755 92.5099 99.4303C92.8116 97.8291 92.9157 96.1969 92.8199 94.5704C92.645 92.679 92.5749 90.7794 92.6099 88.8804C92.6695 87.8403 92.8611 86.8121 93.1799 85.8204C93.5454 84.7987 94.0074 83.8142 94.5599 82.8803C95.6799 80.9903 97.0899 79.2304 98.3899 77.3503C99.7248 75.5736 100.653 73.5253 101.11 71.3503C101.332 69.3017 101.213 67.2305 100.76 65.2204C100.382 63.3521 100.234 61.4446 100.32 59.5404C100.439 57.877 100.775 56.2364 101.32 54.6604C102.084 52.3734 103.286 50.2572 104.86 48.4304C105.278 47.9337 105.732 47.4691 106.22 47.0404C106.374 46.8757 106.549 46.7312 106.74 46.6104C106.74 46.6104 106.07 47.2604 105.01 48.6104C102.485 51.7442 101.009 55.592 100.79 59.6104C100.723 61.4834 100.888 63.3576 101.28 65.1904C101.757 67.2545 101.885 69.3839 101.66 71.4903C101.186 73.726 100.23 75.8315 98.8599 77.6604C97.5499 79.5704 96.1399 81.3204 95.0399 83.1604C94.4988 84.0595 94.0499 85.011 93.6999 86.0004C93.3835 86.9516 93.1919 87.9398 93.1299 88.9404C93.0856 90.8185 93.1391 92.6977 93.2899 94.5704C93.3693 96.2297 93.2417 97.8925 92.9099 99.5204C92.4088 101.877 91.4581 104.114 90.1099 106.11C89.7449 106.65 89.344 107.164 88.9099 107.65C88.7543 107.826 88.5799 107.983 88.3899 108.12Z" fill="#455A64"/>
<path d="M78.9099 109.611C78.9905 109.377 79.0943 109.153 79.2199 108.941C79.4699 108.471 79.7899 107.851 80.2199 107.071C81.0599 105.441 82.3099 103.071 83.5399 100.071C85.0445 96.5667 85.8789 92.8119 85.9999 89.0005C86.0005 87.9024 85.9169 86.8059 85.7499 85.7206C85.5799 84.6006 85.3199 83.4706 85.1499 82.2906C84.9419 81.07 84.9691 79.8209 85.2299 78.6105C85.5681 77.3679 86.2635 76.2518 87.2299 75.4006C89.1099 73.6906 91.3799 72.5705 92.5599 70.5605C93.5822 68.5675 94.1847 66.3858 94.3299 64.1506C94.5416 62.1014 95.005 60.0862 95.7099 58.1506C97.295 53.995 100.119 50.4272 103.8 47.9305C104.387 47.5356 104.998 47.1782 105.63 46.8605C105.843 46.7328 106.072 46.632 106.31 46.5605C106.31 46.5605 105.41 47.0405 103.92 48.1005C101.82 49.5992 100.002 51.4579 98.5499 53.5905C97.543 55.0525 96.7233 56.6348 96.1099 58.3006C95.4361 60.2408 94.9995 62.2554 94.8099 64.3006C94.5099 66.4306 94.2699 68.8105 92.9899 70.9205C91.7099 73.0305 89.3699 74.2305 87.5799 75.9205C86.6677 76.7121 86.0101 77.756 85.6899 78.9205C85.4468 80.0657 85.4231 81.2466 85.6199 82.4006C85.7799 83.5506 86.0299 84.6905 86.1999 85.8205C86.3729 86.932 86.4532 88.0558 86.4399 89.1805C86.304 93.0617 85.4248 96.8807 83.8499 100.431C82.827 102.83 81.665 105.167 80.3699 107.431L79.3099 109.001C79.1985 109.217 79.0644 109.422 78.9099 109.611Z" fill="#455A64"/>
<path d="M409.77 392.18C409.816 392.035 409.877 391.894 409.95 391.76C410.09 391.46 410.28 391.06 410.51 390.55C411.206 388.988 411.764 387.369 412.18 385.71C413.28 381.41 413.67 374.84 412.04 367.04C411.155 362.787 409.996 358.595 408.57 354.49C407.11 350.04 405.4 345.32 404.01 340.21C402.441 334.881 401.682 329.346 401.76 323.79C401.97 317.98 403.69 312.19 405.58 306.41C407.47 300.63 409.42 295 410 289.3C410.645 283.834 409.546 278.305 406.86 273.5C404.36 268.89 401.21 264.94 398.86 260.86C396.66 257.069 395.039 252.971 394.05 248.7C392.631 242.518 392.525 236.106 393.74 229.88C394.182 227.602 394.853 225.375 395.74 223.23C395.713 223.38 395.673 223.528 395.62 223.67L395.22 224.94C394.88 226.06 394.43 227.74 394 229.94C392.882 236.138 393.049 242.5 394.49 248.63C395.493 252.849 397.121 256.893 399.32 260.63C401.67 264.63 404.83 268.63 407.39 273.26C410.141 278.162 411.272 283.808 410.62 289.39C410.03 295.17 408.07 300.86 406.18 306.63C404.29 312.4 402.59 318.13 402.38 323.84C402.291 329.34 403.032 334.822 404.58 340.1C405.95 345.18 407.63 349.9 409.08 354.37C410.492 358.497 411.628 362.713 412.48 366.99C414.07 374.85 413.62 381.49 412.48 385.8C412.034 387.462 411.435 389.079 410.69 390.63L410.07 391.82C409.984 391.951 409.883 392.072 409.77 392.18Z" fill="#263238"/>
<path d="M402.06 264.891C402.06 264.891 397.28 249.581 405.86 240.621C405.927 240.549 406.012 240.496 406.106 240.47C406.201 240.443 406.301 240.444 406.395 240.471C406.489 240.498 406.574 240.55 406.641 240.623C406.707 240.695 406.752 240.784 406.77 240.881C407.23 243.411 407.8 251.111 402.06 264.891Z" fill="#FFE16C"/>
<path d="M404.93 245.721C404.915 246.669 404.808 247.613 404.61 248.541C404.29 250.491 403.92 252.771 403.52 255.291C403.12 257.811 402.75 260.101 402.44 262.041C402.353 262.986 402.185 263.923 401.94 264.841C401.846 263.895 401.866 262.942 402 262.001C402.16 260.251 402.47 257.851 402.9 255.211C403.33 252.571 403.8 250.211 404.17 248.481C404.316 247.534 404.571 246.608 404.93 245.721Z" fill="#263238"/>
<path d="M407.68 301C407.68 301 410.61 285.23 422.39 281.33C422.483 281.298 422.583 281.292 422.679 281.313C422.775 281.334 422.863 281.382 422.934 281.45C423.004 281.519 423.054 281.606 423.078 281.701C423.102 281.796 423.1 281.897 423.07 281.99C422.29 284.42 419.2 291.49 407.68 301Z" fill="#FFE16C"/>
<path d="M419.18 285.381C418.723 286.214 418.187 287.001 417.58 287.731L413.45 293.181L409.35 298.651C408.834 299.444 408.248 300.191 407.6 300.881C407.965 300.001 408.435 299.168 409 298.401C410 296.931 411.36 294.951 413 292.821C414.64 290.691 416.13 288.821 417.26 287.461C417.822 286.699 418.465 286.002 419.18 285.381Z" fill="#263238"/>
<path d="M404.5 340.531C404.5 340.531 402.72 324.591 412.86 317.441C412.938 317.379 413.032 317.342 413.131 317.332C413.23 317.323 413.329 317.342 413.417 317.387C413.506 317.432 413.579 317.502 413.629 317.588C413.679 317.673 413.704 317.771 413.7 317.87C413.67 320.44 412.76 328.101 404.5 340.531Z" fill="#FFE16C"/>
<path d="M411 322.261C410.814 323.192 410.529 324.1 410.15 324.971L407.79 331.391C406.91 333.791 406.12 335.961 405.45 337.811C405.193 338.721 404.859 339.608 404.45 340.461C404.542 339.512 404.751 338.579 405.07 337.681C405.56 336.001 406.32 333.681 407.25 331.181C408.18 328.681 409.09 326.431 409.78 324.821C410.098 323.928 410.507 323.07 411 322.261Z" fill="#263238"/>
<path d="M413.37 380.311C413.37 380.311 412.17 364.311 422.55 357.531C422.631 357.475 422.726 357.443 422.825 357.438C422.923 357.433 423.021 357.456 423.107 357.504C423.194 357.552 423.265 357.623 423.313 357.709C423.361 357.795 423.384 357.892 423.38 357.991C423.26 360.561 422.08 368.191 413.37 380.311Z" fill="#FFE16C"/>
<path d="M420.49 362.29C420.266 363.214 419.948 364.112 419.54 364.97C418.8 366.79 417.92 368.97 416.95 371.3C415.98 373.63 415.13 375.8 414.39 377.63C414.094 378.533 413.716 379.406 413.26 380.24C413.393 379.294 413.638 378.368 413.99 377.48C414.54 375.82 415.38 373.54 416.4 371.07C417.42 368.6 418.4 366.38 419.15 364.8C419.506 363.918 419.955 363.077 420.49 362.29Z" fill="#263238"/>
<path d="M395.18 251.441C395.18 251.441 381 244.001 380.69 231.611C380.689 231.514 380.715 231.418 380.764 231.334C380.813 231.25 380.883 231.181 380.968 231.134C381.053 231.087 381.149 231.064 381.246 231.067C381.343 231.07 381.438 231.099 381.52 231.151C383.63 232.611 389.49 237.651 395.18 251.441Z" fill="#FFE16C"/>
<path d="M383.64 235.87C384.306 236.55 384.899 237.298 385.41 238.1C386.57 239.69 387.92 241.57 389.41 243.64L393.41 249.16C394.019 249.886 394.562 250.666 395.03 251.49C394.299 250.882 393.644 250.186 393.08 249.42C391.95 248.08 390.47 246.16 388.91 243.99C387.35 241.82 385.98 239.81 385.04 238.34C384.489 237.568 384.02 236.74 383.64 235.87Z" fill="#263238"/>
<path d="M410.45 284.311C410.45 284.311 395.81 277.761 394.78 265.391C394.772 265.293 394.79 265.196 394.834 265.108C394.878 265.021 394.944 264.948 395.027 264.896C395.11 264.844 395.205 264.816 395.303 264.815C395.4 264.814 395.496 264.84 395.58 264.891C397.77 266.221 403.92 270.881 410.45 284.311Z" fill="#FFE16C"/>
<path d="M398 269.471C398.705 270.106 399.342 270.813 399.9 271.581L404.24 276.871L408.59 282.141C409.242 282.83 409.831 283.577 410.35 284.371C409.583 283.804 408.885 283.15 408.27 282.421C407.07 281.141 405.47 279.321 403.78 277.251C402.09 275.181 400.61 273.251 399.57 271.841C398.961 271.111 398.434 270.316 398 269.471Z" fill="#263238"/>
<path d="M402 321C402 321 392 308.5 396.67 297C396.707 296.91 396.768 296.832 396.847 296.774C396.925 296.716 397.018 296.681 397.116 296.673C397.213 296.665 397.31 296.683 397.398 296.727C397.485 296.771 397.558 296.837 397.61 296.92C399 299.09 402.33 306.05 402 321Z" fill="#FFE16C"/>
<path d="M397.68 302.08C398.022 302.968 398.27 303.89 398.42 304.83C398.84 306.75 399.33 309.01 399.87 311.51C400.41 314.01 400.92 316.26 401.34 318.18C401.608 319.091 401.792 320.025 401.89 320.97C401.451 320.12 401.115 319.22 400.89 318.29C400.4 316.6 399.8 314.29 399.24 311.63C398.68 308.97 398.24 306.63 397.96 304.91C397.763 303.98 397.67 303.031 397.68 302.08Z" fill="#263238"/>
<path d="M412 364.111C412 364.111 397.47 357.321 396.65 344.941C396.64 344.842 396.659 344.743 396.703 344.654C396.747 344.565 396.815 344.49 396.899 344.438C396.983 344.386 397.081 344.359 397.18 344.359C397.279 344.36 397.376 344.388 397.46 344.441C399.61 345.811 405.68 350.581 412 364.111Z" fill="#FFE16C"/>
<path d="M399.77 349.061C400.457 349.716 401.08 350.436 401.63 351.211L405.88 356.561L410.14 361.911C410.781 362.61 411.356 363.367 411.86 364.171C411.115 363.587 410.444 362.915 409.86 362.171C408.67 360.871 407.11 359.021 405.45 356.921C403.79 354.821 402.35 352.871 401.33 351.441C400.719 350.711 400.196 349.912 399.77 349.061Z" fill="#263238"/>
<path d="M440.91 301.07C440.91 301.07 440.91 301.19 440.91 301.42C440.91 301.65 440.91 302.03 440.91 302.42C440.91 303.42 440.81 304.69 440.74 306.31C440.56 309.73 440.29 314.5 439.98 320.2C438.98 326 435.98 332.43 431.98 338.68C429.07 343.28 425.98 347.46 423.38 351.35C421.007 354.764 418.875 358.34 417 362.05C415.758 364.558 414.754 367.176 414 369.87C413.75 370.82 413.55 371.57 413.44 372.08C413.393 372.346 413.322 372.607 413.23 372.86C413.234 372.591 413.267 372.322 413.33 372.06C413.4 371.54 413.55 370.78 413.78 369.81C414.453 367.069 415.408 364.405 416.63 361.86C418.489 358.12 420.618 354.521 423 351.09C425.62 347.17 428.65 342.98 431.55 338.41C435.5 332.19 438.44 325.86 439.55 320.15C439.95 314.46 440.28 309.7 440.55 306.28C440.68 304.66 440.79 303.37 440.87 302.4C440.87 302 440.94 301.66 440.97 301.4C440.936 301.293 440.916 301.182 440.91 301.07Z" fill="#263238"/>
<path d="M432.26 337.531C432.26 337.531 438.41 322.731 430.68 313.021C430.62 312.943 430.54 312.883 430.448 312.849C430.356 312.814 430.256 312.805 430.159 312.824C430.063 312.843 429.974 312.888 429.901 312.954C429.829 313.021 429.777 313.106 429.75 313.201C429.06 315.681 427.79 323.291 432.26 337.531Z" fill="#FFE16C"/>
<path d="M431.14 318.19C431.405 319.103 431.57 320.042 431.63 320.99C431.85 322.73 432.09 325.14 432.28 327.81C432.47 330.48 432.56 332.9 432.56 334.66C432.62 335.61 432.563 336.564 432.39 337.5C432.217 336.567 432.134 335.62 432.14 334.67C432.01 332.67 431.85 330.4 431.68 327.85C431.51 325.3 431.35 322.99 431.21 321.03C431.094 320.088 431.07 319.137 431.14 318.19Z" fill="#263238"/>
<g opacity="0.3">
<path d="M432.26 337.531C432.26 337.531 438.41 322.731 430.68 313.021C430.62 312.943 430.54 312.883 430.448 312.849C430.356 312.814 430.256 312.805 430.159 312.824C430.063 312.843 429.974 312.888 429.901 312.954C429.829 313.021 429.777 313.106 429.75 313.201C429.06 315.681 427.79 323.291 432.26 337.531Z" fill="black"/>
</g>
<path d="M413.21 373.22C413.21 373.22 418.14 357.96 409.64 348.92C409.574 348.848 409.49 348.796 409.396 348.769C409.302 348.742 409.203 348.741 409.108 348.767C409.014 348.793 408.929 348.844 408.862 348.915C408.796 348.987 408.75 349.075 408.73 349.17C408.25 351.69 407.6 359.39 413.21 373.22Z" fill="#FFE16C"/>
<path d="M410.52 354C410.867 354.889 411.108 355.815 411.24 356.76C411.6 358.47 412.03 360.86 412.44 363.5C412.85 366.14 413.13 368.55 413.28 370.3C413.41 371.245 413.427 372.201 413.33 373.15C413.093 372.232 412.932 371.295 412.85 370.35C412.56 368.4 412.22 366.12 411.85 363.59C411.48 361.06 411.12 358.78 410.85 356.83C410.647 355.9 410.537 354.952 410.52 354Z" fill="#263238"/>
<g opacity="0.3">
<path d="M413.21 373.22C413.21 373.22 418.14 357.96 409.64 348.92C409.574 348.848 409.49 348.796 409.396 348.769C409.302 348.742 409.203 348.741 409.108 348.767C409.014 348.793 408.929 348.844 408.862 348.915C408.796 348.987 408.75 349.075 408.73 349.17C408.25 351.69 407.6 359.39 413.21 373.22Z" fill="black"/>
</g>
<path d="M440.1 319.44C440.1 319.44 453.23 310.24 451.91 297.9C451.9 297.803 451.863 297.711 451.804 297.634C451.744 297.556 451.665 297.497 451.574 297.461C451.483 297.426 451.384 297.417 451.288 297.434C451.192 297.452 451.103 297.495 451.03 297.56C449.12 299.28 444 305 440.1 319.44Z" fill="#FFE16C"/>
<g opacity="0.3">
<path d="M440.1 319.44C440.1 319.44 453.23 310.24 451.91 297.9C451.9 297.803 451.863 297.711 451.804 297.634C451.744 297.556 451.665 297.497 451.574 297.461C451.483 297.426 451.384 297.417 451.288 297.434C451.192 297.452 451.103 297.495 451.03 297.56C449.12 299.28 444 305 440.1 319.44Z" fill="black"/>
</g>
<path d="M449.53 302.511C449.269 303.427 448.904 304.309 448.44 305.141C447.69 306.721 446.6 308.881 445.33 311.241C444.06 313.601 442.84 315.691 441.9 317.171C441.438 318.002 440.877 318.774 440.23 319.471C440.581 318.591 441.017 317.747 441.53 316.951C442.47 315.221 443.58 313.201 444.8 310.951L448.06 304.951C448.469 304.091 448.962 303.274 449.53 302.511Z" fill="#263238"/>
<path d="M418.51 358.09C418.51 358.09 434.35 355.62 438.59 343.96C438.624 343.869 438.633 343.771 438.615 343.675C438.597 343.58 438.553 343.491 438.488 343.419C438.423 343.346 438.339 343.293 438.246 343.265C438.153 343.238 438.054 343.236 437.96 343.26C435.49 344 428.33 346.85 418.51 358.09Z" fill="#FFE16C"/>
<g opacity="0.3">
<path d="M418.51 358.09C418.51 358.09 434.35 355.62 438.59 343.96C438.624 343.869 438.633 343.771 438.615 343.675C438.597 343.58 438.553 343.491 438.488 343.419C438.423 343.346 438.339 343.293 438.246 343.265C438.153 343.238 438.054 343.236 437.96 343.26C435.49 344 428.33 346.85 418.51 358.09Z" fill="black"/>
</g>
<path d="M434.43 347.051C433.788 347.751 433.07 348.379 432.29 348.921C430.92 350.021 428.99 351.481 426.82 353.041C424.65 354.601 422.62 355.931 421.12 356.851C420.338 357.396 419.492 357.843 418.6 358.181C419.31 357.548 420.076 356.982 420.89 356.491L426.47 352.551L432.04 348.551C432.781 347.967 433.582 347.465 434.43 347.051Z" fill="#263238"/>
<path d="M403.39 387.25L398.77 418.35H427.57L423.84 387.25H403.39Z" fill="#455A64"/>
<path d="M425 396.88C425 397.05 419.8 397.18 413.39 397.18C406.98 397.18 401.77 397.05 401.77 396.88C405.636 396.584 409.514 396.484 413.39 396.58C417.263 396.484 421.138 396.584 425 396.88Z" fill="#263238"/>
<path d="M425.56 399.361C425.56 399.531 420.19 399.661 413.56 399.661C406.93 399.661 401.56 399.531 401.56 399.361C401.56 399.191 406.93 399.061 413.56 399.061C420.19 399.061 425.56 399.191 425.56 399.361Z" fill="#263238"/>
<path d="M313.57 85.5398C313.57 85.5398 313.3 85.5398 312.78 85.5398C312.021 85.4947 311.259 85.4947 310.5 85.5398C307.563 85.7117 304.677 86.3883 301.97 87.5398C297.678 89.3386 293.944 92.2484 291.15 95.9698C289.428 98.2934 288.146 100.913 287.37 103.7C285.62 110.337 286.565 117.397 290 123.34C290.936 124.985 292.079 126.504 293.4 127.86C294.733 129.296 296.286 130.511 298 131.46C299.759 132.45 301.752 132.951 303.77 132.91C305.851 132.885 307.846 132.078 309.36 130.65C310.092 129.883 310.665 128.98 311.048 127.992C311.431 127.003 311.615 125.949 311.59 124.89C311.575 122.689 310.876 120.546 309.59 118.76C307 115.11 302.8 112.66 298.33 111.34C293.695 110.038 288.8 109.969 284.13 111.14C281.746 111.76 279.449 112.674 277.29 113.86C275.111 115.09 273.131 116.644 271.42 118.47C271.01 118.94 270.54 119.37 270.17 119.89L269.04 121.41C268.353 122.481 267.738 123.597 267.2 124.75C266.13 127.091 265.4 129.573 265.03 132.12C264.304 137.209 264.996 142.399 267.03 147.12C268.974 151.733 272.36 155.592 276.68 158.12C278.775 159.317 281.113 160.024 283.52 160.19C285.88 160.322 288.227 159.759 290.27 158.57C292.298 157.449 293.9 155.692 294.83 153.57C295.707 151.478 295.768 149.134 295 147C294.21 144.941 292.917 143.112 291.24 141.68C289.613 140.274 287.738 139.185 285.71 138.47C281.756 137.223 277.525 137.15 273.53 138.26C269.792 139.273 266.359 141.185 263.53 143.83C260.953 146.298 258.991 149.336 257.8 152.7C255.717 158.536 255.813 164.929 258.07 170.7C259.83 175.008 262.664 178.795 266.3 181.7C268.591 183.537 271.142 185.023 273.87 186.11C274.81 186.46 275.54 186.72 276.04 186.86L276.78 187.1C276.78 187.1 276.52 187.05 276.02 186.91C275.281 186.712 274.554 186.475 273.84 186.2C271.076 185.161 268.492 183.697 266.18 181.86C262.482 178.957 259.593 175.152 257.79 170.81C255.493 164.984 255.376 158.525 257.46 152.62C258.653 149.205 260.637 146.121 263.25 143.62C266.119 140.922 269.603 138.965 273.4 137.92C277.479 136.782 281.8 136.851 285.84 138.12C287.927 138.848 289.858 139.964 291.53 141.41C293.273 142.889 294.614 144.784 295.43 146.92C296.252 149.149 296.217 151.605 295.33 153.81C294.344 156.015 292.67 157.843 290.56 159.02C288.441 160.254 286.009 160.845 283.56 160.72C281.094 160.548 278.7 159.816 276.56 158.58C272.141 156.016 268.671 152.09 266.67 147.39C264.592 142.582 263.88 137.296 264.61 132.11C264.992 129.511 265.739 126.979 266.83 124.59C267.379 123.412 268.007 122.273 268.71 121.18L269.87 119.63C270.24 119.1 270.72 118.63 271.14 118.17C272.892 116.309 274.914 114.725 277.14 113.47C279.349 112.261 281.701 111.334 284.14 110.71C288.899 109.517 293.887 109.59 298.61 110.92C303.17 112.28 307.44 114.77 310.13 118.55C311.482 120.411 312.216 122.649 312.23 124.95C312.279 127.214 311.426 129.404 309.86 131.04C308.26 132.542 306.154 133.388 303.96 133.41C301.86 133.457 299.787 132.936 297.96 131.9C296.205 130.931 294.617 129.685 293.26 128.21C291.921 126.824 290.762 125.275 289.81 123.6C286.314 117.547 285.364 110.353 287.17 103.6C287.97 100.781 289.282 98.1339 291.04 95.7898C293.885 92.0402 297.684 89.1222 302.04 87.3398C304.77 86.2105 307.678 85.574 310.63 85.4598C311.396 85.4092 312.164 85.4092 312.93 85.4598L313.57 85.5398Z" fill="#263238"/>
<path d="M346.96 185.6H206.75V293.74H346.96V185.6Z" fill="#FFE16C"/>
<path d="M206.75 185.6L232.65 209.76H370.48L346.96 185.6H206.75Z" fill="#FFE16C"/>
<path d="M206.75 185.6L347 185.35H347.11L347.19 185.42L370.47 209.33L370.71 209.58L371.14 210.02H370.52L232.69 209.91H232.63L206.75 185.6L232.75 209.6H232.64L370.47 209.5L370.29 209.94L370.04 209.69L346.77 185.78L346.95 185.86L206.75 185.6Z" fill="#263238"/>
<path d="M248.87 235.47C248.11 235.497 247.392 235.822 246.869 236.374C246.347 236.925 246.062 237.66 246.075 238.42C246.089 239.18 246.401 239.904 246.943 240.437C247.485 240.969 248.215 241.268 248.975 241.268C249.735 241.268 250.465 240.969 251.007 240.437C251.549 239.904 251.861 239.18 251.874 238.42C251.888 237.66 251.603 236.925 251.08 236.374C250.558 235.822 249.839 235.497 249.08 235.47" fill="#263238"/>
<path d="M282 235.47C281.244 235.499 280.529 235.823 280.009 236.373C279.489 236.924 279.206 237.656 279.22 238.413C279.235 239.169 279.546 239.89 280.086 240.421C280.626 240.951 281.353 241.248 282.11 241.248C282.867 241.248 283.594 240.951 284.134 240.421C284.674 239.89 284.985 239.169 284.999 238.413C285.014 237.656 284.731 236.924 284.211 236.373C283.691 235.823 282.976 235.499 282.22 235.47" fill="#263238"/>
<path d="M282.19 261.349C281.612 259.14 280.672 257.042 279.41 255.139C278.006 253.105 276.202 251.376 274.11 250.059C271.585 248.384 268.641 247.452 265.612 247.369C262.584 247.286 259.593 248.055 256.98 249.589C254.822 250.794 252.928 252.42 251.41 254.369C250.043 256.202 248.991 258.25 248.3 260.429C248.308 260.267 248.334 260.106 248.38 259.949C248.476 259.499 248.599 259.055 248.75 258.619C249.298 257.013 250.098 255.504 251.12 254.149C252.627 252.108 254.545 250.405 256.75 249.149C259.43 247.55 262.51 246.745 265.63 246.83C268.75 246.915 271.781 247.886 274.37 249.629C276.499 250.998 278.318 252.796 279.71 254.909C280.66 256.32 281.379 257.873 281.84 259.509C281.963 259.953 282.06 260.404 282.13 260.859C282.164 261.021 282.185 261.185 282.19 261.349Z" fill="#263238"/>
<path opacity="0.5" d="M207.07 186.79L231.87 218.23H346.96V209.76H232.65L207.07 186.79Z" fill="black"/>
<path d="M319.31 293.5C319.17 293.5 319.05 274.69 319.05 251.5C319.05 228.31 319.17 209.5 319.31 209.5C319.45 209.5 319.58 228.3 319.58 251.5C319.58 274.7 319.46 293.5 319.31 293.5Z" fill="#263238"/>
<path d="M341.33 268.979H328.97V282.949H341.33V268.979Z" fill="#F5F5F5"/>
<path d="M206.75 185.6L177.97 209.76H206.75V185.6Z" fill="#FFE16C"/>
<g opacity="0.4">
<path d="M206.75 185.6L177.97 209.76H206.75V185.6Z" fill="black"/>
</g>
<path d="M351.1 293.74H189.89V418.08H351.1V293.74Z" fill="#FFE16C"/>
<path opacity="0.3" d="M351.1 293.74H189.89V418.08H351.1V293.74Z" fill="black"/>
<path d="M310.71 417.2C310.57 417.2 310.45 389.49 310.45 355.31C310.45 321.13 310.57 293.41 310.71 293.41C310.85 293.41 310.97 321.12 310.97 355.31C310.97 389.5 310.85 417.2 310.71 417.2Z" fill="#263238"/>
<path d="M337.43 389.779H325.07V403.749H337.43V389.779Z" fill="#F5F5F5"/>
<path d="M257.38 294.069H239.07V320.599H257.38V294.069Z" fill="#263238"/>
<path d="M257.38 391.18H239.07V417.71H257.38V391.18Z" fill="#263238"/>
<path d="M349.7 293.74H349.28H348.07L343.42 293.79L326.29 293.87L269.8 294L213.29 293.93L196.17 293.85L191.52 293.8L196.17 293.75L213.29 293.67L269.8 293.59L326.29 293.67L343.42 293.75L348.07 293.8H349.28L349.7 293.74Z" fill="#263238"/>
<path d="M73.42 78.4703L55.86 74.1503H55.99C51.4559 77.0344 46.2128 78.6091 40.84 78.7003C37.6591 78.7148 34.4941 78.253 31.45 77.3303C26.0981 75.6119 21.3501 72.3973 17.767 68.0664C14.1839 63.7355 11.9155 58.4694 11.23 52.8903C10.6916 48.671 11.0879 44.3848 12.3909 40.3357C13.694 36.2866 15.8718 32.5738 18.77 29.4603C20.2935 27.7869 22.0009 26.2908 23.86 25.0003C24.8 24.4103 25.74 23.8003 26.72 23.2903L28.21 22.5703L28.95 22.2103L29.73 21.9303C33.7454 20.3739 38.0529 19.7151 42.35 20.0003C48.1089 20.3743 53.6283 22.4446 58.2125 25.9504C62.7967 29.4561 66.2405 34.2404 68.11 39.7003C69.1486 42.7546 69.6954 45.9545 69.73 49.1803C69.755 54.5414 68.298 59.8051 65.52 64.3903V64.2303C70.4 73.0403 72.86 77.4903 73.41 78.4703C72.84 77.4703 70.29 73.1003 65.24 64.3803V64.3003V64.2203C67.9183 59.6795 69.3017 54.4918 69.24 49.2203C69.1936 46.0461 68.6399 42.8997 67.6 39.9003C65.7509 34.5521 62.365 29.8682 57.8665 26.4352C53.368 23.0021 47.9566 20.9725 42.31 20.6003C38.0975 20.3258 33.8759 20.9742 29.94 22.5003L29.18 22.7703L28.45 23.1303L26.99 23.8303C25.99 24.3403 25.11 24.9303 24.18 25.5103C22.3568 26.7662 20.6797 28.2219 19.18 29.8503C16.3348 32.9068 14.1962 36.5513 12.9157 40.5258C11.6352 44.5004 11.2441 48.7078 11.77 52.8503C12.6971 60.4396 16.5907 67.3533 22.6 72.0803C25.2866 74.2091 28.3355 75.8352 31.6 76.8803C34.5894 77.8045 37.701 78.2731 40.83 78.2703C46.1384 78.2135 51.3285 76.6945 55.83 73.8803H55.89H56L73.42 78.4703Z" fill="#263238"/>
<path d="M38 36.3008L38.89 51.0008C38.9255 51.5806 39.1718 52.1274 39.5826 52.5382C39.9934 52.9489 40.5402 53.1953 41.12 53.2308C41.7301 53.2653 42.3302 53.0648 42.797 52.6705C43.2638 52.2762 43.5619 51.7181 43.63 51.1108L45.26 36.3808C45.2884 36.1173 45.2604 35.8507 45.1779 35.5988C45.0955 35.3469 44.9604 35.1154 44.7817 34.9197C44.603 34.7239 44.3847 34.5684 44.1413 34.4634C43.8979 34.3585 43.635 34.3064 43.37 34.3108H39.8C39.5495 34.3183 39.3031 34.3763 39.0755 34.4814C38.848 34.5864 38.6441 34.7364 38.4759 34.9223C38.3078 35.1081 38.179 35.326 38.0972 35.5629C38.0154 35.7998 37.9823 36.0508 38 36.3008Z" fill="#FFE16C"/>
<path d="M44.9999 61.4403C44.7762 62.1118 44.3584 62.7019 43.7993 63.1361C43.2403 63.5702 42.5651 63.8289 41.8591 63.8794C41.1531 63.9299 40.4479 63.77 39.8328 63.4199C39.2176 63.0698 38.72 62.5452 38.4029 61.9124C38.0858 61.2796 37.9634 60.567 38.0512 59.8646C38.139 59.1622 38.433 58.5017 38.896 57.9664C39.3591 57.431 39.9705 57.045 40.6529 56.8571C41.3353 56.6691 42.0581 56.6876 42.7299 56.9103C43.1767 57.0584 43.5898 57.2931 43.9457 57.601C44.3016 57.9089 44.5934 58.2839 44.8042 58.7047C45.015 59.1254 45.1408 59.5836 45.1744 60.053C45.208 60.5224 45.1487 60.9939 44.9999 61.4403Z" fill="#FFE16C"/>
</g>
<defs>
<clipPath id="clip0_536_5753">
<rect width="452" height="454" fill="white"/>
</clipPath>
</defs>
</svg>
