<svg width="707" height="387" viewBox="0 0 707 387" fill="none" xmlns="http://www.w3.org/2000/svg">
<rect width="707" height="387" rx="14" fill="white"/>
<path d="M122.711 205V182.6H127.895V205H122.711ZM143.643 187.528C145.008 187.528 146.224 187.805 147.291 188.36C148.379 188.893 149.232 189.725 149.851 190.856C150.47 191.965 150.779 193.395 150.779 195.144V205H145.787V195.912C145.787 194.525 145.478 193.501 144.859 192.84C144.262 192.179 143.408 191.848 142.299 191.848C141.51 191.848 140.795 192.019 140.155 192.36C139.536 192.68 139.046 193.181 138.683 193.864C138.342 194.547 138.171 195.421 138.171 196.488V205H133.179V187.784H137.947V192.552L137.051 191.112C137.67 189.96 138.555 189.075 139.707 188.456C140.859 187.837 142.171 187.528 143.643 187.528ZM154.984 197.992V193.992H164.04V197.992H154.984ZM175.593 205.384C173.801 205.384 172.084 205.149 170.441 204.68C168.799 204.189 167.476 203.56 166.473 202.792L168.233 198.888C169.193 199.571 170.324 200.136 171.625 200.584C172.948 201.011 174.281 201.224 175.625 201.224C176.649 201.224 177.471 201.128 178.089 200.936C178.729 200.723 179.199 200.435 179.497 200.072C179.796 199.709 179.945 199.293 179.945 198.824C179.945 198.227 179.711 197.757 179.241 197.416C178.772 197.053 178.153 196.765 177.385 196.552C176.617 196.317 175.764 196.104 174.825 195.912C173.908 195.699 172.98 195.443 172.041 195.144C171.124 194.845 170.281 194.461 169.513 193.992C168.745 193.523 168.116 192.904 167.625 192.136C167.156 191.368 166.921 190.387 166.921 189.192C166.921 187.912 167.263 186.749 167.945 185.704C168.649 184.637 169.695 183.795 171.081 183.176C172.489 182.536 174.249 182.216 176.361 182.216C177.769 182.216 179.156 182.387 180.521 182.728C181.887 183.048 183.092 183.539 184.137 184.2L182.537 188.136C181.492 187.539 180.447 187.101 179.401 186.824C178.356 186.525 177.332 186.376 176.329 186.376C175.327 186.376 174.505 186.493 173.865 186.728C173.225 186.963 172.767 187.272 172.489 187.656C172.212 188.019 172.073 188.445 172.073 188.936C172.073 189.512 172.308 189.981 172.777 190.344C173.247 190.685 173.865 190.963 174.633 191.176C175.401 191.389 176.244 191.603 177.161 191.816C178.1 192.029 179.028 192.275 179.945 192.552C180.884 192.829 181.737 193.203 182.505 193.672C183.273 194.141 183.892 194.76 184.361 195.528C184.852 196.296 185.097 197.267 185.097 198.44C185.097 199.699 184.745 200.851 184.041 201.896C183.337 202.941 182.281 203.784 180.873 204.424C179.487 205.064 177.727 205.384 175.593 205.384ZM188.608 205V187.784H193.6V205H188.608ZM191.104 185.384C190.186 185.384 189.44 185.117 188.864 184.584C188.288 184.051 188 183.389 188 182.6C188 181.811 188.288 181.149 188.864 180.616C189.44 180.083 190.186 179.816 191.104 179.816C192.021 179.816 192.768 180.072 193.344 180.584C193.92 181.075 194.208 181.715 194.208 182.504C194.208 183.336 193.92 184.029 193.344 184.584C192.789 185.117 192.042 185.384 191.104 185.384ZM205.593 205.256C203.566 205.256 201.987 204.744 200.857 203.72C199.726 202.675 199.161 201.128 199.161 199.08V183.976H204.153V199.016C204.153 199.741 204.345 200.307 204.729 200.712C205.113 201.096 205.635 201.288 206.297 201.288C207.086 201.288 207.758 201.075 208.313 200.648L209.657 204.168C209.145 204.531 208.526 204.808 207.801 205C207.097 205.171 206.361 205.256 205.593 205.256ZM196.505 192.008V188.168H208.441V192.008H196.505ZM220.792 205.256C218.829 205.256 217.101 204.872 215.608 204.104C214.136 203.336 212.994 202.291 212.184 200.968C211.373 199.624 210.968 198.099 210.968 196.392C210.968 194.664 211.362 193.139 212.152 191.816C212.962 190.472 214.061 189.427 215.448 188.68C216.834 187.912 218.402 187.528 220.152 187.528C221.837 187.528 223.352 187.891 224.696 188.616C226.061 189.32 227.138 190.344 227.928 191.688C228.717 193.011 229.112 194.6 229.112 196.456C229.112 196.648 229.101 196.872 229.08 197.128C229.058 197.363 229.037 197.587 229.016 197.8H215.032V194.888H226.392L224.472 195.752C224.472 194.856 224.29 194.077 223.928 193.416C223.565 192.755 223.064 192.243 222.424 191.88C221.784 191.496 221.037 191.304 220.184 191.304C219.33 191.304 218.573 191.496 217.912 191.88C217.272 192.243 216.77 192.765 216.408 193.448C216.045 194.109 215.864 194.899 215.864 195.816V196.584C215.864 197.523 216.066 198.355 216.472 199.08C216.898 199.784 217.485 200.328 218.232 200.712C219 201.075 219.896 201.256 220.92 201.256C221.837 201.256 222.637 201.117 223.32 200.84C224.024 200.563 224.664 200.147 225.24 199.592L227.896 202.472C227.106 203.368 226.114 204.061 224.92 204.552C223.725 205.021 222.349 205.256 220.792 205.256ZM242.49 205V182.6H253.434C256.25 182.6 258.362 183.133 259.77 184.2C261.199 185.267 261.914 186.675 261.914 188.424C261.914 189.597 261.626 190.621 261.05 191.496C260.474 192.349 259.684 193.011 258.682 193.48C257.679 193.949 256.527 194.184 255.226 194.184L255.834 192.872C257.242 192.872 258.49 193.107 259.578 193.576C260.666 194.024 261.508 194.696 262.106 195.592C262.724 196.488 263.034 197.587 263.034 198.888C263.034 200.808 262.276 202.312 260.762 203.4C259.247 204.467 257.018 205 254.074 205H242.49ZM247.642 201.096H253.69C255.034 201.096 256.047 200.883 256.73 200.456C257.434 200.008 257.786 199.304 257.786 198.344C257.786 197.405 257.434 196.712 256.73 196.264C256.047 195.795 255.034 195.56 253.69 195.56H247.258V191.784H252.794C254.052 191.784 255.012 191.571 255.674 191.144C256.356 190.696 256.698 190.024 256.698 189.128C256.698 188.253 256.356 187.603 255.674 187.176C255.012 186.728 254.052 186.504 252.794 186.504H247.642V201.096ZM277.486 205V201.64L277.166 200.904V194.888C277.166 193.821 276.836 192.989 276.174 192.392C275.534 191.795 274.542 191.496 273.198 191.496C272.281 191.496 271.374 191.645 270.478 191.944C269.604 192.221 268.857 192.605 268.238 193.096L266.446 189.608C267.385 188.947 268.516 188.435 269.838 188.072C271.161 187.709 272.505 187.528 273.87 187.528C276.494 187.528 278.532 188.147 279.982 189.384C281.433 190.621 282.158 192.552 282.158 195.176V205H277.486ZM272.238 205.256C270.894 205.256 269.742 205.032 268.782 204.584C267.822 204.115 267.086 203.485 266.574 202.696C266.062 201.907 265.806 201.021 265.806 200.04C265.806 199.016 266.052 198.12 266.542 197.352C267.054 196.584 267.854 195.987 268.942 195.56C270.03 195.112 271.449 194.888 273.198 194.888H277.774V197.8H273.742C272.569 197.8 271.758 197.992 271.31 198.376C270.884 198.76 270.67 199.24 270.67 199.816C270.67 200.456 270.916 200.968 271.406 201.352C271.918 201.715 272.612 201.896 273.486 201.896C274.318 201.896 275.065 201.704 275.726 201.32C276.388 200.915 276.868 200.328 277.166 199.56L277.934 201.864C277.572 202.973 276.91 203.816 275.95 204.392C274.99 204.968 273.753 205.256 272.238 205.256ZM286.997 205V181.256H291.989V205H286.997ZM307.502 205V201.64L307.182 200.904V194.888C307.182 193.821 306.851 192.989 306.19 192.392C305.55 191.795 304.558 191.496 303.214 191.496C302.296 191.496 301.39 191.645 300.494 191.944C299.619 192.221 298.872 192.605 298.254 193.096L296.462 189.608C297.4 188.947 298.531 188.435 299.854 188.072C301.176 187.709 302.52 187.528 303.886 187.528C306.51 187.528 308.547 188.147 309.998 189.384C311.448 190.621 312.174 192.552 312.174 195.176V205H307.502ZM302.254 205.256C300.91 205.256 299.758 205.032 298.798 204.584C297.838 204.115 297.102 203.485 296.59 202.696C296.078 201.907 295.822 201.021 295.822 200.04C295.822 199.016 296.067 198.12 296.558 197.352C297.07 196.584 297.87 195.987 298.958 195.56C300.046 195.112 301.464 194.888 303.214 194.888H307.79V197.8H303.758C302.584 197.8 301.774 197.992 301.326 198.376C300.899 198.76 300.686 199.24 300.686 199.816C300.686 200.456 300.931 200.968 301.422 201.352C301.934 201.715 302.627 201.896 303.502 201.896C304.334 201.896 305.08 201.704 305.742 201.32C306.403 200.915 306.883 200.328 307.182 199.56L307.95 201.864C307.587 202.973 306.926 203.816 305.966 204.392C305.006 204.968 303.768 205.256 302.254 205.256ZM327.475 187.528C328.841 187.528 330.057 187.805 331.123 188.36C332.211 188.893 333.065 189.725 333.683 190.856C334.302 191.965 334.611 193.395 334.611 195.144V205H329.619V195.912C329.619 194.525 329.31 193.501 328.691 192.84C328.094 192.179 327.241 191.848 326.131 191.848C325.342 191.848 324.627 192.019 323.987 192.36C323.369 192.68 322.878 193.181 322.515 193.864C322.174 194.547 322.003 195.421 322.003 196.488V205H317.011V187.784H321.779V192.552L320.883 191.112C321.502 189.96 322.387 189.075 323.539 188.456C324.691 187.837 326.003 187.528 327.475 187.528ZM347.901 205.256C346.045 205.256 344.392 204.883 342.941 204.136C341.491 203.368 340.349 202.312 339.517 200.968C338.707 199.624 338.301 198.099 338.301 196.392C338.301 194.664 338.707 193.139 339.517 191.816C340.349 190.472 341.491 189.427 342.941 188.68C344.392 187.912 346.045 187.528 347.901 187.528C349.715 187.528 351.293 187.912 352.637 188.68C353.981 189.427 354.973 190.504 355.613 191.912L351.741 193.992C351.293 193.181 350.728 192.584 350.045 192.2C349.384 191.816 348.659 191.624 347.869 191.624C347.016 191.624 346.248 191.816 345.565 192.2C344.883 192.584 344.339 193.128 343.933 193.832C343.549 194.536 343.357 195.389 343.357 196.392C343.357 197.395 343.549 198.248 343.933 198.952C344.339 199.656 344.883 200.2 345.565 200.584C346.248 200.968 347.016 201.16 347.869 201.16C348.659 201.16 349.384 200.979 350.045 200.616C350.728 200.232 351.293 199.624 351.741 198.792L355.613 200.904C354.973 202.291 353.981 203.368 352.637 204.136C351.293 204.883 349.715 205.256 347.901 205.256ZM358.714 205V187.784H363.706V205H358.714ZM361.21 185.384C360.293 185.384 359.546 185.117 358.97 184.584C358.394 184.051 358.106 183.389 358.106 182.6C358.106 181.811 358.394 181.149 358.97 180.616C359.546 180.083 360.293 179.816 361.21 179.816C362.127 179.816 362.874 180.072 363.45 180.584C364.026 181.075 364.314 181.715 364.314 182.504C364.314 183.336 364.026 184.029 363.45 184.584C362.895 185.117 362.149 185.384 361.21 185.384ZM379.123 187.528C380.488 187.528 381.704 187.805 382.771 188.36C383.859 188.893 384.712 189.725 385.331 190.856C385.95 191.965 386.259 193.395 386.259 195.144V205H381.267V195.912C381.267 194.525 380.958 193.501 380.339 192.84C379.742 192.179 378.888 191.848 377.779 191.848C376.99 191.848 376.275 192.019 375.635 192.36C375.016 192.68 374.526 193.181 374.163 193.864C373.822 194.547 373.651 195.421 373.651 196.488V205H368.659V187.784H373.427V192.552L372.531 191.112C373.15 189.96 374.035 189.075 375.187 188.456C376.339 187.837 377.651 187.528 379.123 187.528ZM399.325 211.464C397.704 211.464 396.136 211.261 394.621 210.856C393.128 210.472 391.88 209.885 390.877 209.096L392.861 205.512C393.586 206.109 394.504 206.579 395.613 206.92C396.744 207.283 397.853 207.464 398.941 207.464C400.712 207.464 401.992 207.069 402.781 206.28C403.592 205.491 403.997 204.317 403.997 202.76V200.168L404.317 195.848L404.253 191.496V187.784H408.989V202.12C408.989 205.32 408.157 207.677 406.493 209.192C404.829 210.707 402.44 211.464 399.325 211.464ZM398.557 204.168C396.957 204.168 395.506 203.827 394.205 203.144C392.925 202.44 391.89 201.469 391.101 200.232C390.333 198.973 389.949 197.512 389.949 195.848C389.949 194.163 390.333 192.701 391.101 191.464C391.89 190.205 392.925 189.235 394.205 188.552C395.506 187.869 396.957 187.528 398.557 187.528C400.008 187.528 401.288 187.827 402.397 188.424C403.506 189 404.37 189.907 404.989 191.144C405.608 192.36 405.917 193.928 405.917 195.848C405.917 197.747 405.608 199.315 404.989 200.552C404.37 201.768 403.506 202.675 402.397 203.272C401.288 203.869 400.008 204.168 398.557 204.168ZM399.549 200.072C400.424 200.072 401.202 199.901 401.885 199.56C402.568 199.197 403.101 198.696 403.485 198.056C403.869 197.416 404.061 196.68 404.061 195.848C404.061 194.995 403.869 194.259 403.485 193.64C403.101 193 402.568 192.509 401.885 192.168C401.202 191.805 400.424 191.624 399.549 191.624C398.674 191.624 397.896 191.805 397.213 192.168C396.53 192.509 395.986 193 395.581 193.64C395.197 194.259 395.005 194.995 395.005 195.848C395.005 196.68 395.197 197.416 395.581 198.056C395.986 198.696 396.53 199.197 397.213 199.56C397.896 199.901 398.674 200.072 399.549 200.072Z" fill="url(#paint0_linear_944_3546)"/>
<path d="M429.066 205L421.738 182.6H427.114L433.482 202.44H430.794L437.45 182.6H442.25L448.65 202.44H446.058L452.586 182.6H457.546L450.218 205H444.65L438.986 187.592H440.458L434.634 205H429.066ZM471.34 187.528C472.706 187.528 473.922 187.805 474.988 188.36C476.076 188.893 476.93 189.725 477.548 190.856C478.167 191.965 478.476 193.395 478.476 195.144V205H473.484V195.912C473.484 194.525 473.175 193.501 472.556 192.84C471.959 192.179 471.106 191.848 469.996 191.848C469.207 191.848 468.492 192.019 467.852 192.36C467.234 192.68 466.743 193.181 466.38 193.864C466.039 194.547 465.868 195.421 465.868 196.488V205H460.876V181.256H465.868V192.552L464.748 191.112C465.367 189.96 466.252 189.075 467.404 188.456C468.556 187.837 469.868 187.528 471.34 187.528ZM493.881 205V201.64L493.561 200.904V194.888C493.561 193.821 493.231 192.989 492.569 192.392C491.929 191.795 490.937 191.496 489.593 191.496C488.676 191.496 487.769 191.645 486.873 191.944C485.999 192.221 485.252 192.605 484.633 193.096L482.841 189.608C483.78 188.947 484.911 188.435 486.233 188.072C487.556 187.709 488.9 187.528 490.265 187.528C492.889 187.528 494.927 188.147 496.377 189.384C497.828 190.621 498.553 192.552 498.553 195.176V205H493.881ZM488.633 205.256C487.289 205.256 486.137 205.032 485.177 204.584C484.217 204.115 483.481 203.485 482.969 202.696C482.457 201.907 482.201 201.021 482.201 200.04C482.201 199.016 482.447 198.12 482.937 197.352C483.449 196.584 484.249 195.987 485.337 195.56C486.425 195.112 487.844 194.888 489.593 194.888H494.169V197.8H490.137C488.964 197.8 488.153 197.992 487.705 198.376C487.279 198.76 487.065 199.24 487.065 199.816C487.065 200.456 487.311 200.968 487.801 201.352C488.313 201.715 489.007 201.896 489.881 201.896C490.713 201.896 491.46 201.704 492.121 201.32C492.783 200.915 493.263 200.328 493.561 199.56L494.329 201.864C493.967 202.973 493.305 203.816 492.345 204.392C491.385 204.968 490.148 205.256 488.633 205.256ZM510.431 205.256C508.405 205.256 506.826 204.744 505.695 203.72C504.565 202.675 503.999 201.128 503.999 199.08V183.976H508.991V199.016C508.991 199.741 509.183 200.307 509.567 200.712C509.951 201.096 510.474 201.288 511.135 201.288C511.925 201.288 512.597 201.075 513.151 200.648L514.495 204.168C513.983 204.531 513.365 204.808 512.639 205C511.935 205.171 511.199 205.256 510.431 205.256ZM501.343 192.008V188.168H513.279V192.008H501.343ZM527.352 205V182.6H532.536V205H527.352ZM543.612 205.256C542.14 205.256 540.722 205.085 539.356 204.744C538.012 204.381 536.946 203.933 536.156 203.4L537.82 199.816C538.61 200.307 539.538 200.712 540.604 201.032C541.692 201.331 542.759 201.48 543.804 201.48C544.956 201.48 545.767 201.341 546.236 201.064C546.727 200.787 546.972 200.403 546.972 199.912C546.972 199.507 546.78 199.208 546.396 199.016C546.034 198.803 545.543 198.643 544.924 198.536C544.306 198.429 543.623 198.323 542.876 198.216C542.151 198.109 541.415 197.971 540.668 197.8C539.922 197.608 539.239 197.331 538.62 196.968C538.002 196.605 537.5 196.115 537.116 195.496C536.754 194.877 536.572 194.077 536.572 193.096C536.572 192.008 536.882 191.048 537.5 190.216C538.14 189.384 539.058 188.733 540.252 188.264C541.447 187.773 542.876 187.528 544.54 187.528C545.714 187.528 546.908 187.656 548.124 187.912C549.34 188.168 550.354 188.541 551.164 189.032L549.5 192.584C548.668 192.093 547.826 191.763 546.972 191.592C546.14 191.4 545.33 191.304 544.54 191.304C543.431 191.304 542.62 191.453 542.108 191.752C541.596 192.051 541.34 192.435 541.34 192.904C541.34 193.331 541.522 193.651 541.884 193.864C542.268 194.077 542.77 194.248 543.388 194.376C544.007 194.504 544.679 194.621 545.404 194.728C546.151 194.813 546.898 194.952 547.644 195.144C548.391 195.336 549.063 195.613 549.66 195.976C550.279 196.317 550.78 196.797 551.164 197.416C551.548 198.013 551.74 198.803 551.74 199.784C551.74 200.851 551.42 201.8 550.78 202.632C550.14 203.443 549.212 204.083 547.996 204.552C546.802 205.021 545.34 205.256 543.612 205.256ZM564.875 205V182.6H570.059V205H564.875ZM582.383 205.256C580.356 205.256 578.777 204.744 577.647 203.72C576.516 202.675 575.951 201.128 575.951 199.08V183.976H580.943V199.016C580.943 199.741 581.135 200.307 581.519 200.712C581.903 201.096 582.425 201.288 583.087 201.288C583.876 201.288 584.548 201.075 585.103 200.648L586.447 204.168C585.935 204.531 585.316 204.808 584.591 205C583.887 205.171 583.151 205.256 582.383 205.256ZM573.295 192.008V188.168H585.231V192.008H573.295Z" fill="#171201"/>
<defs>
<linearGradient id="paint0_linear_944_3546" x1="-96.3509" y1="193.5" x2="387.306" y2="193.5" gradientUnits="userSpaceOnUse">
<stop stop-color="#171201"/>
<stop offset="1" stop-color="#C39A00"/>
</linearGradient>
</defs>
</svg>
