<svg width="707" height="387" viewBox="0 0 707 387" fill="none" xmlns="http://www.w3.org/2000/svg">
<rect width="707" height="387" rx="14" fill="white"/>
<path d="M90.641 205V182.6H95.825V205H90.641ZM111.573 187.528C112.938 187.528 114.154 187.805 115.221 188.36C116.309 188.893 117.162 189.725 117.781 190.856C118.4 191.965 118.709 193.395 118.709 195.144V205H113.717V195.912C113.717 194.525 113.408 193.501 112.789 192.84C112.192 192.179 111.338 191.848 110.229 191.848C109.44 191.848 108.725 192.019 108.085 192.36C107.466 192.68 106.976 193.181 106.613 193.864C106.272 194.547 106.101 195.421 106.101 196.488V205H101.109V187.784H105.877V192.552L104.981 191.112C105.6 189.96 106.485 189.075 107.637 188.456C108.789 187.837 110.101 187.528 111.573 187.528ZM122.914 197.992V193.992H131.97V197.992H122.914ZM143.523 205.384C141.731 205.384 140.014 205.149 138.371 204.68C136.729 204.189 135.406 203.56 134.403 202.792L136.163 198.888C137.123 199.571 138.254 200.136 139.555 200.584C140.878 201.011 142.211 201.224 143.555 201.224C144.579 201.224 145.401 201.128 146.019 200.936C146.659 200.723 147.129 200.435 147.427 200.072C147.726 199.709 147.875 199.293 147.875 198.824C147.875 198.227 147.641 197.757 147.171 197.416C146.702 197.053 146.083 196.765 145.315 196.552C144.547 196.317 143.694 196.104 142.755 195.912C141.838 195.699 140.91 195.443 139.971 195.144C139.054 194.845 138.211 194.461 137.443 193.992C136.675 193.523 136.046 192.904 135.555 192.136C135.086 191.368 134.851 190.387 134.851 189.192C134.851 187.912 135.193 186.749 135.875 185.704C136.579 184.637 137.625 183.795 139.011 183.176C140.419 182.536 142.179 182.216 144.291 182.216C145.699 182.216 147.086 182.387 148.451 182.728C149.817 183.048 151.022 183.539 152.067 184.2L150.467 188.136C149.422 187.539 148.377 187.101 147.331 186.824C146.286 186.525 145.262 186.376 144.259 186.376C143.257 186.376 142.435 186.493 141.795 186.728C141.155 186.963 140.697 187.272 140.419 187.656C140.142 188.019 140.003 188.445 140.003 188.936C140.003 189.512 140.238 189.981 140.707 190.344C141.177 190.685 141.795 190.963 142.563 191.176C143.331 191.389 144.174 191.603 145.091 191.816C146.03 192.029 146.958 192.275 147.875 192.552C148.814 192.829 149.667 193.203 150.435 193.672C151.203 194.141 151.822 194.76 152.291 195.528C152.782 196.296 153.027 197.267 153.027 198.44C153.027 199.699 152.675 200.851 151.971 201.896C151.267 202.941 150.211 203.784 148.803 204.424C147.417 205.064 145.657 205.384 143.523 205.384ZM156.538 205V187.784H161.53V205H156.538ZM159.034 185.384C158.116 185.384 157.37 185.117 156.794 184.584C156.218 184.051 155.93 183.389 155.93 182.6C155.93 181.811 156.218 181.149 156.794 180.616C157.37 180.083 158.116 179.816 159.034 179.816C159.951 179.816 160.698 180.072 161.274 180.584C161.85 181.075 162.138 181.715 162.138 182.504C162.138 183.336 161.85 184.029 161.274 184.584C160.719 185.117 159.972 185.384 159.034 185.384ZM173.523 205.256C171.496 205.256 169.917 204.744 168.787 203.72C167.656 202.675 167.091 201.128 167.091 199.08V183.976H172.083V199.016C172.083 199.741 172.275 200.307 172.659 200.712C173.043 201.096 173.565 201.288 174.227 201.288C175.016 201.288 175.688 201.075 176.243 200.648L177.587 204.168C177.075 204.531 176.456 204.808 175.731 205C175.027 205.171 174.291 205.256 173.523 205.256ZM164.435 192.008V188.168H176.371V192.008H164.435ZM188.722 205.256C186.759 205.256 185.031 204.872 183.538 204.104C182.066 203.336 180.924 202.291 180.114 200.968C179.303 199.624 178.898 198.099 178.898 196.392C178.898 194.664 179.292 193.139 180.082 191.816C180.892 190.472 181.991 189.427 183.378 188.68C184.764 187.912 186.332 187.528 188.082 187.528C189.767 187.528 191.282 187.891 192.626 188.616C193.991 189.32 195.068 190.344 195.858 191.688C196.647 193.011 197.042 194.6 197.042 196.456C197.042 196.648 197.031 196.872 197.01 197.128C196.988 197.363 196.967 197.587 196.946 197.8H182.962V194.888H194.322L192.402 195.752C192.402 194.856 192.22 194.077 191.858 193.416C191.495 192.755 190.994 192.243 190.354 191.88C189.714 191.496 188.967 191.304 188.114 191.304C187.26 191.304 186.503 191.496 185.842 191.88C185.202 192.243 184.7 192.765 184.338 193.448C183.975 194.109 183.794 194.899 183.794 195.816V196.584C183.794 197.523 183.996 198.355 184.402 199.08C184.828 199.784 185.415 200.328 186.162 200.712C186.93 201.075 187.826 201.256 188.85 201.256C189.767 201.256 190.567 201.117 191.25 200.84C191.954 200.563 192.594 200.147 193.17 199.592L195.826 202.472C195.036 203.368 194.044 204.061 192.85 204.552C191.655 205.021 190.279 205.256 188.722 205.256ZM210.42 205V182.6H221.364C224.18 182.6 226.292 183.133 227.7 184.2C229.129 185.267 229.844 186.675 229.844 188.424C229.844 189.597 229.556 190.621 228.98 191.496C228.404 192.349 227.614 193.011 226.612 193.48C225.609 193.949 224.457 194.184 223.156 194.184L223.764 192.872C225.172 192.872 226.42 193.107 227.508 193.576C228.596 194.024 229.438 194.696 230.036 195.592C230.654 196.488 230.964 197.587 230.964 198.888C230.964 200.808 230.206 202.312 228.692 203.4C227.177 204.467 224.948 205 222.004 205H210.42ZM215.572 201.096H221.62C222.964 201.096 223.977 200.883 224.66 200.456C225.364 200.008 225.716 199.304 225.716 198.344C225.716 197.405 225.364 196.712 224.66 196.264C223.977 195.795 222.964 195.56 221.62 195.56H215.188V191.784H220.724C221.982 191.784 222.942 191.571 223.604 191.144C224.286 190.696 224.628 190.024 224.628 189.128C224.628 188.253 224.286 187.603 223.604 187.176C222.942 186.728 221.982 186.504 220.724 186.504H215.572V201.096ZM245.416 205V201.64L245.096 200.904V194.888C245.096 193.821 244.766 192.989 244.104 192.392C243.464 191.795 242.472 191.496 241.128 191.496C240.211 191.496 239.304 191.645 238.408 191.944C237.534 192.221 236.787 192.605 236.168 193.096L234.376 189.608C235.315 188.947 236.446 188.435 237.768 188.072C239.091 187.709 240.435 187.528 241.8 187.528C244.424 187.528 246.462 188.147 247.912 189.384C249.363 190.621 250.088 192.552 250.088 195.176V205H245.416ZM240.168 205.256C238.824 205.256 237.672 205.032 236.712 204.584C235.752 204.115 235.016 203.485 234.504 202.696C233.992 201.907 233.736 201.021 233.736 200.04C233.736 199.016 233.982 198.12 234.472 197.352C234.984 196.584 235.784 195.987 236.872 195.56C237.96 195.112 239.379 194.888 241.128 194.888H245.704V197.8H241.672C240.499 197.8 239.688 197.992 239.24 198.376C238.814 198.76 238.6 199.24 238.6 199.816C238.6 200.456 238.846 200.968 239.336 201.352C239.848 201.715 240.542 201.896 241.416 201.896C242.248 201.896 242.995 201.704 243.656 201.32C244.318 200.915 244.798 200.328 245.096 199.56L245.864 201.864C245.502 202.973 244.84 203.816 243.88 204.392C242.92 204.968 241.683 205.256 240.168 205.256ZM254.926 205V181.256H259.918V205H254.926ZM275.431 205V201.64L275.111 200.904V194.888C275.111 193.821 274.781 192.989 274.119 192.392C273.479 191.795 272.487 191.496 271.143 191.496C270.226 191.496 269.319 191.645 268.423 191.944C267.549 192.221 266.802 192.605 266.183 193.096L264.391 189.608C265.33 188.947 266.461 188.435 267.783 188.072C269.106 187.709 270.45 187.528 271.815 187.528C274.439 187.528 276.477 188.147 277.927 189.384C279.378 190.621 280.103 192.552 280.103 195.176V205H275.431ZM270.183 205.256C268.839 205.256 267.687 205.032 266.727 204.584C265.767 204.115 265.031 203.485 264.519 202.696C264.007 201.907 263.751 201.021 263.751 200.04C263.751 199.016 263.997 198.12 264.487 197.352C264.999 196.584 265.799 195.987 266.887 195.56C267.975 195.112 269.394 194.888 271.143 194.888H275.719V197.8H271.687C270.514 197.8 269.703 197.992 269.255 198.376C268.829 198.76 268.615 199.24 268.615 199.816C268.615 200.456 268.861 200.968 269.351 201.352C269.863 201.715 270.557 201.896 271.431 201.896C272.263 201.896 273.01 201.704 273.671 201.32C274.333 200.915 274.813 200.328 275.111 199.56L275.879 201.864C275.517 202.973 274.855 203.816 273.895 204.392C272.935 204.968 271.698 205.256 270.183 205.256ZM295.405 187.528C296.771 187.528 297.987 187.805 299.053 188.36C300.141 188.893 300.995 189.725 301.613 190.856C302.232 191.965 302.541 193.395 302.541 195.144V205H297.549V195.912C297.549 194.525 297.24 193.501 296.621 192.84C296.024 192.179 295.171 191.848 294.061 191.848C293.272 191.848 292.557 192.019 291.917 192.36C291.299 192.68 290.808 193.181 290.445 193.864C290.104 194.547 289.933 195.421 289.933 196.488V205H284.941V187.784H289.709V192.552L288.813 191.112C289.432 189.96 290.317 189.075 291.469 188.456C292.621 187.837 293.933 187.528 295.405 187.528ZM315.831 205.256C313.975 205.256 312.322 204.883 310.871 204.136C309.421 203.368 308.279 202.312 307.447 200.968C306.637 199.624 306.231 198.099 306.231 196.392C306.231 194.664 306.637 193.139 307.447 191.816C308.279 190.472 309.421 189.427 310.871 188.68C312.322 187.912 313.975 187.528 315.831 187.528C317.645 187.528 319.223 187.912 320.567 188.68C321.911 189.427 322.903 190.504 323.543 191.912L319.671 193.992C319.223 193.181 318.658 192.584 317.975 192.2C317.314 191.816 316.589 191.624 315.799 191.624C314.946 191.624 314.178 191.816 313.495 192.2C312.813 192.584 312.269 193.128 311.863 193.832C311.479 194.536 311.287 195.389 311.287 196.392C311.287 197.395 311.479 198.248 311.863 198.952C312.269 199.656 312.813 200.2 313.495 200.584C314.178 200.968 314.946 201.16 315.799 201.16C316.589 201.16 317.314 200.979 317.975 200.616C318.658 200.232 319.223 199.624 319.671 198.792L323.543 200.904C322.903 202.291 321.911 203.368 320.567 204.136C319.223 204.883 317.645 205.256 315.831 205.256ZM326.644 205V187.784H331.636V205H326.644ZM329.14 185.384C328.223 185.384 327.476 185.117 326.9 184.584C326.324 184.051 326.036 183.389 326.036 182.6C326.036 181.811 326.324 181.149 326.9 180.616C327.476 180.083 328.223 179.816 329.14 179.816C330.057 179.816 330.804 180.072 331.38 180.584C331.956 181.075 332.244 181.715 332.244 182.504C332.244 183.336 331.956 184.029 331.38 184.584C330.825 185.117 330.079 185.384 329.14 185.384ZM347.053 187.528C348.418 187.528 349.634 187.805 350.701 188.36C351.789 188.893 352.642 189.725 353.261 190.856C353.88 191.965 354.189 193.395 354.189 195.144V205H349.197V195.912C349.197 194.525 348.888 193.501 348.269 192.84C347.672 192.179 346.818 191.848 345.709 191.848C344.92 191.848 344.205 192.019 343.565 192.36C342.946 192.68 342.456 193.181 342.093 193.864C341.752 194.547 341.581 195.421 341.581 196.488V205H336.589V187.784H341.357V192.552L340.461 191.112C341.08 189.96 341.965 189.075 343.117 188.456C344.269 187.837 345.581 187.528 347.053 187.528ZM367.255 211.464C365.634 211.464 364.066 211.261 362.551 210.856C361.058 210.472 359.81 209.885 358.807 209.096L360.791 205.512C361.516 206.109 362.434 206.579 363.543 206.92C364.674 207.283 365.783 207.464 366.871 207.464C368.642 207.464 369.922 207.069 370.711 206.28C371.522 205.491 371.927 204.317 371.927 202.76V200.168L372.247 195.848L372.183 191.496V187.784H376.919V202.12C376.919 205.32 376.087 207.677 374.423 209.192C372.759 210.707 370.37 211.464 367.255 211.464ZM366.487 204.168C364.887 204.168 363.436 203.827 362.135 203.144C360.855 202.44 359.82 201.469 359.031 200.232C358.263 198.973 357.879 197.512 357.879 195.848C357.879 194.163 358.263 192.701 359.031 191.464C359.82 190.205 360.855 189.235 362.135 188.552C363.436 187.869 364.887 187.528 366.487 187.528C367.938 187.528 369.218 187.827 370.327 188.424C371.436 189 372.3 189.907 372.919 191.144C373.538 192.36 373.847 193.928 373.847 195.848C373.847 197.747 373.538 199.315 372.919 200.552C372.3 201.768 371.436 202.675 370.327 203.272C369.218 203.869 367.938 204.168 366.487 204.168ZM367.479 200.072C368.354 200.072 369.132 199.901 369.815 199.56C370.498 199.197 371.031 198.696 371.415 198.056C371.799 197.416 371.991 196.68 371.991 195.848C371.991 194.995 371.799 194.259 371.415 193.64C371.031 193 370.498 192.509 369.815 192.168C369.132 191.805 368.354 191.624 367.479 191.624C366.604 191.624 365.826 191.805 365.143 192.168C364.46 192.509 363.916 193 363.511 193.64C363.127 194.259 362.935 194.995 362.935 195.848C362.935 196.68 363.127 197.416 363.511 198.056C363.916 198.696 364.46 199.197 365.143 199.56C365.826 199.901 366.604 200.072 367.479 200.072Z" fill="url(#paint0_linear_944_3552)"/>
<path d="M406.98 182.6H412.164V205H406.98V182.6ZM396.804 205H391.62V182.6H396.804V205ZM407.364 195.816H396.42V191.432H407.364V195.816ZM425.623 205.256C423.789 205.256 422.157 204.872 420.727 204.104C419.319 203.336 418.199 202.291 417.367 200.968C416.557 199.624 416.151 198.099 416.151 196.392C416.151 194.664 416.557 193.139 417.367 191.816C418.199 190.472 419.319 189.427 420.727 188.68C422.157 187.912 423.789 187.528 425.623 187.528C427.437 187.528 429.058 187.912 430.487 188.68C431.917 189.427 433.037 190.461 433.847 191.784C434.658 193.107 435.063 194.643 435.063 196.392C435.063 198.099 434.658 199.624 433.847 200.968C433.037 202.291 431.917 203.336 430.487 204.104C429.058 204.872 427.437 205.256 425.623 205.256ZM425.623 201.16C426.455 201.16 427.202 200.968 427.863 200.584C428.525 200.2 429.047 199.656 429.431 198.952C429.815 198.227 430.007 197.373 430.007 196.392C430.007 195.389 429.815 194.536 429.431 193.832C429.047 193.128 428.525 192.584 427.863 192.2C427.202 191.816 426.455 191.624 425.623 191.624C424.791 191.624 424.045 191.816 423.383 192.2C422.722 192.584 422.189 193.128 421.783 193.832C421.399 194.536 421.207 195.389 421.207 196.392C421.207 197.373 421.399 198.227 421.783 198.952C422.189 199.656 422.722 200.2 423.383 200.584C424.045 200.968 424.791 201.16 425.623 201.16ZM442.187 205L435.979 187.784H440.683L445.835 202.6H443.595L448.971 187.784H453.195L458.411 202.6H456.171L461.483 187.784H465.899L459.659 205H454.827L450.251 192.296H451.723L446.987 205H442.187ZM478.275 205V182.6H483.459V205H478.275ZM495.783 205.256C493.756 205.256 492.177 204.744 491.047 203.72C489.916 202.675 489.351 201.128 489.351 199.08V183.976H494.343V199.016C494.343 199.741 494.535 200.307 494.919 200.712C495.303 201.096 495.825 201.288 496.487 201.288C497.276 201.288 497.948 201.075 498.503 200.648L499.847 204.168C499.335 204.531 498.716 204.808 497.991 205C497.287 205.171 496.551 205.256 495.783 205.256ZM486.695 192.008V188.168H498.631V192.008H486.695ZM518.079 205L510.751 182.6H516.127L522.495 202.44H519.807L526.463 182.6H531.263L537.663 202.44H535.071L541.599 182.6H546.559L539.231 205H533.663L527.999 187.592H529.471L523.647 205H518.079ZM556.332 205.256C554.498 205.256 552.866 204.872 551.436 204.104C550.028 203.336 548.908 202.291 548.076 200.968C547.266 199.624 546.86 198.099 546.86 196.392C546.86 194.664 547.266 193.139 548.076 191.816C548.908 190.472 550.028 189.427 551.436 188.68C552.866 187.912 554.498 187.528 556.332 187.528C558.146 187.528 559.767 187.912 561.196 188.68C562.626 189.427 563.746 190.461 564.556 191.784C565.367 193.107 565.772 194.643 565.772 196.392C565.772 198.099 565.367 199.624 564.556 200.968C563.746 202.291 562.626 203.336 561.196 204.104C559.767 204.872 558.146 205.256 556.332 205.256ZM556.332 201.16C557.164 201.16 557.911 200.968 558.572 200.584C559.234 200.2 559.756 199.656 560.14 198.952C560.524 198.227 560.716 197.373 560.716 196.392C560.716 195.389 560.524 194.536 560.14 193.832C559.756 193.128 559.234 192.584 558.572 192.2C557.911 191.816 557.164 191.624 556.332 191.624C555.5 191.624 554.754 191.816 554.092 192.2C553.431 192.584 552.898 193.128 552.492 193.832C552.108 194.536 551.916 195.389 551.916 196.392C551.916 197.373 552.108 198.227 552.492 198.952C552.898 199.656 553.431 200.2 554.092 200.584C554.754 200.968 555.5 201.16 556.332 201.16ZM569.429 205V187.784H574.197V192.648L573.525 191.24C574.037 190.024 574.858 189.107 575.989 188.488C577.12 187.848 578.496 187.528 580.117 187.528V192.136C579.904 192.115 579.712 192.104 579.541 192.104C579.37 192.083 579.189 192.072 578.997 192.072C577.632 192.072 576.522 192.467 575.669 193.256C574.837 194.024 574.421 195.229 574.421 196.872V205H569.429ZM587.564 201.48L587.692 195.4L595.724 187.784H601.676L593.964 195.624L591.372 197.736L587.564 201.48ZM583.436 205V181.256H588.428V205H583.436ZM596.268 205L590.444 197.768L593.58 193.896L602.316 205H596.268ZM610.111 205.256C608.639 205.256 607.22 205.085 605.855 204.744C604.511 204.381 603.444 203.933 602.655 203.4L604.319 199.816C605.108 200.307 606.036 200.712 607.103 201.032C608.191 201.331 609.258 201.48 610.303 201.48C611.455 201.48 612.266 201.341 612.735 201.064C613.226 200.787 613.471 200.403 613.471 199.912C613.471 199.507 613.279 199.208 612.895 199.016C612.532 198.803 612.042 198.643 611.423 198.536C610.804 198.429 610.122 198.323 609.375 198.216C608.65 198.109 607.914 197.971 607.167 197.8C606.42 197.608 605.738 197.331 605.119 196.968C604.5 196.605 603.999 196.115 603.615 195.496C603.252 194.877 603.071 194.077 603.071 193.096C603.071 192.008 603.38 191.048 603.999 190.216C604.639 189.384 605.556 188.733 606.751 188.264C607.946 187.773 609.375 187.528 611.039 187.528C612.212 187.528 613.407 187.656 614.623 187.912C615.839 188.168 616.852 188.541 617.663 189.032L615.999 192.584C615.167 192.093 614.324 191.763 613.471 191.592C612.639 191.4 611.828 191.304 611.039 191.304C609.93 191.304 609.119 191.453 608.607 191.752C608.095 192.051 607.839 192.435 607.839 192.904C607.839 193.331 608.02 193.651 608.383 193.864C608.767 194.077 609.268 194.248 609.887 194.376C610.506 194.504 611.178 194.621 611.903 194.728C612.65 194.813 613.396 194.952 614.143 195.144C614.89 195.336 615.562 195.613 616.159 195.976C616.778 196.317 617.279 196.797 617.663 197.416C618.047 198.013 618.239 198.803 618.239 199.784C618.239 200.851 617.919 201.8 617.279 202.632C616.639 203.443 615.711 204.083 614.495 204.552C613.3 205.021 611.839 205.256 610.111 205.256Z" fill="#171201"/>
<defs>
<linearGradient id="paint0_linear_944_3552" x1="-96.3509" y1="193.5" x2="387.306" y2="193.5" gradientUnits="userSpaceOnUse">
<stop stop-color="#171201"/>
<stop offset="1" stop-color="#C39A00"/>
</linearGradient>
</defs>
</svg>
