<svg width="44" height="146" viewBox="0 0 44 146" fill="none" xmlns="http://www.w3.org/2000/svg">
<path d="M4.43664 0.66174C3.69644 -0.158122 2.43175 -0.222698 1.61189 0.517505C0.792031 1.25771 0.727454 2.52239 1.46766 3.34225L4.43664 0.66174ZM26.7267 145.568L43.8519 130.074L21.8712 122.99L26.7267 145.568ZM2.95215 2.002L1.46766 3.34225C15.7281 19.1373 47.7686 62.3152 30.3141 127.925L32.2469 128.44L34.1796 128.954C52.1375 61.4517 19.1073 16.9113 4.43664 0.66174L2.95215 2.002Z" fill="#D4D4D4"/>
<path d="M4.43664 0.66174C3.69644 -0.158122 2.43175 -0.222698 1.61189 0.517505C0.792031 1.25771 0.727454 2.52239 1.46766 3.34225L4.43664 0.66174ZM26.7267 145.568L43.8519 130.074L21.8712 122.99L26.7267 145.568ZM2.95215 2.002L1.46766 3.34225C15.7281 19.1373 47.7686 62.3152 30.3141 127.925L32.2469 128.44L34.1796 128.954C52.1375 61.4517 19.1073 16.9113 4.43664 0.66174L2.95215 2.002Z" fill="url(#paint0_linear_155_4893)"/>
<defs>
<linearGradient id="paint0_linear_155_4893" x1="6.73957" y1="-25.2717" x2="28.0457" y2="145.404" gradientUnits="userSpaceOnUse">
<stop stop-color="#715A03"/>
<stop offset="1" stop-color="#ECC222"/>
</linearGradient>
</defs>
</svg>
