<svg width="1348" height="459" viewBox="0 0 1348 459" fill="none" xmlns="http://www.w3.org/2000/svg">
<rect width="1348" height="459" rx="14" fill="#171201"/>
<path d="M408.86 241V218.6H413.148L422.684 234.408H420.412L429.788 218.6H434.044L434.108 241H429.244L429.212 226.056H430.108L422.62 238.632H420.284L412.636 226.056H413.724V241H408.86ZM447.582 241.256C445.748 241.256 444.116 240.872 442.686 240.104C441.278 239.336 440.158 238.291 439.326 236.968C438.516 235.624 438.11 234.099 438.11 232.392C438.11 230.664 438.516 229.139 439.326 227.816C440.158 226.472 441.278 225.427 442.686 224.68C444.116 223.912 445.748 223.528 447.582 223.528C449.396 223.528 451.017 223.912 452.446 224.68C453.876 225.427 454.996 226.461 455.806 227.784C456.617 229.107 457.022 230.643 457.022 232.392C457.022 234.099 456.617 235.624 455.806 236.968C454.996 238.291 453.876 239.336 452.446 240.104C451.017 240.872 449.396 241.256 447.582 241.256ZM447.582 237.16C448.414 237.16 449.161 236.968 449.822 236.584C450.484 236.2 451.006 235.656 451.39 234.952C451.774 234.227 451.966 233.373 451.966 232.392C451.966 231.389 451.774 230.536 451.39 229.832C451.006 229.128 450.484 228.584 449.822 228.2C449.161 227.816 448.414 227.624 447.582 227.624C446.75 227.624 446.004 227.816 445.342 228.2C444.681 228.584 444.148 229.128 443.742 229.832C443.358 230.536 443.166 231.389 443.166 232.392C443.166 233.373 443.358 234.227 443.742 234.952C444.148 235.656 444.681 236.2 445.342 236.584C446.004 236.968 446.75 237.16 447.582 237.16ZM467.719 241.256C465.692 241.256 464.114 240.744 462.983 239.72C461.852 238.675 461.287 237.128 461.287 235.08V219.976H466.279V235.016C466.279 235.741 466.471 236.307 466.855 236.712C467.239 237.096 467.762 237.288 468.423 237.288C469.212 237.288 469.884 237.075 470.439 236.648L471.783 240.168C471.271 240.531 470.652 240.808 469.927 241C469.223 241.171 468.487 241.256 467.719 241.256ZM458.631 228.008V224.168H470.567V228.008H458.631ZM474.905 241V223.784H479.897V241H474.905ZM477.401 221.384C476.484 221.384 475.737 221.117 475.161 220.584C474.585 220.051 474.297 219.389 474.297 218.6C474.297 217.811 474.585 217.149 475.161 216.616C475.737 216.083 476.484 215.816 477.401 215.816C478.319 215.816 479.065 216.072 479.641 216.584C480.217 217.075 480.505 217.715 480.505 218.504C480.505 219.336 480.217 220.029 479.641 220.584C479.087 221.117 478.34 221.384 477.401 221.384ZM493.042 241.256C491.208 241.256 489.576 240.872 488.146 240.104C486.738 239.336 485.618 238.291 484.786 236.968C483.976 235.624 483.57 234.099 483.57 232.392C483.57 230.664 483.976 229.139 484.786 227.816C485.618 226.472 486.738 225.427 488.146 224.68C489.576 223.912 491.208 223.528 493.042 223.528C494.856 223.528 496.477 223.912 497.906 224.68C499.336 225.427 500.456 226.461 501.266 227.784C502.077 229.107 502.482 230.643 502.482 232.392C502.482 234.099 502.077 235.624 501.266 236.968C500.456 238.291 499.336 239.336 497.906 240.104C496.477 240.872 494.856 241.256 493.042 241.256ZM493.042 237.16C493.874 237.16 494.621 236.968 495.282 236.584C495.944 236.2 496.466 235.656 496.85 234.952C497.234 234.227 497.426 233.373 497.426 232.392C497.426 231.389 497.234 230.536 496.85 229.832C496.466 229.128 495.944 228.584 495.282 228.2C494.621 227.816 493.874 227.624 493.042 227.624C492.21 227.624 491.464 227.816 490.802 228.2C490.141 228.584 489.608 229.128 489.202 229.832C488.818 230.536 488.626 231.389 488.626 232.392C488.626 233.373 488.818 234.227 489.202 234.952C489.608 235.656 490.141 236.2 490.802 236.584C491.464 236.968 492.21 237.16 493.042 237.16ZM516.603 223.528C517.968 223.528 519.184 223.805 520.251 224.36C521.339 224.893 522.192 225.725 522.811 226.856C523.43 227.965 523.739 229.395 523.739 231.144V241H518.747V231.912C518.747 230.525 518.438 229.501 517.819 228.84C517.222 228.179 516.368 227.848 515.259 227.848C514.47 227.848 513.755 228.019 513.115 228.36C512.496 228.68 512.006 229.181 511.643 229.864C511.302 230.547 511.131 231.421 511.131 232.488V241H506.139V223.784H510.907V228.552L510.011 227.112C510.63 225.96 511.515 225.075 512.667 224.456C513.819 223.837 515.131 223.528 516.603 223.528ZM535.374 241L545.358 218.6H550.478L560.494 241H555.054L546.862 221.224H548.91L540.686 241H535.374ZM540.366 236.2L541.742 232.264H553.262L554.67 236.2H540.366ZM584.834 223.528C586.2 223.528 587.405 223.805 588.45 224.36C589.517 224.893 590.349 225.725 590.946 226.856C591.565 227.965 591.874 229.395 591.874 231.144V241H586.882V231.912C586.882 230.525 586.594 229.501 586.018 228.84C585.442 228.179 584.632 227.848 583.586 227.848C582.861 227.848 582.21 228.019 581.634 228.36C581.058 228.68 580.61 229.171 580.29 229.832C579.97 230.493 579.81 231.336 579.81 232.36V241H574.818V231.912C574.818 230.525 574.53 229.501 573.954 228.84C573.4 228.179 572.6 227.848 571.554 227.848C570.829 227.848 570.178 228.019 569.602 228.36C569.026 228.68 568.578 229.171 568.258 229.832C567.938 230.493 567.778 231.336 567.778 232.36V241H562.786V223.784H567.554V228.488L566.658 227.112C567.256 225.939 568.098 225.053 569.186 224.456C570.296 223.837 571.554 223.528 572.962 223.528C574.541 223.528 575.917 223.933 577.09 224.744C578.285 225.533 579.074 226.749 579.458 228.392L577.698 227.912C578.274 226.568 579.192 225.501 580.45 224.712C581.73 223.923 583.192 223.528 584.834 223.528ZM606.845 241.256C605.394 241.256 604.125 240.936 603.037 240.296C601.949 239.656 601.096 238.685 600.477 237.384C599.88 236.061 599.581 234.397 599.581 232.392C599.581 230.365 599.869 228.701 600.445 227.4C601.021 226.099 601.853 225.128 602.941 224.488C604.029 223.848 605.33 223.528 606.845 223.528C608.466 223.528 609.917 223.901 611.197 224.648C612.498 225.373 613.522 226.397 614.269 227.72C615.037 229.043 615.421 230.6 615.421 232.392C615.421 234.205 615.037 235.773 614.269 237.096C613.522 238.419 612.498 239.443 611.197 240.168C609.917 240.893 608.466 241.256 606.845 241.256ZM596.669 247.208V223.784H601.437V227.304L601.341 232.424L601.661 237.512V247.208H596.669ZM605.981 237.16C606.813 237.16 607.549 236.968 608.189 236.584C608.85 236.2 609.373 235.656 609.757 234.952C610.162 234.227 610.365 233.373 610.365 232.392C610.365 231.389 610.162 230.536 609.757 229.832C609.373 229.128 608.85 228.584 608.189 228.2C607.549 227.816 606.813 227.624 605.981 227.624C605.149 227.624 604.402 227.816 603.741 228.2C603.08 228.584 602.557 229.128 602.173 229.832C601.789 230.536 601.597 231.389 601.597 232.392C601.597 233.373 601.789 234.227 602.173 234.952C602.557 235.656 603.08 236.2 603.741 236.584C604.402 236.968 605.149 237.16 605.981 237.16ZM619.083 241V217.256H624.075V241H619.083ZM629.028 241V223.784H634.02V241H629.028ZM631.524 221.384C630.606 221.384 629.86 221.117 629.284 220.584C628.708 220.051 628.42 219.389 628.42 218.6C628.42 217.811 628.708 217.149 629.284 216.616C629.86 216.083 630.606 215.816 631.524 215.816C632.441 215.816 633.188 216.072 633.764 216.584C634.34 217.075 634.628 217.715 634.628 218.504C634.628 219.336 634.34 220.029 633.764 220.584C633.209 221.117 632.462 221.384 631.524 221.384ZM639.581 241V223.4C639.581 221.459 640.157 219.912 641.309 218.76C642.461 217.587 644.103 217 646.237 217C646.962 217 647.655 217.075 648.317 217.224C648.999 217.373 649.575 217.608 650.045 217.928L648.733 221.544C648.455 221.352 648.146 221.203 647.805 221.096C647.463 220.989 647.101 220.936 646.717 220.936C645.991 220.936 645.426 221.149 645.021 221.576C644.637 221.981 644.445 222.6 644.445 223.432V225.032L644.573 227.176V241H639.581ZM636.925 228.008V224.168H648.861V228.008H636.925ZM651.677 241V223.784H656.669V241H651.677ZM654.173 221.384C653.255 221.384 652.509 221.117 651.933 220.584C651.357 220.051 651.069 219.389 651.069 218.6C651.069 217.811 651.357 217.149 651.933 216.616C652.509 216.083 653.255 215.816 654.173 215.816C655.09 215.816 655.837 216.072 656.413 216.584C656.989 217.075 657.277 217.715 657.277 218.504C657.277 219.336 656.989 220.029 656.413 220.584C655.858 221.117 655.111 221.384 654.173 221.384ZM669.925 241.256C668.069 241.256 666.416 240.883 664.965 240.136C663.515 239.368 662.373 238.312 661.541 236.968C660.731 235.624 660.325 234.099 660.325 232.392C660.325 230.664 660.731 229.139 661.541 227.816C662.373 226.472 663.515 225.427 664.965 224.68C666.416 223.912 668.069 223.528 669.925 223.528C671.739 223.528 673.317 223.912 674.661 224.68C676.005 225.427 676.997 226.504 677.637 227.912L673.765 229.992C673.317 229.181 672.752 228.584 672.069 228.2C671.408 227.816 670.683 227.624 669.893 227.624C669.04 227.624 668.272 227.816 667.589 228.2C666.907 228.584 666.363 229.128 665.957 229.832C665.573 230.536 665.381 231.389 665.381 232.392C665.381 233.395 665.573 234.248 665.957 234.952C666.363 235.656 666.907 236.2 667.589 236.584C668.272 236.968 669.04 237.16 669.893 237.16C670.683 237.16 671.408 236.979 672.069 236.616C672.752 236.232 673.317 235.624 673.765 234.792L677.637 236.904C676.997 238.291 676.005 239.368 674.661 240.136C673.317 240.883 671.739 241.256 669.925 241.256ZM691.391 241V237.64L691.071 236.904V230.888C691.071 229.821 690.741 228.989 690.079 228.392C689.439 227.795 688.447 227.496 687.103 227.496C686.186 227.496 685.279 227.645 684.383 227.944C683.509 228.221 682.762 228.605 682.143 229.096L680.351 225.608C681.29 224.947 682.421 224.435 683.743 224.072C685.066 223.709 686.41 223.528 687.775 223.528C690.399 223.528 692.437 224.147 693.887 225.384C695.338 226.621 696.063 228.552 696.063 231.176V241H691.391ZM686.143 241.256C684.799 241.256 683.647 241.032 682.687 240.584C681.727 240.115 680.991 239.485 680.479 238.696C679.967 237.907 679.711 237.021 679.711 236.04C679.711 235.016 679.957 234.12 680.447 233.352C680.959 232.584 681.759 231.987 682.847 231.56C683.935 231.112 685.354 230.888 687.103 230.888H691.679V233.8H687.647C686.474 233.8 685.663 233.992 685.215 234.376C684.789 234.76 684.575 235.24 684.575 235.816C684.575 236.456 684.821 236.968 685.311 237.352C685.823 237.715 686.517 237.896 687.391 237.896C688.223 237.896 688.97 237.704 689.631 237.32C690.293 236.915 690.773 236.328 691.071 235.56L691.839 237.864C691.477 238.973 690.815 239.816 689.855 240.392C688.895 240.968 687.658 241.256 686.143 241.256ZM707.941 241.256C705.915 241.256 704.336 240.744 703.205 239.72C702.075 238.675 701.509 237.128 701.509 235.08V219.976H706.501V235.016C706.501 235.741 706.693 236.307 707.077 236.712C707.461 237.096 707.984 237.288 708.645 237.288C709.435 237.288 710.107 237.075 710.661 236.648L712.005 240.168C711.493 240.531 710.875 240.808 710.149 241C709.445 241.171 708.709 241.256 707.941 241.256ZM698.853 228.008V224.168H710.789V228.008H698.853ZM715.128 241V223.784H720.12V241H715.128ZM717.624 221.384C716.706 221.384 715.96 221.117 715.384 220.584C714.808 220.051 714.52 219.389 714.52 218.6C714.52 217.811 714.808 217.149 715.384 216.616C715.96 216.083 716.706 215.816 717.624 215.816C718.541 215.816 719.288 216.072 719.864 216.584C720.44 217.075 720.728 217.715 720.728 218.504C720.728 219.336 720.44 220.029 719.864 220.584C719.309 221.117 718.562 221.384 717.624 221.384ZM733.265 241.256C731.43 241.256 729.798 240.872 728.369 240.104C726.961 239.336 725.841 238.291 725.009 236.968C724.198 235.624 723.793 234.099 723.793 232.392C723.793 230.664 724.198 229.139 725.009 227.816C725.841 226.472 726.961 225.427 728.369 224.68C729.798 223.912 731.43 223.528 733.265 223.528C735.078 223.528 736.699 223.912 738.129 224.68C739.558 225.427 740.678 226.461 741.489 227.784C742.299 229.107 742.705 230.643 742.705 232.392C742.705 234.099 742.299 235.624 741.489 236.968C740.678 238.291 739.558 239.336 738.129 240.104C736.699 240.872 735.078 241.256 733.265 241.256ZM733.265 237.16C734.097 237.16 734.843 236.968 735.505 236.584C736.166 236.2 736.689 235.656 737.073 234.952C737.457 234.227 737.649 233.373 737.649 232.392C737.649 231.389 737.457 230.536 737.073 229.832C736.689 229.128 736.166 228.584 735.505 228.2C734.843 227.816 734.097 227.624 733.265 227.624C732.433 227.624 731.686 227.816 731.025 228.2C730.363 228.584 729.83 229.128 729.425 229.832C729.041 230.536 728.849 231.389 728.849 232.392C728.849 233.373 729.041 234.227 729.425 234.952C729.83 235.656 730.363 236.2 731.025 236.584C731.686 236.968 732.433 237.16 733.265 237.16ZM756.825 223.528C758.191 223.528 759.407 223.805 760.473 224.36C761.561 224.893 762.415 225.725 763.033 226.856C763.652 227.965 763.961 229.395 763.961 231.144V241H758.969V231.912C758.969 230.525 758.66 229.501 758.041 228.84C757.444 228.179 756.591 227.848 755.481 227.848C754.692 227.848 753.977 228.019 753.337 228.36C752.719 228.68 752.228 229.181 751.865 229.864C751.524 230.547 751.353 231.421 751.353 232.488V241H746.361V223.784H751.129V228.552L750.233 227.112C750.852 225.96 751.737 225.075 752.889 224.456C754.041 223.837 755.353 223.528 756.825 223.528Z" fill="url(#paint0_linear_946_3575)"/>
<path d="M783.917 241L776.589 218.6H781.965L788.333 238.44H785.645L792.301 218.6H797.101L803.501 238.44H800.909L807.437 218.6H812.397L805.069 241H799.501L793.837 223.592H795.309L789.485 241H783.917ZM826.192 223.528C827.557 223.528 828.773 223.805 829.84 224.36C830.928 224.893 831.781 225.725 832.4 226.856C833.018 227.965 833.328 229.395 833.328 231.144V241H828.336V231.912C828.336 230.525 828.026 229.501 827.408 228.84C826.81 228.179 825.957 227.848 824.848 227.848C824.058 227.848 823.344 228.019 822.704 228.36C822.085 228.68 821.594 229.181 821.232 229.864C820.89 230.547 820.72 231.421 820.72 232.488V241H815.728V217.256H820.72V228.552L819.6 227.112C820.218 225.96 821.104 225.075 822.256 224.456C823.408 223.837 824.72 223.528 826.192 223.528ZM848.733 241V237.64L848.413 236.904V230.888C848.413 229.821 848.082 228.989 847.421 228.392C846.781 227.795 845.789 227.496 844.445 227.496C843.527 227.496 842.621 227.645 841.725 227.944C840.85 228.221 840.103 228.605 839.485 229.096L837.693 225.608C838.631 224.947 839.762 224.435 841.085 224.072C842.407 223.709 843.751 223.528 845.117 223.528C847.741 223.528 849.778 224.147 851.229 225.384C852.679 226.621 853.405 228.552 853.405 231.176V241H848.733ZM843.485 241.256C842.141 241.256 840.989 241.032 840.029 240.584C839.069 240.115 838.333 239.485 837.821 238.696C837.309 237.907 837.053 237.021 837.053 236.04C837.053 235.016 837.298 234.12 837.789 233.352C838.301 232.584 839.101 231.987 840.189 231.56C841.277 231.112 842.695 230.888 844.445 230.888H849.021V233.8H844.989C843.815 233.8 843.005 233.992 842.557 234.376C842.13 234.76 841.917 235.24 841.917 235.816C841.917 236.456 842.162 236.968 842.653 237.352C843.165 237.715 843.858 237.896 844.733 237.896C845.565 237.896 846.311 237.704 846.973 237.32C847.634 236.915 848.114 236.328 848.413 235.56L849.181 237.864C848.818 238.973 848.157 239.816 847.197 240.392C846.237 240.968 844.999 241.256 843.485 241.256ZM865.283 241.256C863.256 241.256 861.677 240.744 860.547 239.72C859.416 238.675 858.851 237.128 858.851 235.08V219.976H863.843V235.016C863.843 235.741 864.035 236.307 864.419 236.712C864.803 237.096 865.325 237.288 865.987 237.288C866.776 237.288 867.448 237.075 868.003 236.648L869.347 240.168C868.835 240.531 868.216 240.808 867.491 241C866.787 241.171 866.051 241.256 865.283 241.256ZM856.195 228.008V224.168H868.131V228.008H856.195ZM882.203 241V218.6H887.387V241H882.203ZM898.463 241.256C896.991 241.256 895.573 241.085 894.207 240.744C892.863 240.381 891.797 239.933 891.007 239.4L892.671 235.816C893.461 236.307 894.389 236.712 895.455 237.032C896.543 237.331 897.61 237.48 898.655 237.48C899.807 237.48 900.618 237.341 901.087 237.064C901.578 236.787 901.823 236.403 901.823 235.912C901.823 235.507 901.631 235.208 901.247 235.016C900.885 234.803 900.394 234.643 899.775 234.536C899.157 234.429 898.474 234.323 897.727 234.216C897.002 234.109 896.266 233.971 895.519 233.8C894.773 233.608 894.09 233.331 893.471 232.968C892.853 232.605 892.351 232.115 891.967 231.496C891.605 230.877 891.423 230.077 891.423 229.096C891.423 228.008 891.733 227.048 892.351 226.216C892.991 225.384 893.909 224.733 895.103 224.264C896.298 223.773 897.727 223.528 899.391 223.528C900.565 223.528 901.759 223.656 902.975 223.912C904.191 224.168 905.205 224.541 906.015 225.032L904.351 228.584C903.519 228.093 902.677 227.763 901.823 227.592C900.991 227.4 900.181 227.304 899.391 227.304C898.282 227.304 897.471 227.453 896.959 227.752C896.447 228.051 896.191 228.435 896.191 228.904C896.191 229.331 896.373 229.651 896.735 229.864C897.119 230.077 897.621 230.248 898.239 230.376C898.858 230.504 899.53 230.621 900.255 230.728C901.002 230.813 901.749 230.952 902.495 231.144C903.242 231.336 903.914 231.613 904.511 231.976C905.13 232.317 905.631 232.797 906.015 233.416C906.399 234.013 906.591 234.803 906.591 235.784C906.591 236.851 906.271 237.8 905.631 238.632C904.991 239.443 904.063 240.083 902.847 240.552C901.653 241.021 900.191 241.256 898.463 241.256ZM919.726 241V218.6H924.91V241H919.726ZM937.234 241.256C935.207 241.256 933.629 240.744 932.498 239.72C931.367 238.675 930.802 237.128 930.802 235.08V219.976H935.794V235.016C935.794 235.741 935.986 236.307 936.37 236.712C936.754 237.096 937.277 237.288 937.938 237.288C938.727 237.288 939.399 237.075 939.954 236.648L941.298 240.168C940.786 240.531 940.167 240.808 939.442 241C938.738 241.171 938.002 241.256 937.234 241.256ZM928.146 228.008V224.168H940.082V228.008H928.146Z" fill="white"/>
<defs>
<linearGradient id="paint0_linear_946_3575" x1="-213.415" y1="229.5" x2="740.689" y2="229.5" gradientUnits="userSpaceOnUse">
<stop stop-color="#FAD133"/>
<stop offset="1" stop-color="#FDF0BB"/>
</linearGradient>
</defs>
</svg>
