<svg width="24" height="113" viewBox="0 0 24 113" fill="none" xmlns="http://www.w3.org/2000/svg">
<path d="M13.9951 2.91309C13.9951 1.80852 13.0997 0.913086 11.9951 0.913086C10.8905 0.913086 9.99512 1.80852 9.99512 2.91309L11.9951 2.91309L13.9951 2.91309ZM11.9951 112.913L23.5421 92.9131L0.448108 92.9131L11.9951 112.913ZM11.9951 2.91309L9.99512 2.91309C9.99512 2.9347 9.99512 2.95639 9.99512 2.97813C9.99512 2.99988 9.99512 3.02169 9.99512 3.04356C9.99512 3.06544 9.99512 3.08738 9.99512 3.10938C9.99512 3.13138 9.99512 3.15345 9.99512 3.17558C9.99512 3.19771 9.99512 3.21991 9.99512 3.24216C9.99512 3.26442 9.99512 3.28675 9.99512 3.30914C9.99512 3.33152 9.99512 3.35398 9.99512 3.37649C9.99512 3.39901 9.99512 3.42159 9.99512 3.44424C9.99512 3.46688 9.99512 3.4896 9.99512 3.51237C9.99512 3.53515 9.99512 3.55798 9.99512 3.58089C9.99512 3.60379 9.99512 3.62676 9.99512 3.6498C9.99512 3.67283 9.99512 3.69593 9.99512 3.71909C9.99512 3.74225 9.99512 3.76548 9.99512 3.78877C9.99512 3.81207 9.99512 3.83542 9.99512 3.85884C9.99512 3.88227 9.99512 3.90575 9.99512 3.92931C9.99512 3.95286 9.99512 3.97647 9.99512 4.00016C9.99512 4.02384 9.99512 4.04759 9.99512 4.0714C9.99512 4.09521 9.99512 4.11909 9.99512 4.14303C9.99512 4.16697 9.99512 4.19098 9.99512 4.21505C9.99512 4.23912 9.99512 4.26326 9.99512 4.28746C9.99512 4.31167 9.99512 4.33593 9.99512 4.36027C9.99512 4.3846 9.99512 4.409 9.99512 4.43346C9.99512 4.45793 9.99512 4.48246 9.99512 4.50705C9.99512 4.53165 9.99512 4.55631 9.99512 4.58103C9.99512 4.60576 9.99512 4.63055 9.99512 4.65541C9.99512 4.68026 9.99512 4.70519 9.99512 4.73017C9.99512 4.75516 9.99512 4.78022 9.99512 4.80534C9.99512 4.83045 9.99512 4.85564 9.99512 4.88089C9.99512 4.90614 9.99512 4.93146 9.99512 4.95684C9.99512 4.98222 9.99512 5.00767 9.99512 5.03319C9.99512 5.0587 9.99512 5.08428 9.99512 5.10993C9.99512 5.13557 9.99512 5.16128 9.99512 5.18706C9.99512 5.21284 9.99512 5.23868 9.99512 5.26459C9.99512 5.2905 9.99512 5.31648 9.99512 5.34252C9.99512 5.36856 9.99512 5.39467 9.99512 5.42085C9.99512 5.44702 9.99512 5.47326 9.99512 5.49957C9.99512 5.52588 9.99512 5.55225 9.99512 5.57869C9.99512 5.60513 9.99512 5.63163 9.99512 5.65821C9.99512 5.68478 9.99512 5.71142 9.99512 5.73812C9.99512 5.76483 9.99512 5.7916 9.99512 5.81844C9.99512 5.84527 9.99512 5.87218 9.99512 5.89915C9.99512 5.92612 9.99512 5.95316 9.99512 5.98026C9.99512 6.00737 9.99512 6.03454 9.99512 6.06178C9.99512 6.08901 9.99512 6.11632 9.99512 6.14369C9.99512 6.17106 9.99512 6.1985 9.99512 6.226C9.99512 6.25351 9.99512 6.28108 9.99512 6.30872C9.99512 6.33636 9.99512 6.36406 9.99512 6.39184C9.99512 6.41961 9.99512 6.44745 9.99512 6.47535C9.99512 6.50326 9.99512 6.53123 9.99512 6.55927C9.99512 6.58731 9.99512 6.61542 9.99512 6.6436C9.99512 6.67177 9.99512 6.70001 9.99512 6.72832C9.99512 6.75663 9.99512 6.78501 9.99512 6.81345C9.99512 6.84189 9.99512 6.8704 9.99512 6.89898C9.99512 6.92756 9.99512 6.9562 9.99512 6.98492C9.99512 7.01363 9.99512 7.04241 9.99512 7.07126C9.99512 7.10011 9.99512 7.12902 9.99512 7.158C9.99512 7.18699 9.99512 7.21604 9.99512 7.24515C9.99512 7.27427 9.99512 7.30346 9.99512 7.33271C9.99512 7.36196 9.99512 7.39128 9.99512 7.42067C9.99512 7.45006 9.99512 7.47952 9.99512 7.50904C9.99512 7.53856 9.99512 7.56816 9.99512 7.59781C9.99512 7.62747 9.99512 7.6572 9.99512 7.687C9.99512 7.71679 9.99512 7.74665 9.99512 7.77659C9.99512 7.80652 9.99512 7.83652 9.99512 7.86658C9.99512 7.89665 9.99512 7.92678 9.99512 7.95699C9.99512 7.98719 9.99512 8.01746 9.99512 8.0478C9.99512 8.07814 9.99512 8.10855 9.99512 8.13902C9.99512 8.1695 9.99512 8.20004 9.99512 8.23066C9.99512 8.26127 9.99512 8.29195 9.99512 8.3227C9.99512 8.35345 9.99512 8.38426 9.99512 8.41515C9.99512 8.44603 9.99512 8.47699 9.99512 8.50801C9.99512 8.53903 9.99512 8.57013 9.99512 8.60128C9.99512 8.63244 9.99512 8.66367 9.99512 8.69497C9.99512 8.72627 9.99512 8.75763 9.99512 8.78906C9.99512 8.8205 9.99512 8.852 9.99512 8.88357C9.99512 8.91514 9.99512 8.94678 9.99512 8.97849C9.99512 9.0102 9.99512 9.04198 9.99512 9.07382C9.99512 9.10567 9.99512 9.13759 9.99512 9.16957C9.99512 9.20155 9.99512 9.23361 9.99512 9.26573C9.99512 9.29785 9.99512 9.33004 9.99512 9.3623C9.99512 9.39456 9.99512 9.42689 9.99512 9.45929C9.99512 9.49169 9.99512 9.52416 9.99512 9.55669C9.99512 9.58923 9.99512 9.62183 9.99512 9.65451C9.99512 9.68718 9.99512 9.71993 9.99512 9.75274C9.99512 9.78555 9.99512 9.81844 9.99512 9.85139C9.99512 9.88434 9.99512 9.91736 9.99512 9.95045C9.99512 9.98354 9.99512 10.0167 9.99512 10.0499C9.99512 10.0832 9.99512 10.1165 9.99512 10.1498C9.99512 10.1832 9.99512 10.2166 9.99512 10.2501C9.99512 10.2837 9.99512 10.3172 9.99512 10.3509C9.99512 10.3845 9.99512 10.4182 9.99512 10.452C9.99512 10.4858 9.99512 10.5197 9.99512 10.5536C9.99512 10.5875 9.99512 10.6215 9.99512 10.6556C9.99512 10.6897 9.99512 10.7238 9.99512 10.758C9.99512 10.7922 9.99512 10.8265 9.99512 10.8608C9.99512 10.8952 9.99512 10.9296 9.99512 10.9641C9.99512 10.9986 9.99512 11.0331 9.99512 11.0677C9.99512 11.1024 9.99512 11.1371 9.99512 11.1718C9.99512 11.2066 9.99512 11.2414 9.99512 11.2763C9.99512 11.3112 9.99512 11.3462 9.99512 11.3813C9.99512 11.4163 9.99512 11.4514 9.99512 11.4866C9.99512 11.5218 9.99512 11.5571 9.99512 11.5924C9.99512 11.6277 9.99512 11.6631 9.99512 11.6986C9.99512 11.734 9.99512 11.7696 9.99512 11.8052C9.99512 11.8408 9.99512 11.8765 9.99512 11.9122C9.99512 11.948 9.99512 11.9838 9.99512 12.0197C9.99512 12.0556 9.99512 12.0916 9.99512 12.1276C9.99512 12.1636 9.99512 12.1997 9.99512 12.2359C9.99512 12.2721 9.99512 12.3083 9.99512 12.3447C9.99512 12.381 9.99512 12.4174 9.99512 12.4538C9.99512 12.4903 9.99512 12.5268 9.99512 12.5634C9.99512 12.6 9.99512 12.6367 9.99512 12.6734C9.99512 12.7102 9.99512 12.747 9.99512 12.7839C9.99512 12.8207 9.99512 12.8577 9.99512 12.8947C9.99512 12.9318 9.99512 12.9689 9.99512 13.006C9.99512 13.0432 9.99512 13.0804 9.99512 13.1178C9.99512 13.1551 9.99512 13.1925 9.99512 13.2299C9.99512 13.2674 9.99512 13.3049 9.99512 13.3425C9.99512 13.3801 9.99512 13.4178 9.99512 13.4555C9.99512 13.4932 9.99512 13.531 9.99512 13.5689C9.99512 13.6068 9.99512 13.6448 9.99512 13.6828C9.99512 13.7208 9.99512 13.7589 9.99512 13.7971C9.99512 13.8353 9.99512 13.8735 9.99512 13.9118C9.99512 13.9501 9.99512 13.9885 9.99512 14.027C9.99512 14.0654 9.99512 14.104 9.99512 14.1426C9.99512 14.1812 9.99512 14.2198 9.99512 14.2586C9.99512 14.2973 9.99512 14.3362 9.99512 14.375C9.99512 14.4139 9.99512 14.4529 9.99512 14.4919C9.99512 14.531 9.99512 14.5701 9.99512 14.6092C9.99512 14.6484 9.99512 14.6877 9.99512 14.727C9.99512 14.7663 9.99512 14.8057 9.99512 14.8452C9.99512 14.8846 9.99512 14.9242 9.99512 14.9638C9.99512 15.0034 9.99512 15.0431 9.99512 15.0828C9.99512 15.1226 9.99512 15.1624 9.99512 15.2023C9.99512 15.2422 9.99512 15.2822 9.99512 15.3222C9.99512 15.3623 9.99512 15.4024 9.99512 15.4426C9.99512 15.4828 9.99512 15.523 9.99512 15.5634C9.99512 15.6037 9.99512 15.6441 9.99512 15.6846C9.99512 15.7251 9.99512 15.7656 9.99512 15.8063C9.99512 15.8469 9.99512 15.8876 9.99512 15.9284C9.99512 15.9691 9.99512 16.01 9.99512 16.0509C9.99512 16.0918 9.99512 16.1328 9.99512 16.1739C9.99512 16.2149 9.99512 16.2561 9.99512 16.2973C9.99512 16.3385 9.99512 16.3798 9.99512 16.4211C9.99512 16.4625 9.99512 16.5039 9.99512 16.5454C9.99512 16.5869 9.99512 16.6285 9.99512 16.6701C9.99512 16.7118 9.99512 16.7535 9.99512 16.7953C9.99512 16.8371 9.99512 16.879 9.99512 16.9209C9.99512 16.9628 9.99512 17.0049 9.99512 17.0469C9.99512 17.089 9.99512 17.1312 9.99512 17.1734C9.99512 17.2157 9.99512 17.258 9.99512 17.3004C9.99512 17.3427 9.99512 17.3852 9.99512 17.4277C9.99512 17.4703 9.99512 17.5129 9.99512 17.5555C9.99512 17.5982 9.99512 17.641 9.99512 17.6838C9.99512 17.7266 9.99512 17.7695 9.99512 17.8125C9.99512 17.8554 9.99512 17.8985 9.99512 17.9416C9.99512 17.9847 9.99512 18.0279 9.99512 18.0712C9.99512 18.1144 9.99512 18.1578 9.99512 18.2012C9.99512 18.2446 9.99512 18.2881 9.99512 18.3317C9.99512 18.3752 9.99512 18.4189 9.99512 18.4626C9.99512 18.5063 9.99512 18.5501 9.99512 18.5939C9.99512 18.6378 9.99512 18.6817 9.99512 18.7257C9.99512 18.7697 9.99512 18.8138 9.99512 18.858C9.99512 18.9021 9.99512 18.9464 9.99512 18.9907C9.99512 19.035 9.99512 19.0793 9.99512 19.1238C9.99512 19.1682 9.99512 19.2128 9.99512 19.2574C9.99512 19.302 9.99512 19.3467 9.99512 19.3914C9.99512 19.4362 9.99512 19.481 9.99512 19.5259C9.99512 19.5708 9.99512 19.6158 9.99512 19.6608C9.99512 19.7059 9.99512 19.751 9.99512 19.7962C9.99512 19.8414 9.99512 19.8866 9.99512 19.932C9.99512 19.9773 9.99512 20.0228 9.99512 20.0683C9.99512 20.1138 9.99512 20.1593 9.99512 20.205C9.99512 20.2506 9.99512 20.2963 9.99512 20.3421C9.99512 20.3879 9.99512 20.4338 9.99512 20.4798C9.99512 20.5257 9.99512 20.5717 9.99512 20.6178C9.99512 20.6639 9.99512 20.7101 9.99512 20.7563C9.99512 20.8026 9.99512 20.8489 9.99512 20.8953C9.99512 20.9417 9.99512 20.9882 9.99512 21.0347C9.99512 21.0813 9.99512 21.1279 9.99512 21.1746C9.99512 21.2213 9.99512 21.2681 9.99512 21.3149C9.99512 21.3618 9.99512 21.4087 9.99512 21.4557C9.99512 21.5027 9.99512 21.5498 9.99512 21.5969C9.99512 21.6441 9.99512 21.6913 9.99512 21.7386C9.99512 21.7859 9.99512 21.8333 9.99512 21.8807C9.99512 21.9282 9.99512 21.9757 9.99512 22.0233C9.99512 22.0709 9.99512 22.1186 9.99512 22.1664C9.99512 22.2141 9.99512 22.262 9.99512 22.3099C9.99512 22.3578 9.99512 22.4058 9.99512 22.4538C9.99512 22.5019 9.99512 22.55 9.99512 22.5982C9.99512 22.6465 9.99512 22.6947 9.99512 22.7431C9.99512 22.7915 9.99512 22.8399 9.99512 22.8884C9.99512 22.9369 9.99512 22.9855 9.99512 23.0342C9.99512 23.0829 9.99512 23.1316 9.99512 23.1804C9.99512 23.2293 9.99512 23.2782 9.99512 23.3271C9.99512 23.3761 9.99512 23.4252 9.99512 23.4743C9.99512 23.5234 9.99512 23.5726 9.99512 23.6219C9.99512 23.6712 9.99512 23.7205 9.99512 23.77C9.99512 23.8194 9.99512 23.8689 9.99512 23.9185C9.99512 23.9681 9.99512 24.0177 9.99512 24.0675C9.99512 24.1172 9.99512 24.167 9.99512 24.2169C9.99512 24.2668 9.99512 24.3168 9.99512 24.3668C9.99512 24.4169 9.99512 24.467 9.99512 24.5172C9.99512 24.5674 9.99512 24.6177 9.99512 24.668C9.99512 24.7184 9.99512 24.7688 9.99512 24.8193C9.99512 24.8698 9.99512 24.9204 9.99512 24.9711C9.99512 25.0217 9.99512 25.0725 9.99512 25.1233C9.99512 25.1741 9.99512 25.225 9.99512 25.2759C9.99512 25.3269 9.99512 25.378 9.99512 25.4291C9.99512 25.4802 9.99512 25.5314 9.99512 25.5827C9.99512 25.634 9.99512 25.6853 9.99512 25.7367C9.99512 25.7882 9.99512 25.8397 9.99512 25.8913C9.99512 25.9429 9.99512 25.9945 9.99512 26.0463C9.99512 26.098 9.99512 26.1498 9.99512 26.2017C9.99512 26.2536 9.99512 26.3056 9.99512 26.3576C9.99512 26.4097 9.99512 26.4618 9.99512 26.514C9.99512 26.5662 9.99512 26.6185 9.99512 26.6709C9.99512 26.7232 9.99512 26.7757 9.99512 26.8282C9.99512 26.8807 9.99512 26.9333 9.99512 26.986C9.99512 27.0387 9.99512 27.0914 9.99512 27.1442C9.99512 27.1971 9.99512 27.25 9.99512 27.3029C9.99512 27.3559 9.99512 27.409 9.99512 27.4621C9.99512 27.5153 9.99512 27.5685 9.99512 27.6218C9.99512 27.6751 9.99512 27.7285 9.99512 27.7819C9.99512 27.8354 9.99512 27.8889 9.99512 27.9425C9.99512 27.9961 9.99512 28.0498 9.99512 28.1036C9.99512 28.1573 9.99512 28.2112 9.99512 28.2651C9.99512 28.319 9.99512 28.373 9.99512 28.4271C9.99512 28.4812 9.99512 28.5353 9.99512 28.5896C9.99512 28.6438 9.99512 28.6981 9.99512 28.7525C9.99512 28.8069 9.99512 28.8614 9.99512 28.9159C9.99512 28.9705 9.99512 29.0251 9.99512 29.0798C9.99512 29.1345 9.99512 29.1893 9.99512 29.2442C9.99512 29.299 9.99512 29.354 9.99512 29.409C9.99512 29.464 9.99512 29.5191 9.99512 29.5743C9.99512 29.6295 9.99512 29.6847 9.99512 29.7401C9.99512 29.7954 9.99512 29.8508 9.99512 29.9063C9.99512 29.9618 9.99512 30.0174 9.99512 30.073C9.99512 30.1287 9.99512 30.1844 9.99512 30.2402C9.99512 30.296 9.99512 30.3519 9.99512 30.4079C9.99512 30.4639 9.99512 30.5199 9.99512 30.576C9.99512 30.6322 9.99512 30.6884 9.99512 30.7447C9.99512 30.8009 9.99512 30.8573 9.99512 30.9137C9.99512 30.9702 9.99512 31.0267 9.99512 31.0833C9.99512 31.1399 9.99512 31.1966 9.99512 31.2534C9.99512 31.3101 9.99512 31.367 9.99512 31.4239C9.99512 31.4808 9.99512 31.5378 9.99512 31.5949C9.99512 31.652 9.99512 31.7091 9.99512 31.7664C9.99512 31.8236 9.99512 31.8809 9.99512 31.9383C9.99512 31.9957 9.99512 32.0532 9.99512 32.1108C9.99512 32.1683 9.99512 32.226 9.99512 32.2837C9.99512 32.3414 9.99512 32.3992 9.99512 32.4571C9.99512 32.5149 9.99512 32.5729 9.99512 32.6309C9.99512 32.689 9.99512 32.7471 9.99512 32.8053C9.99512 32.8635 9.99512 32.9218 9.99512 32.9801C9.99512 33.0385 9.99512 33.0969 9.99512 33.1554C9.99512 33.2139 9.99512 33.2725 9.99512 33.3312C9.99512 33.3899 9.99512 33.4487 9.99512 33.5075C9.99512 33.5663 9.99512 33.6253 9.99512 33.6843C9.99512 33.7433 9.99512 33.8023 9.99512 33.8615C9.99512 33.9207 9.99512 33.9799 9.99512 34.0392C9.99512 34.0985 9.99512 34.1579 9.99512 34.2174C9.99512 34.2769 9.99512 34.3365 9.99512 34.3961C9.99512 34.4557 9.99512 34.5155 9.99512 34.5753C9.99512 34.6351 9.99512 34.695 9.99512 34.7549C9.99512 34.8149 9.99512 34.8749 9.99512 34.9351C9.99512 34.9952 9.99512 35.0554 9.99512 35.1157C9.99512 35.176 9.99512 35.2363 9.99512 35.2968C9.99512 35.3572 9.99512 35.4178 9.99512 35.4784C9.99512 35.539 9.99512 35.5997 9.99512 35.6605C9.99512 35.7212 9.99512 35.7821 9.99512 35.843C9.99512 35.904 9.99512 35.965 9.99512 36.0261C9.99512 36.0872 9.99512 36.1484 9.99512 36.2096C9.99512 36.2709 9.99512 36.3322 9.99512 36.3936C9.99512 36.4551 9.99512 36.5166 9.99512 36.5782C9.99512 36.6397 9.99512 36.7014 9.99512 36.7632C9.99512 36.8249 9.99512 36.8867 9.99512 36.9487C9.99512 37.0106 9.99512 37.0726 9.99512 37.1346C9.99512 37.1967 9.99512 37.2589 9.99512 37.3211C9.99512 37.3833 9.99512 37.4457 9.99512 37.5081C9.99512 37.5705 9.99512 37.6329 9.99512 37.6955C9.99512 37.7581 9.99512 37.8207 9.99512 37.8834C9.99512 37.9462 9.99512 38.009 9.99512 38.0719C9.99512 38.1348 9.99512 38.1977 9.99512 38.2608C9.99512 38.3239 9.99512 38.387 9.99512 38.4502C9.99512 38.5134 9.99512 38.5767 9.99512 38.6401C9.99512 38.7035 9.99512 38.767 9.99512 38.8305C9.99512 38.8941 9.99512 38.9577 9.99512 39.0214C9.99512 39.0851 9.99512 39.1489 9.99512 39.2128C9.99512 39.2767 9.99512 39.3406 9.99512 39.4047C9.99512 39.4687 9.99512 39.5328 9.99512 39.597C9.99512 39.6612 9.99512 39.7255 9.99512 39.7899C9.99512 39.8543 9.99512 39.9187 9.99512 39.9832C9.99512 40.0478 9.99512 40.1124 9.99512 40.1771C9.99512 40.2418 9.99512 40.3066 9.99512 40.3715C9.99512 40.4363 9.99512 40.5013 9.99512 40.5663C9.99512 40.6313 9.99512 40.6964 9.99512 40.7616C9.99512 40.8268 9.99512 40.8921 9.99512 40.9575C9.99512 41.0228 9.99512 41.0883 9.99512 41.1538C9.99512 41.2193 9.99512 41.2849 9.99512 41.3506C9.99512 41.4163 9.99512 41.4821 9.99512 41.548C9.99512 41.6138 9.99512 41.6798 9.99512 41.7458C9.99512 41.8118 9.99512 41.8779 9.99512 41.9441C9.99512 42.0103 9.99512 42.0766 9.99512 42.1429C9.99512 42.2093 9.99512 42.2757 9.99512 42.3423C9.99512 42.4088 9.99512 42.4754 9.99512 42.5421C9.99512 42.6088 9.99512 42.6755 9.99512 42.7424C9.99512 42.8093 9.99512 42.8762 9.99512 42.9432C9.99512 43.0103 9.99512 43.0774 9.99512 43.1445C9.99512 43.2117 9.99512 43.279 9.99512 43.3464C9.99512 43.4137 9.99512 43.4812 9.99512 43.5487C9.99512 43.6162 9.99512 43.6838 9.99512 43.7515C9.99512 43.8192 9.99512 43.887 9.99512 43.9548C9.99512 44.0227 9.99512 44.0907 9.99512 44.1587C9.99512 44.2267 9.99512 44.2948 9.99512 44.363C9.99512 44.4312 9.99512 44.4995 9.99512 44.5679C9.99512 44.6362 9.99512 44.7047 9.99512 44.7732C9.99512 44.8417 9.99512 44.9103 9.99512 44.979C9.99512 45.0477 9.99512 45.1165 9.99512 45.1854C9.99512 45.2543 9.99512 45.3232 9.99512 45.3922C9.99512 45.4613 9.99512 45.5304 9.99512 45.5996C9.99512 45.6688 9.99512 45.7381 9.99512 45.8075C9.99512 45.8768 9.99512 45.9463 9.99512 46.0158C9.99512 46.0854 9.99512 46.155 9.99512 46.2247C9.99512 46.2944 9.99512 46.3642 9.99512 46.4341C9.99512 46.504 9.99512 46.5739 9.99512 46.644C9.99512 46.714 9.99512 46.7842 9.99512 46.8544C9.99512 46.9246 9.99512 46.9949 9.99512 47.0653C9.99512 47.1357 9.99512 47.2061 9.99512 47.2767C9.99512 47.3473 9.99512 47.4179 9.99512 47.4886C9.99512 47.5594 9.99512 47.6302 9.99512 47.7011C9.99512 47.772 9.99512 47.8429 9.99512 47.914C9.99512 47.9851 9.99512 48.0562 9.99512 48.1275C9.99512 48.1987 9.99512 48.27 9.99512 48.3414C9.99512 48.4128 9.99512 48.4843 9.99512 48.5559C9.99512 48.6275 9.99512 48.6991 9.99512 48.7709C9.99512 48.8426 9.99512 48.9144 9.99512 48.9864C9.99512 49.0583 9.99512 49.1303 9.99512 49.2024C9.99512 49.2745 9.99512 49.3466 9.99512 49.4189C9.99512 49.4911 9.99512 49.5635 9.99512 49.6359C9.99512 49.7083 9.99512 49.7809 9.99512 49.8535C9.99512 49.9261 9.99512 49.9987 9.99512 50.0715C9.99512 50.1443 9.99512 50.2171 9.99512 50.2901C9.99512 50.363 9.99512 50.436 9.99512 50.5092C9.99512 50.5823 9.99512 50.6555 9.99512 50.7288C9.99512 50.802 9.99512 50.8754 9.99512 50.9489C9.99512 51.0223 9.99512 51.0959 9.99512 51.1695C9.99512 51.2431 9.99512 51.3168 9.99512 51.3906C9.99512 51.4644 9.99512 51.5383 9.99512 51.6123C9.99512 51.6863 9.99512 51.7603 9.99512 51.8345C9.99512 51.9086 9.99512 51.9828 9.99512 52.0572C9.99512 52.1315 9.99512 52.2059 9.99512 52.2804C9.99512 52.3549 9.99512 52.4294 9.99512 52.5041C9.99512 52.5788 9.99512 52.6535 9.99512 52.7283C9.99512 52.8032 9.99512 52.8781 9.99512 52.9531C9.99511 53.0281 9.99511 53.1032 9.99511 53.1784C9.99511 53.2536 9.99511 53.3288 9.99511 53.4042C9.99511 53.4795 9.99511 53.555 9.99511 53.6305C9.99511 53.706 9.99511 53.7816 9.99511 53.8573C9.99511 53.933 9.99511 54.0088 9.99511 54.0847C9.99511 54.1605 9.99511 54.2365 9.99511 54.3126C9.99511 54.3886 9.99511 54.4647 9.99511 54.541C9.99511 54.6172 9.99511 54.6935 9.99511 54.7699C9.99511 54.8463 9.99511 54.9227 9.99511 54.9993C9.99511 55.0759 9.99511 55.1525 9.99511 55.2293C9.99511 55.306 9.99511 55.3828 9.99511 55.4598C9.99511 55.5367 9.99511 55.6137 9.99511 55.6908C9.99511 55.7678 9.99511 55.845 9.99511 55.9223C9.99511 55.9996 9.99511 56.0769 9.99511 56.1543C9.99511 56.2318 9.99511 56.3093 9.99511 56.3869C9.99511 56.4645 9.99511 56.5422 9.99511 56.62C9.99511 56.6978 9.99511 56.7757 9.99511 56.8536C9.99511 56.9316 9.99511 57.0097 9.99511 57.0878C9.99511 57.1659 9.99511 57.2442 9.99511 57.3225C9.99511 57.4008 9.99511 57.4792 9.99511 57.5577C9.99511 57.6362 9.99511 57.7147 9.99511 57.7934C9.99511 57.8721 9.99511 57.9508 9.99511 58.0296C9.99511 58.1085 9.99511 58.1874 9.99511 58.2664C9.99511 58.3454 9.99511 58.4245 9.99511 58.5037C9.99511 58.5829 9.99511 58.6622 9.99511 58.7416C9.99511 58.8209 9.99511 58.9004 9.99511 58.9799C9.99511 59.0595 9.99511 59.1391 9.99511 59.2188C9.99511 59.2985 9.99511 59.3783 9.99511 59.4582C9.99511 59.5381 9.99511 59.6181 9.99511 59.6982C9.99511 59.7783 9.99511 59.8584 9.99511 59.9387C9.99511 60.0189 9.99511 60.0993 9.99511 60.1797C9.99511 60.2601 9.99511 60.3406 9.99511 60.4212C9.99511 60.5018 9.99511 60.5825 9.99511 60.6633C9.99511 60.7441 9.99511 60.8249 9.99511 60.9059C9.99511 60.9868 9.99511 61.0679 9.99511 61.149C9.99511 61.2301 9.99511 61.3114 9.99511 61.3927C9.99511 61.474 9.99511 61.5554 9.99511 61.6369C9.99511 61.7184 9.99511 61.7999 9.99511 61.8816C9.99511 61.9633 9.99511 62.045 9.99511 62.1269C9.99511 62.2087 9.99511 62.2906 9.99511 62.3726C9.99511 62.4547 9.99511 62.5368 9.99511 62.619C9.99511 62.7012 9.99511 62.7835 9.99511 62.8658C9.99511 62.9482 9.99511 63.0307 9.99511 63.1132C9.99511 63.1958 9.99511 63.2784 9.99511 63.3612C9.99511 63.4439 9.99511 63.5267 9.99511 63.6096C9.99511 63.6925 9.99511 63.7755 9.99511 63.8586C9.99511 63.9417 9.99511 64.0249 9.99511 64.1082C9.99511 64.1914 9.99511 64.2748 9.99511 64.3582C9.99511 64.4417 9.99511 64.5252 9.99511 64.6088C9.99511 64.6925 9.99511 64.7762 9.99511 64.86C9.99511 64.9438 9.99511 65.0277 9.99511 65.1117C9.99511 65.1956 9.99511 65.2797 9.99511 65.3639C9.99511 65.448 9.99511 65.5323 9.99511 65.6166C9.99511 65.701 9.99511 65.7854 9.99511 65.8699C9.99511 65.9545 9.99511 66.0391 9.99511 66.1238C9.99511 66.2085 9.99511 66.2933 9.99511 66.3782C9.99511 66.463 9.99511 66.548 9.99511 66.6331C9.99511 66.7181 9.99511 66.8033 9.99511 66.8885C9.99511 66.9738 9.99511 67.0591 9.99511 67.1445C9.99511 67.2299 9.99511 67.3155 9.99511 67.4011C9.99511 67.4867 9.99511 67.5723 9.99511 67.6581C9.99511 67.7439 9.99511 67.8298 9.99511 67.9157C9.99511 68.0017 9.99511 68.0878 9.99511 68.1739C9.99511 68.2601 9.99511 68.3463 9.99511 68.4326C9.99511 68.5189 9.99511 68.6054 9.99511 68.6919C9.99511 68.7784 9.99511 68.865 9.99511 68.9516C9.99511 69.0383 9.99511 69.1251 9.99511 69.212C9.99511 69.2988 9.99511 69.3858 9.99511 69.4729C9.99511 69.5599 9.99511 69.647 9.99511 69.7343C9.99511 69.8215 9.99511 69.9088 9.99511 69.9962C9.99511 70.0836 9.99511 70.1712 9.99511 70.2588C9.99511 70.3463 9.99511 70.434 9.99511 70.5218C9.99511 70.6096 9.99511 70.6974 9.99511 70.7854C9.99511 70.8734 9.99511 70.9614 9.99511 71.0496C9.99511 71.1377 9.99511 71.2259 9.99511 71.3142C9.99511 71.4026 9.99511 71.491 9.99511 71.5795C9.99511 71.668 9.99511 71.7566 9.99511 71.8453C9.99511 71.934 9.99511 72.0227 9.99511 72.1116C9.99511 72.2005 9.99511 72.2894 9.99511 72.3785C9.99511 72.4675 9.99511 72.5567 9.99511 72.6459C9.99511 72.7352 9.99511 72.8245 9.99511 72.9139C9.99511 73.0033 9.99511 73.0928 9.99511 73.1824C9.99511 73.272 9.99511 73.3617 9.99511 73.4515C9.99511 73.5413 9.99511 73.6312 9.99511 73.7211C9.99511 73.8111 9.99511 73.9012 9.99511 73.9913C9.99511 74.0815 9.99511 74.1717 9.99511 74.262C9.99511 74.3524 9.99511 74.4428 9.99511 74.5333C9.99511 74.6238 9.99511 74.7145 9.99511 74.8052C9.99511 74.8959 9.99511 74.9867 9.99511 75.0775C9.99511 75.1684 9.99511 75.2594 9.99511 75.3505C9.99511 75.4415 9.99511 75.5327 9.99511 75.624C9.99511 75.7152 9.99511 75.8066 9.99511 75.898C9.99511 75.9894 9.99511 76.081 9.99511 76.1726C9.99511 76.2642 9.99511 76.3559 9.99511 76.4477C9.99511 76.5396 9.99511 76.6315 9.99511 76.7234C9.99511 76.8154 9.99511 76.9075 9.99511 76.9997C9.99511 77.0919 9.99511 77.1842 9.99511 77.2765C9.99511 77.3689 9.99511 77.4613 9.99511 77.5539C9.99511 77.6464 9.99511 77.7391 9.99511 77.8318C9.99511 77.9245 9.99511 78.0174 9.99511 78.1103C9.99511 78.2032 9.99511 78.2962 9.99511 78.3893C9.99511 78.4824 9.99511 78.5756 9.99511 78.6689C9.99511 78.7622 9.99511 78.8556 9.99511 78.9491C9.99511 79.0425 9.99511 79.1361 9.99511 79.2298C9.99511 79.3234 9.99511 79.4172 9.99511 79.511C9.99511 79.6049 9.99511 79.6988 9.99511 79.7928C9.99511 79.8869 9.99511 79.981 9.99511 80.0752C9.99511 80.1694 9.99511 80.2638 9.99511 80.3582C9.99511 80.4526 9.99511 80.5471 9.99511 80.6417C9.99511 80.7363 9.99511 80.8309 9.99511 80.9257C9.99511 81.0205 9.99511 81.1154 9.99511 81.2103C9.99511 81.3053 9.99511 81.4004 9.99511 81.4955C9.99511 81.5907 9.99511 81.6859 9.99511 81.7813C9.99511 81.8766 9.99511 81.972 9.99511 82.0676C9.99511 82.1631 9.99511 82.2587 9.99511 82.3544C9.99511 82.4501 9.99511 82.5459 9.99511 82.6418C9.99511 82.7377 9.99511 82.8337 9.99511 82.9298C9.99511 83.0259 9.99511 83.1221 9.99511 83.2184C9.99511 83.3147 9.99511 83.411 9.99511 83.5075C9.99511 83.604 9.99511 83.7005 9.99511 83.7972C9.99511 83.8938 9.99511 83.9906 9.99511 84.0874C9.99511 84.1842 9.99511 84.2812 9.99511 84.3782C9.99511 84.4752 9.99511 84.5724 9.99511 84.6696C9.99511 84.7668 9.99511 84.8641 9.99511 84.9615C9.99511 85.0589 9.99511 85.1564 9.99511 85.254C9.99511 85.3516 9.99511 85.4493 9.99511 85.5471C9.99511 85.6449 9.99511 85.7427 9.99511 85.8407C9.99511 85.9387 9.99511 86.0368 9.99511 86.1349C9.99511 86.2331 9.99511 86.3313 9.99511 86.4297C9.99511 86.528 9.99511 86.6265 9.99511 86.725C9.99511 86.8235 9.99511 86.9222 9.99511 87.0209C9.99511 87.1196 9.99511 87.2185 9.99511 87.3174C9.99511 87.4163 9.99511 87.5153 9.99511 87.6144C9.99511 87.7135 9.99511 87.8127 9.99511 87.912C9.99511 88.0113 9.99511 88.1107 9.99511 88.2102C9.99511 88.3097 9.99511 88.4093 9.99511 88.5089C9.99511 88.6086 9.99511 88.7084 9.99511 88.8082C9.99511 88.9081 9.99511 89.0081 9.99511 89.1081C9.99511 89.2082 9.99511 89.3083 9.99511 89.4086C9.99511 89.5088 9.99511 89.6092 9.99511 89.7096C9.99511 89.81 9.99511 89.9106 9.99511 90.0112C9.99511 90.1118 9.99511 90.2126 9.99511 90.3134C9.99511 90.4142 9.99511 90.5151 9.99511 90.6161C9.99511 90.7171 9.99511 90.8182 9.99511 90.9194C9.99511 91.0206 9.99511 91.1219 9.99511 91.2233C9.99511 91.3247 9.99511 91.4262 9.99511 91.5278C9.99511 91.6294 9.99511 91.731 9.99511 91.8328C9.99511 91.9346 9.99511 92.0365 9.99511 92.1384C9.99511 92.2404 9.99511 92.3424 9.99511 92.4446C9.99511 92.5468 9.99511 92.649 9.99511 92.7514C9.99511 92.8537 9.99511 92.9562 9.99511 93.0587C9.99511 93.1612 9.99511 93.2639 9.99511 93.3666C9.99511 93.4693 9.99511 93.5722 9.99511 93.6751C9.99511 93.778 9.99511 93.881 9.99511 93.9841C9.99511 94.0873 9.99511 94.1905 9.99511 94.2938C9.99511 94.3971 9.99511 94.5005 9.99511 94.604C9.99511 94.7075 9.99511 94.8111 9.99511 94.9148L11.9951 94.9148L13.9951 94.9148C13.9951 94.8111 13.9951 94.7075 13.9951 94.604C13.9951 94.5005 13.9951 94.3971 13.9951 94.2938C13.9951 94.1905 13.9951 94.0873 13.9951 93.9841C13.9951 93.881 13.9951 93.778 13.9951 93.6751C13.9951 93.5722 13.9951 93.4693 13.9951 93.3666C13.9951 93.2639 13.9951 93.1612 13.9951 93.0587C13.9951 92.9562 13.9951 92.8537 13.9951 92.7514C13.9951 92.649 13.9951 92.5468 13.9951 92.4446C13.9951 92.3424 13.9951 92.2404 13.9951 92.1384C13.9951 92.0365 13.9951 91.9346 13.9951 91.8328C13.9951 91.731 13.9951 91.6294 13.9951 91.5278C13.9951 91.4262 13.9951 91.3247 13.9951 91.2233C13.9951 91.1219 13.9951 91.0206 13.9951 90.9194C13.9951 90.8182 13.9951 90.7171 13.9951 90.6161C13.9951 90.5151 13.9951 90.4142 13.9951 90.3134C13.9951 90.2126 13.9951 90.1118 13.9951 90.0112C13.9951 89.9106 13.9951 89.81 13.9951 89.7096C13.9951 89.6092 13.9951 89.5088 13.9951 89.4086C13.9951 89.3083 13.9951 89.2082 13.9951 89.1081C13.9951 89.0081 13.9951 88.9081 13.9951 88.8082C13.9951 88.7084 13.9951 88.6086 13.9951 88.5089C13.9951 88.4093 13.9951 88.3097 13.9951 88.2102C13.9951 88.1107 13.9951 88.0113 13.9951 87.912C13.9951 87.8127 13.9951 87.7135 13.9951 87.6144C13.9951 87.5153 13.9951 87.4163 13.9951 87.3174C13.9951 87.2185 13.9951 87.1196 13.9951 87.0209C13.9951 86.9222 13.9951 86.8235 13.9951 86.725C13.9951 86.6265 13.9951 86.528 13.9951 86.4297C13.9951 86.3313 13.9951 86.2331 13.9951 86.1349C13.9951 86.0368 13.9951 85.9387 13.9951 85.8407C13.9951 85.7427 13.9951 85.6449 13.9951 85.5471C13.9951 85.4493 13.9951 85.3516 13.9951 85.254C13.9951 85.1564 13.9951 85.0589 13.9951 84.9615C13.9951 84.8641 13.9951 84.7668 13.9951 84.6696C13.9951 84.5724 13.9951 84.4752 13.9951 84.3782C13.9951 84.2812 13.9951 84.1842 13.9951 84.0874C13.9951 83.9906 13.9951 83.8938 13.9951 83.7972C13.9951 83.7005 13.9951 83.604 13.9951 83.5075C13.9951 83.411 13.9951 83.3147 13.9951 83.2184C13.9951 83.1221 13.9951 83.0259 13.9951 82.9298C13.9951 82.8337 13.9951 82.7377 13.9951 82.6418C13.9951 82.5459 13.9951 82.4501 13.9951 82.3544C13.9951 82.2587 13.9951 82.1631 13.9951 82.0676C13.9951 81.972 13.9951 81.8766 13.9951 81.7813C13.9951 81.6859 13.9951 81.5907 13.9951 81.4955C13.9951 81.4004 13.9951 81.3053 13.9951 81.2103C13.9951 81.1154 13.9951 81.0205 13.9951 80.9257C13.9951 80.8309 13.9951 80.7363 13.9951 80.6417C13.9951 80.5471 13.9951 80.4526 13.9951 80.3582C13.9951 80.2638 13.9951 80.1694 13.9951 80.0752C13.9951 79.981 13.9951 79.8869 13.9951 79.7928C13.9951 79.6988 13.9951 79.6049 13.9951 79.511C13.9951 79.4172 13.9951 79.3234 13.9951 79.2298C13.9951 79.1361 13.9951 79.0425 13.9951 78.9491C13.9951 78.8556 13.9951 78.7622 13.9951 78.6689C13.9951 78.5756 13.9951 78.4824 13.9951 78.3893C13.9951 78.2962 13.9951 78.2032 13.9951 78.1103C13.9951 78.0174 13.9951 77.9245 13.9951 77.8318C13.9951 77.7391 13.9951 77.6464 13.9951 77.5539C13.9951 77.4613 13.9951 77.3689 13.9951 77.2765C13.9951 77.1842 13.9951 77.0919 13.9951 76.9997C13.9951 76.9075 13.9951 76.8154 13.9951 76.7234C13.9951 76.6315 13.9951 76.5396 13.9951 76.4477C13.9951 76.3559 13.9951 76.2642 13.9951 76.1726C13.9951 76.081 13.9951 75.9894 13.9951 75.898C13.9951 75.8066 13.9951 75.7152 13.9951 75.624C13.9951 75.5327 13.9951 75.4415 13.9951 75.3505C13.9951 75.2594 13.9951 75.1684 13.9951 75.0775C13.9951 74.9867 13.9951 74.8959 13.9951 74.8052C13.9951 74.7145 13.9951 74.6238 13.9951 74.5333C13.9951 74.4428 13.9951 74.3524 13.9951 74.262C13.9951 74.1717 13.9951 74.0815 13.9951 73.9913C13.9951 73.9012 13.9951 73.8111 13.9951 73.7211C13.9951 73.6312 13.9951 73.5413 13.9951 73.4515C13.9951 73.3617 13.9951 73.272 13.9951 73.1824C13.9951 73.0928 13.9951 73.0033 13.9951 72.9139C13.9951 72.8245 13.9951 72.7352 13.9951 72.6459C13.9951 72.5567 13.9951 72.4675 13.9951 72.3785C13.9951 72.2894 13.9951 72.2005 13.9951 72.1116C13.9951 72.0227 13.9951 71.934 13.9951 71.8453C13.9951 71.7566 13.9951 71.668 13.9951 71.5795C13.9951 71.491 13.9951 71.4026 13.9951 71.3142C13.9951 71.2259 13.9951 71.1377 13.9951 71.0496C13.9951 70.9614 13.9951 70.8734 13.9951 70.7854C13.9951 70.6974 13.9951 70.6096 13.9951 70.5218C13.9951 70.434 13.9951 70.3463 13.9951 70.2588C13.9951 70.1712 13.9951 70.0836 13.9951 69.9962C13.9951 69.9088 13.9951 69.8215 13.9951 69.7343C13.9951 69.647 13.9951 69.5599 13.9951 69.4729C13.9951 69.3858 13.9951 69.2988 13.9951 69.212C13.9951 69.1251 13.9951 69.0383 13.9951 68.9516C13.9951 68.865 13.9951 68.7784 13.9951 68.6919C13.9951 68.6054 13.9951 68.5189 13.9951 68.4326C13.9951 68.3463 13.9951 68.2601 13.9951 68.1739C13.9951 68.0878 13.9951 68.0017 13.9951 67.9157C13.9951 67.8298 13.9951 67.7439 13.9951 67.6581C13.9951 67.5723 13.9951 67.4867 13.9951 67.4011C13.9951 67.3155 13.9951 67.2299 13.9951 67.1445C13.9951 67.0591 13.9951 66.9738 13.9951 66.8885C13.9951 66.8033 13.9951 66.7181 13.9951 66.6331C13.9951 66.548 13.9951 66.463 13.9951 66.3782C13.9951 66.2933 13.9951 66.2085 13.9951 66.1238C13.9951 66.0391 13.9951 65.9545 13.9951 65.8699C13.9951 65.7854 13.9951 65.701 13.9951 65.6166C13.9951 65.5323 13.9951 65.448 13.9951 65.3639C13.9951 65.2797 13.9951 65.1956 13.9951 65.1117C13.9951 65.0277 13.9951 64.9438 13.9951 64.86C13.9951 64.7762 13.9951 64.6925 13.9951 64.6088C13.9951 64.5252 13.9951 64.4417 13.9951 64.3582C13.9951 64.2748 13.9951 64.1914 13.9951 64.1082C13.9951 64.0249 13.9951 63.9417 13.9951 63.8586C13.9951 63.7755 13.9951 63.6925 13.9951 63.6096C13.9951 63.5267 13.9951 63.4439 13.9951 63.3612C13.9951 63.2784 13.9951 63.1958 13.9951 63.1132C13.9951 63.0307 13.9951 62.9482 13.9951 62.8658C13.9951 62.7835 13.9951 62.7012 13.9951 62.619C13.9951 62.5368 13.9951 62.4547 13.9951 62.3726C13.9951 62.2906 13.9951 62.2087 13.9951 62.1269C13.9951 62.045 13.9951 61.9633 13.9951 61.8816C13.9951 61.7999 13.9951 61.7184 13.9951 61.6369C13.9951 61.5554 13.9951 61.474 13.9951 61.3927C13.9951 61.3114 13.9951 61.2301 13.9951 61.149C13.9951 61.0679 13.9951 60.9868 13.9951 60.9059C13.9951 60.8249 13.9951 60.7441 13.9951 60.6633C13.9951 60.5825 13.9951 60.5018 13.9951 60.4212C13.9951 60.3406 13.9951 60.2601 13.9951 60.1797C13.9951 60.0993 13.9951 60.0189 13.9951 59.9387C13.9951 59.8584 13.9951 59.7783 13.9951 59.6982C13.9951 59.6181 13.9951 59.5381 13.9951 59.4582C13.9951 59.3783 13.9951 59.2985 13.9951 59.2188C13.9951 59.1391 13.9951 59.0595 13.9951 58.9799C13.9951 58.9004 13.9951 58.8209 13.9951 58.7416C13.9951 58.6622 13.9951 58.5829 13.9951 58.5037C13.9951 58.4245 13.9951 58.3454 13.9951 58.2664C13.9951 58.1874 13.9951 58.1085 13.9951 58.0296C13.9951 57.9508 13.9951 57.8721 13.9951 57.7934C13.9951 57.7147 13.9951 57.6362 13.9951 57.5577C13.9951 57.4792 13.9951 57.4008 13.9951 57.3225C13.9951 57.2442 13.9951 57.1659 13.9951 57.0878C13.9951 57.0097 13.9951 56.9316 13.9951 56.8536C13.9951 56.7757 13.9951 56.6978 13.9951 56.62C13.9951 56.5422 13.9951 56.4645 13.9951 56.3869C13.9951 56.3093 13.9951 56.2318 13.9951 56.1543C13.9951 56.0769 13.9951 55.9996 13.9951 55.9223C13.9951 55.845 13.9951 55.7678 13.9951 55.6908C13.9951 55.6137 13.9951 55.5367 13.9951 55.4598C13.9951 55.3828 13.9951 55.306 13.9951 55.2293C13.9951 55.1525 13.9951 55.0759 13.9951 54.9993C13.9951 54.9227 13.9951 54.8463 13.9951 54.7699C13.9951 54.6935 13.9951 54.6172 13.9951 54.541C13.9951 54.4647 13.9951 54.3886 13.9951 54.3126C13.9951 54.2365 13.9951 54.1605 13.9951 54.0847C13.9951 54.0088 13.9951 53.933 13.9951 53.8573C13.9951 53.7816 13.9951 53.706 13.9951 53.6305C13.9951 53.555 13.9951 53.4795 13.9951 53.4042C13.9951 53.3288 13.9951 53.2536 13.9951 53.1784C13.9951 53.1032 13.9951 53.0281 13.9951 52.9531C13.9951 52.8781 13.9951 52.8032 13.9951 52.7283C13.9951 52.6535 13.9951 52.5788 13.9951 52.5041C13.9951 52.4294 13.9951 52.3549 13.9951 52.2804C13.9951 52.2059 13.9951 52.1315 13.9951 52.0572C13.9951 51.9828 13.9951 51.9086 13.9951 51.8345C13.9951 51.7603 13.9951 51.6863 13.9951 51.6123C13.9951 51.5383 13.9951 51.4644 13.9951 51.3906C13.9951 51.3168 13.9951 51.2431 13.9951 51.1695C13.9951 51.0959 13.9951 51.0223 13.9951 50.9489C13.9951 50.8754 13.9951 50.802 13.9951 50.7288C13.9951 50.6555 13.9951 50.5823 13.9951 50.5092C13.9951 50.436 13.9951 50.363 13.9951 50.2901C13.9951 50.2171 13.9951 50.1443 13.9951 50.0715C13.9951 49.9987 13.9951 49.9261 13.9951 49.8535C13.9951 49.7809 13.9951 49.7083 13.9951 49.6359C13.9951 49.5635 13.9951 49.4911 13.9951 49.4189C13.9951 49.3466 13.9951 49.2745 13.9951 49.2024C13.9951 49.1303 13.9951 49.0583 13.9951 48.9864C13.9951 48.9144 13.9951 48.8426 13.9951 48.7709C13.9951 48.6991 13.9951 48.6275 13.9951 48.5559C13.9951 48.4843 13.9951 48.4128 13.9951 48.3414C13.9951 48.27 13.9951 48.1987 13.9951 48.1275C13.9951 48.0562 13.9951 47.9851 13.9951 47.914C13.9951 47.8429 13.9951 47.772 13.9951 47.7011C13.9951 47.6302 13.9951 47.5594 13.9951 47.4886C13.9951 47.4179 13.9951 47.3473 13.9951 47.2767C13.9951 47.2062 13.9951 47.1357 13.9951 47.0653C13.9951 46.9949 13.9951 46.9246 13.9951 46.8544C13.9951 46.7842 13.9951 46.714 13.9951 46.644C13.9951 46.5739 13.9951 46.504 13.9951 46.4341C13.9951 46.3642 13.9951 46.2944 13.9951 46.2247C13.9951 46.155 13.9951 46.0854 13.9951 46.0158C13.9951 45.9463 13.9951 45.8768 13.9951 45.8075C13.9951 45.7381 13.9951 45.6688 13.9951 45.5996C13.9951 45.5304 13.9951 45.4613 13.9951 45.3922C13.9951 45.3232 13.9951 45.2543 13.9951 45.1854C13.9951 45.1165 13.9951 45.0477 13.9951 44.979C13.9951 44.9103 13.9951 44.8417 13.9951 44.7732C13.9951 44.7047 13.9951 44.6362 13.9951 44.5679C13.9951 44.4995 13.9951 44.4312 13.9951 44.363C13.9951 44.2948 13.9951 44.2267 13.9951 44.1587C13.9951 44.0907 13.9951 44.0227 13.9951 43.9548C13.9951 43.887 13.9951 43.8192 13.9951 43.7515C13.9951 43.6838 13.9951 43.6162 13.9951 43.5487C13.9951 43.4812 13.9951 43.4137 13.9951 43.3464C13.9951 43.279 13.9951 43.2117 13.9951 43.1445C13.9951 43.0774 13.9951 43.0103 13.9951 42.9432C13.9951 42.8762 13.9951 42.8093 13.9951 42.7424C13.9951 42.6755 13.9951 42.6088 13.9951 42.5421C13.9951 42.4754 13.9951 42.4088 13.9951 42.3423C13.9951 42.2757 13.9951 42.2093 13.9951 42.1429C13.9951 42.0766 13.9951 42.0103 13.9951 41.9441C13.9951 41.8779 13.9951 41.8118 13.9951 41.7458C13.9951 41.6798 13.9951 41.6138 13.9951 41.548C13.9951 41.4821 13.9951 41.4163 13.9951 41.3506C13.9951 41.2849 13.9951 41.2193 13.9951 41.1538C13.9951 41.0883 13.9951 41.0228 13.9951 40.9575C13.9951 40.8921 13.9951 40.8268 13.9951 40.7616C13.9951 40.6964 13.9951 40.6313 13.9951 40.5663C13.9951 40.5013 13.9951 40.4363 13.9951 40.3715C13.9951 40.3066 13.9951 40.2418 13.9951 40.1771C13.9951 40.1124 13.9951 40.0478 13.9951 39.9832C13.9951 39.9187 13.9951 39.8543 13.9951 39.7899C13.9951 39.7255 13.9951 39.6612 13.9951 39.597C13.9951 39.5328 13.9951 39.4687 13.9951 39.4047C13.9951 39.3406 13.9951 39.2767 13.9951 39.2128C13.9951 39.1489 13.9951 39.0851 13.9951 39.0214C13.9951 38.9577 13.9951 38.8941 13.9951 38.8305C13.9951 38.767 13.9951 38.7035 13.9951 38.6401C13.9951 38.5767 13.9951 38.5134 13.9951 38.4502C13.9951 38.387 13.9951 38.3239 13.9951 38.2608C13.9951 38.1977 13.9951 38.1348 13.9951 38.0719C13.9951 38.009 13.9951 37.9462 13.9951 37.8834C13.9951 37.8207 13.9951 37.7581 13.9951 37.6955C13.9951 37.6329 13.9951 37.5705 13.9951 37.5081C13.9951 37.4457 13.9951 37.3833 13.9951 37.3211C13.9951 37.2589 13.9951 37.1967 13.9951 37.1346C13.9951 37.0726 13.9951 37.0106 13.9951 36.9487C13.9951 36.8867 13.9951 36.8249 13.9951 36.7632C13.9951 36.7014 13.9951 36.6397 13.9951 36.5782C13.9951 36.5166 13.9951 36.4551 13.9951 36.3937C13.9951 36.3322 13.9951 36.2709 13.9951 36.2096C13.9951 36.1484 13.9951 36.0872 13.9951 36.0261C13.9951 35.965 13.9951 35.904 13.9951 35.843C13.9951 35.7821 13.9951 35.7212 13.9951 35.6605C13.9951 35.5997 13.9951 35.539 13.9951 35.4784C13.9951 35.4178 13.9951 35.3572 13.9951 35.2968C13.9951 35.2363 13.9951 35.176 13.9951 35.1157C13.9951 35.0554 13.9951 34.9952 13.9951 34.9351C13.9951 34.8749 13.9951 34.8149 13.9951 34.7549C13.9951 34.695 13.9951 34.6351 13.9951 34.5753C13.9951 34.5155 13.9951 34.4557 13.9951 34.3961C13.9951 34.3365 13.9951 34.2769 13.9951 34.2174C13.9951 34.1579 13.9951 34.0985 13.9951 34.0392C13.9951 33.9799 13.9951 33.9207 13.9951 33.8615C13.9951 33.8023 13.9951 33.7433 13.9951 33.6843C13.9951 33.6253 13.9951 33.5663 13.9951 33.5075C13.9951 33.4487 13.9951 33.3899 13.9951 33.3312C13.9951 33.2725 13.9951 33.2139 13.9951 33.1554C13.9951 33.0969 13.9951 33.0385 13.9951 32.9801C13.9951 32.9218 13.9951 32.8635 13.9951 32.8053C13.9951 32.7471 13.9951 32.689 13.9951 32.6309C13.9951 32.5729 13.9951 32.5149 13.9951 32.4571C13.9951 32.3992 13.9951 32.3414 13.9951 32.2837C13.9951 32.226 13.9951 32.1683 13.9951 32.1108C13.9951 32.0532 13.9951 31.9957 13.9951 31.9383C13.9951 31.8809 13.9951 31.8236 13.9951 31.7664C13.9951 31.7091 13.9951 31.652 13.9951 31.5949C13.9951 31.5378 13.9951 31.4808 13.9951 31.4239C13.9951 31.367 13.9951 31.3101 13.9951 31.2534C13.9951 31.1966 13.9951 31.1399 13.9951 31.0833C13.9951 31.0267 13.9951 30.9702 13.9951 30.9137C13.9951 30.8573 13.9951 30.8009 13.9951 30.7447C13.9951 30.6884 13.9951 30.6322 13.9951 30.576C13.9951 30.5199 13.9951 30.4639 13.9951 30.4079C13.9951 30.3519 13.9951 30.296 13.9951 30.2402C13.9951 30.1844 13.9951 30.1287 13.9951 30.073C13.9951 30.0174 13.9951 29.9618 13.9951 29.9063C13.9951 29.8508 13.9951 29.7954 13.9951 29.7401C13.9951 29.6847 13.9951 29.6295 13.9951 29.5743C13.9951 29.5191 13.9951 29.464 13.9951 29.409C13.9951 29.354 13.9951 29.299 13.9951 29.2442C13.9951 29.1893 13.9951 29.1345 13.9951 29.0798C13.9951 29.0251 13.9951 28.9705 13.9951 28.9159C13.9951 28.8614 13.9951 28.8069 13.9951 28.7525C13.9951 28.6981 13.9951 28.6438 13.9951 28.5896C13.9951 28.5353 13.9951 28.4812 13.9951 28.4271C13.9951 28.373 13.9951 28.319 13.9951 28.2651C13.9951 28.2112 13.9951 28.1573 13.9951 28.1036C13.9951 28.0498 13.9951 27.9961 13.9951 27.9425C13.9951 27.8889 13.9951 27.8354 13.9951 27.7819C13.9951 27.7285 13.9951 27.6751 13.9951 27.6218C13.9951 27.5685 13.9951 27.5153 13.9951 27.4621C13.9951 27.409 13.9951 27.3559 13.9951 27.3029C13.9951 27.25 13.9951 27.1971 13.9951 27.1442C13.9951 27.0914 13.9951 27.0387 13.9951 26.986C13.9951 26.9333 13.9951 26.8807 13.9951 26.8282C13.9951 26.7757 13.9951 26.7232 13.9951 26.6709C13.9951 26.6185 13.9951 26.5662 13.9951 26.514C13.9951 26.4618 13.9951 26.4097 13.9951 26.3576C13.9951 26.3056 13.9951 26.2536 13.9951 26.2017C13.9951 26.1498 13.9951 26.098 13.9951 26.0463C13.9951 25.9945 13.9951 25.9429 13.9951 25.8913C13.9951 25.8397 13.9951 25.7882 13.9951 25.7367C13.9951 25.6853 13.9951 25.634 13.9951 25.5827C13.9951 25.5314 13.9951 25.4802 13.9951 25.4291C13.9951 25.378 13.9951 25.3269 13.9951 25.2759C13.9951 25.225 13.9951 25.1741 13.9951 25.1233C13.9951 25.0725 13.9951 25.0217 13.9951 24.9711C13.9951 24.9204 13.9951 24.8698 13.9951 24.8193C13.9951 24.7688 13.9951 24.7184 13.9951 24.668C13.9951 24.6177 13.9951 24.5674 13.9951 24.5172C13.9951 24.467 13.9951 24.4169 13.9951 24.3668C13.9951 24.3168 13.9951 24.2668 13.9951 24.2169C13.9951 24.167 13.9951 24.1172 13.9951 24.0675C13.9951 24.0177 13.9951 23.9681 13.9951 23.9185C13.9951 23.8689 13.9951 23.8194 13.9951 23.77C13.9951 23.7205 13.9951 23.6712 13.9951 23.6219C13.9951 23.5726 13.9951 23.5234 13.9951 23.4743C13.9951 23.4252 13.9951 23.3761 13.9951 23.3271C13.9951 23.2782 13.9951 23.2293 13.9951 23.1804C13.9951 23.1316 13.9951 23.0829 13.9951 23.0342C13.9951 22.9855 13.9951 22.9369 13.9951 22.8884C13.9951 22.8399 13.9951 22.7915 13.9951 22.7431C13.9951 22.6947 13.9951 22.6465 13.9951 22.5982C13.9951 22.55 13.9951 22.5019 13.9951 22.4538C13.9951 22.4058 13.9951 22.3578 13.9951 22.3099C13.9951 22.262 13.9951 22.2141 13.9951 22.1664C13.9951 22.1186 13.9951 22.0709 13.9951 22.0233C13.9951 21.9757 13.9951 21.9282 13.9951 21.8807C13.9951 21.8333 13.9951 21.7859 13.9951 21.7386C13.9951 21.6913 13.9951 21.6441 13.9951 21.5969C13.9951 21.5498 13.9951 21.5027 13.9951 21.4557C13.9951 21.4087 13.9951 21.3618 13.9951 21.3149C13.9951 21.2681 13.9951 21.2213 13.9951 21.1746C13.9951 21.1279 13.9951 21.0813 13.9951 21.0347C13.9951 20.9882 13.9951 20.9417 13.9951 20.8953C13.9951 20.8489 13.9951 20.8026 13.9951 20.7563C13.9951 20.7101 13.9951 20.6639 13.9951 20.6178C13.9951 20.5717 13.9951 20.5257 13.9951 20.4798C13.9951 20.4338 13.9951 20.3879 13.9951 20.3421C13.9951 20.2963 13.9951 20.2506 13.9951 20.205C13.9951 20.1593 13.9951 20.1138 13.9951 20.0683C13.9951 20.0228 13.9951 19.9773 13.9951 19.932C13.9951 19.8866 13.9951 19.8414 13.9951 19.7962C13.9951 19.751 13.9951 19.7059 13.9951 19.6608C13.9951 19.6158 13.9951 19.5708 13.9951 19.5259C13.9951 19.481 13.9951 19.4362 13.9951 19.3914C13.9951 19.3467 13.9951 19.302 13.9951 19.2574C13.9951 19.2128 13.9951 19.1682 13.9951 19.1238C13.9951 19.0793 13.9951 19.035 13.9951 18.9907C13.9951 18.9464 13.9951 18.9021 13.9951 18.858C13.9951 18.8138 13.9951 18.7697 13.9951 18.7257C13.9951 18.6817 13.9951 18.6378 13.9951 18.5939C13.9951 18.5501 13.9951 18.5063 13.9951 18.4626C13.9951 18.4189 13.9951 18.3752 13.9951 18.3317C13.9951 18.2881 13.9951 18.2446 13.9951 18.2012C13.9951 18.1578 13.9951 18.1144 13.9951 18.0712C13.9951 18.0279 13.9951 17.9847 13.9951 17.9416C13.9951 17.8985 13.9951 17.8554 13.9951 17.8125C13.9951 17.7695 13.9951 17.7266 13.9951 17.6838C13.9951 17.641 13.9951 17.5982 13.9951 17.5555C13.9951 17.5129 13.9951 17.4703 13.9951 17.4277C13.9951 17.3852 13.9951 17.3427 13.9951 17.3004C13.9951 17.258 13.9951 17.2157 13.9951 17.1734C13.9951 17.1312 13.9951 17.089 13.9951 17.0469C13.9951 17.0049 13.9951 16.9628 13.9951 16.9209C13.9951 16.879 13.9951 16.8371 13.9951 16.7953C13.9951 16.7535 13.9951 16.7118 13.9951 16.6701C13.9951 16.6285 13.9951 16.5869 13.9951 16.5454C13.9951 16.5039 13.9951 16.4625 13.9951 16.4211C13.9951 16.3798 13.9951 16.3385 13.9951 16.2973C13.9951 16.2561 13.9951 16.2149 13.9951 16.1739C13.9951 16.1328 13.9951 16.0918 13.9951 16.0509C13.9951 16.01 13.9951 15.9691 13.9951 15.9284C13.9951 15.8876 13.9951 15.8469 13.9951 15.8063C13.9951 15.7656 13.9951 15.7251 13.9951 15.6846C13.9951 15.6441 13.9951 15.6037 13.9951 15.5634C13.9951 15.523 13.9951 15.4828 13.9951 15.4426C13.9951 15.4024 13.9951 15.3623 13.9951 15.3222C13.9951 15.2822 13.9951 15.2422 13.9951 15.2023C13.9951 15.1624 13.9951 15.1226 13.9951 15.0828C13.9951 15.0431 13.9951 15.0034 13.9951 14.9638C13.9951 14.9242 13.9951 14.8846 13.9951 14.8452C13.9951 14.8057 13.9951 14.7663 13.9951 14.727C13.9951 14.6877 13.9951 14.6484 13.9951 14.6092C13.9951 14.5701 13.9951 14.531 13.9951 14.4919C13.9951 14.4529 13.9951 14.4139 13.9951 14.375C13.9951 14.3362 13.9951 14.2973 13.9951 14.2586C13.9951 14.2198 13.9951 14.1812 13.9951 14.1426C13.9951 14.104 13.9951 14.0654 13.9951 14.027C13.9951 13.9885 13.9951 13.9501 13.9951 13.9118C13.9951 13.8735 13.9951 13.8353 13.9951 13.7971C13.9951 13.7589 13.9951 13.7208 13.9951 13.6828C13.9951 13.6448 13.9951 13.6068 13.9951 13.5689C13.9951 13.531 13.9951 13.4932 13.9951 13.4555C13.9951 13.4178 13.9951 13.3801 13.9951 13.3425C13.9951 13.3049 13.9951 13.2674 13.9951 13.2299C13.9951 13.1925 13.9951 13.1551 13.9951 13.1178C13.9951 13.0804 13.9951 13.0432 13.9951 13.006C13.9951 12.9689 13.9951 12.9318 13.9951 12.8947C13.9951 12.8577 13.9951 12.8207 13.9951 12.7839C13.9951 12.747 13.9951 12.7102 13.9951 12.6734C13.9951 12.6367 13.9951 12.6 13.9951 12.5634C13.9951 12.5268 13.9951 12.4903 13.9951 12.4538C13.9951 12.4174 13.9951 12.381 13.9951 12.3447C13.9951 12.3083 13.9951 12.2721 13.9951 12.2359C13.9951 12.1997 13.9951 12.1636 13.9951 12.1276C13.9951 12.0916 13.9951 12.0556 13.9951 12.0197C13.9951 11.9838 13.9951 11.948 13.9951 11.9122C13.9951 11.8765 13.9951 11.8408 13.9951 11.8052C13.9951 11.7696 13.9951 11.734 13.9951 11.6986C13.9951 11.6631 13.9951 11.6277 13.9951 11.5924C13.9951 11.5571 13.9951 11.5218 13.9951 11.4866C13.9951 11.4514 13.9951 11.4163 13.9951 11.3813C13.9951 11.3462 13.9951 11.3112 13.9951 11.2763C13.9951 11.2414 13.9951 11.2066 13.9951 11.1718C13.9951 11.1371 13.9951 11.1024 13.9951 11.0677C13.9951 11.0331 13.9951 10.9986 13.9951 10.9641C13.9951 10.9296 13.9951 10.8952 13.9951 10.8608C13.9951 10.8265 13.9951 10.7922 13.9951 10.758C13.9951 10.7238 13.9951 10.6897 13.9951 10.6556C13.9951 10.6215 13.9951 10.5875 13.9951 10.5536C13.9951 10.5197 13.9951 10.4858 13.9951 10.452C13.9951 10.4182 13.9951 10.3845 13.9951 10.3509C13.9951 10.3172 13.9951 10.2837 13.9951 10.2501C13.9951 10.2166 13.9951 10.1832 13.9951 10.1498C13.9951 10.1165 13.9951 10.0832 13.9951 10.0499C13.9951 10.0167 13.9951 9.98354 13.9951 9.95045C13.9951 9.91736 13.9951 9.88434 13.9951 9.85139C13.9951 9.81844 13.9951 9.78555 13.9951 9.75274C13.9951 9.71993 13.9951 9.68718 13.9951 9.65451C13.9951 9.62183 13.9951 9.58923 13.9951 9.55669C13.9951 9.52416 13.9951 9.49169 13.9951 9.45929C13.9951 9.42689 13.9951 9.39456 13.9951 9.3623C13.9951 9.33004 13.9951 9.29785 13.9951 9.26573C13.9951 9.23361 13.9951 9.20155 13.9951 9.16957C13.9951 9.13759 13.9951 9.10567 13.9951 9.07382C13.9951 9.04198 13.9951 9.0102 13.9951 8.97849C13.9951 8.94678 13.9951 8.91514 13.9951 8.88357C13.9951 8.852 13.9951 8.8205 13.9951 8.78906C13.9951 8.75763 13.9951 8.72627 13.9951 8.69497C13.9951 8.66367 13.9951 8.63244 13.9951 8.60128C13.9951 8.57013 13.9951 8.53903 13.9951 8.50801C13.9951 8.47699 13.9951 8.44603 13.9951 8.41515C13.9951 8.38426 13.9951 8.35345 13.9951 8.3227C13.9951 8.29195 13.9951 8.26127 13.9951 8.23066C13.9951 8.20004 13.9951 8.1695 13.9951 8.13902C13.9951 8.10855 13.9951 8.07814 13.9951 8.0478C13.9951 8.01746 13.9951 7.98719 13.9951 7.95699C13.9951 7.92679 13.9951 7.89665 13.9951 7.86658C13.9951 7.83652 13.9951 7.80652 13.9951 7.77659C13.9951 7.74666 13.9951 7.71679 13.9951 7.687C13.9951 7.6572 13.9951 7.62747 13.9951 7.59781C13.9951 7.56816 13.9951 7.53856 13.9951 7.50904C13.9951 7.47952 13.9951 7.45006 13.9951 7.42067C13.9951 7.39128 13.9951 7.36196 13.9951 7.33271C13.9951 7.30346 13.9951 7.27427 13.9951 7.24515C13.9951 7.21604 13.9951 7.18699 13.9951 7.158C13.9951 7.12902 13.9951 7.10011 13.9951 7.07126C13.9951 7.04241 13.9951 7.01363 13.9951 6.98492C13.9951 6.9562 13.9951 6.92756 13.9951 6.89898C13.9951 6.8704 13.9951 6.84189 13.9951 6.81345C13.9951 6.78501 13.9951 6.75663 13.9951 6.72832C13.9951 6.70001 13.9951 6.67177 13.9951 6.6436C13.9951 6.61542 13.9951 6.58731 13.9951 6.55927C13.9951 6.53123 13.9951 6.50326 13.9951 6.47535C13.9951 6.44745 13.9951 6.41961 13.9951 6.39184C13.9951 6.36406 13.9951 6.33636 13.9951 6.30872C13.9951 6.28108 13.9951 6.25351 13.9951 6.226C13.9951 6.1985 13.9951 6.17106 13.9951 6.14369C13.9951 6.11632 13.9951 6.08901 13.9951 6.06178C13.9951 6.03454 13.9951 6.00737 13.9951 5.98026C13.9951 5.95316 13.9951 5.92612 13.9951 5.89915C13.9951 5.87218 13.9951 5.84528 13.9951 5.81844C13.9951 5.7916 13.9951 5.76483 13.9951 5.73812C13.9951 5.71142 13.9951 5.68478 13.9951 5.65821C13.9951 5.63163 13.9951 5.60513 13.9951 5.57869C13.9951 5.55225 13.9951 5.52588 13.9951 5.49957C13.9951 5.47326 13.9951 5.44702 13.9951 5.42085C13.9951 5.39467 13.9951 5.36856 13.9951 5.34252C13.9951 5.31648 13.9951 5.2905 13.9951 5.26459C13.9951 5.23868 13.9951 5.21284 13.9951 5.18706C13.9951 5.16128 13.9951 5.13557 13.9951 5.10993C13.9951 5.08428 13.9951 5.0587 13.9951 5.03319C13.9951 5.00767 13.9951 4.98222 13.9951 4.95684C13.9951 4.93146 13.9951 4.90614 13.9951 4.88089C13.9951 4.85564 13.9951 4.83046 13.9951 4.80534C13.9951 4.78022 13.9951 4.75516 13.9951 4.73017C13.9951 4.70519 13.9951 4.68026 13.9951 4.65541C13.9951 4.63055 13.9951 4.60576 13.9951 4.58103C13.9951 4.55631 13.9951 4.53165 13.9951 4.50705C13.9951 4.48246 13.9951 4.45793 13.9951 4.43346C13.9951 4.409 13.9951 4.3846 13.9951 4.36027C13.9951 4.33593 13.9951 4.31167 13.9951 4.28746C13.9951 4.26326 13.9951 4.23912 13.9951 4.21505C13.9951 4.19098 13.9951 4.16697 13.9951 4.14303C13.9951 4.11909 13.9951 4.09521 13.9951 4.0714C13.9951 4.04759 13.9951 4.02384 13.9951 4.00016C13.9951 3.97647 13.9951 3.95286 13.9951 3.92931C13.9951 3.90575 13.9951 3.88227 13.9951 3.85884C13.9951 3.83542 13.9951 3.81207 13.9951 3.78877C13.9951 3.76548 13.9951 3.74225 13.9951 3.71909C13.9951 3.69593 13.9951 3.67283 13.9951 3.6498C13.9951 3.62676 13.9951 3.60379 13.9951 3.58089C13.9951 3.55798 13.9951 3.53515 13.9951 3.51237C13.9951 3.4896 13.9951 3.46688 13.9951 3.44424C13.9951 3.42159 13.9951 3.39901 13.9951 3.37649C13.9951 3.35398 13.9951 3.33152 13.9951 3.30914C13.9951 3.28675 13.9951 3.26442 13.9951 3.24216C13.9951 3.21991 13.9951 3.19771 13.9951 3.17558C13.9951 3.15345 13.9951 3.13138 13.9951 3.10938C13.9951 3.08738 13.9951 3.06544 13.9951 3.04356C13.9951 3.02169 13.9951 2.99988 13.9951 2.97813C13.9951 2.95639 13.9951 2.9347 13.9951 2.91309L11.9951 2.91309Z" fill="url(#paint0_linear_818_4102)"/>
<defs>
<linearGradient id="paint0_linear_818_4102" x1="11.4951" y1="2.91309" x2="11.4951" y2="112.913" gradientUnits="userSpaceOnUse">
<stop stop-color="#715A03"/>
<stop offset="1" stop-color="#ECC222"/>
</linearGradient>
</defs>
</svg>
