<svg width="174" height="38" viewBox="0 0 174 38" fill="none" xmlns="http://www.w3.org/2000/svg">
<path d="M0.857871 34.0998C-0.0488758 34.7306 -0.272591 35.977 0.35819 36.8837C0.98897 37.7905 2.23538 38.0142 3.14213 37.3834L0.857871 34.0998ZM174 20.2414L159.507 2.26168L151.182 23.8033L174 20.2414ZM2 35.7416L3.14213 37.3834C12.2904 31.0194 28.195 17.8785 53.0708 10.1309C77.8853 2.40232 111.731 0.0320971 156.561 15.6454L157.218 13.7567L157.876 11.8679C112.271 -4.0154 77.5472 -1.68188 51.8813 6.31182C26.2768 14.2864 9.78974 27.8863 0.857871 34.0998L2 35.7416Z" fill="url(#paint0_linear_155_4889)"/>
<defs>
<linearGradient id="paint0_linear_155_4889" x1="2" y1="18.9182" x2="174" y2="18.9182" gradientUnits="userSpaceOnUse">
<stop stop-color="#715A03"/>
<stop offset="1" stop-color="#ECC222"/>
</linearGradient>
</defs>
</svg>
