<svg width="176" height="34" viewBox="0 0 176 34" fill="none" xmlns="http://www.w3.org/2000/svg">
<path d="M174.387 6.67682C175.339 6.11751 175.658 4.89195 175.099 3.93946C174.54 2.98696 173.314 2.66822 172.361 3.22753L174.387 6.67682ZM0.578626 0.113518L11.9017 20.2411L23.6712 0.371209L0.578626 0.113518ZM173.374 4.95217L172.361 3.22753C162.366 9.09674 144.711 21.5857 118.92 26.9521C93.2153 32.3008 59.3039 30.5729 17.0204 7.52935L16.0633 9.28549L15.1063 11.0416C58.1845 34.5183 93.0597 36.4188 119.735 30.8682C146.325 25.3354 164.645 12.3976 174.387 6.67682L173.374 4.95217Z" fill="#D4D4D4"/>
<path d="M174.387 6.67682C175.339 6.11751 175.658 4.89195 175.099 3.93946C174.54 2.98696 173.314 2.66822 172.361 3.22753L174.387 6.67682ZM0.578626 0.113518L11.9017 20.2411L23.6712 0.371209L0.578626 0.113518ZM173.374 4.95217L172.361 3.22753C162.366 9.09674 144.711 21.5857 118.92 26.9521C93.2153 32.3008 59.3039 30.5729 17.0204 7.52935L16.0633 9.28549L15.1063 11.0416C58.1845 34.5183 93.0597 36.4188 119.735 30.8682C146.325 25.3354 164.645 12.3976 174.387 6.67682L173.374 4.95217Z" fill="url(#paint0_linear_155_4891)"/>
<defs>
<linearGradient id="paint0_linear_155_4891" x1="170.984" y1="23.5269" x2="0.390617" y2="1.57455" gradientUnits="userSpaceOnUse">
<stop stop-color="#715A03"/>
<stop offset="1" stop-color="#ECC222"/>
</linearGradient>
</defs>
</svg>
