<svg width="37" height="148" viewBox="0 0 37 148" fill="none" xmlns="http://www.w3.org/2000/svg">
<path d="M33.4424 146.286C34.1391 147.143 35.3988 147.273 36.2559 146.577C37.113 145.88 37.2429 144.62 36.5462 143.763L33.4424 146.286ZM18.6863 0.42019L0.781699 15.0064L22.3661 23.2192L18.6863 0.42019ZM34.9943 145.025L36.5462 143.763C23.1229 127.251 -6.6387 82.4716 14.1901 17.8534L12.2866 17.2398L10.383 16.6262C-11.0464 83.1077 19.6329 129.299 33.4424 146.286L34.9943 145.025Z" fill="#D4D4D4"/>
<path d="M33.4424 146.286C34.1391 147.143 35.3988 147.273 36.2559 146.577C37.113 145.88 37.2429 144.62 36.5462 143.763L33.4424 146.286ZM18.6863 0.42019L0.781699 15.0064L22.3661 23.2192L18.6863 0.42019ZM34.9943 145.025L36.5462 143.763C23.1229 127.251 -6.6387 82.4716 14.1901 17.8534L12.2866 17.2398L10.383 16.6262C-11.0464 83.1077 19.6329 129.299 33.4424 146.286L34.9943 145.025Z" fill="url(#paint0_linear_155_4892)"/>
<defs>
<linearGradient id="paint0_linear_155_4892" x1="29.7995" y1="172.066" x2="17.3606" y2="0.516076" gradientUnits="userSpaceOnUse">
<stop stop-color="#715A03"/>
<stop offset="1" stop-color="#ECC222"/>
</linearGradient>
</defs>
</svg>
