<svg width="658" height="406" viewBox="0 0 658 406" fill="none" xmlns="http://www.w3.org/2000/svg">
<rect width="658" height="406" rx="24" fill="white"/>
<path d="M109.658 217L121.514 190.4H127.594L139.488 217H133.028L123.3 193.516H125.732L115.966 217H109.658ZM115.586 211.3L117.22 206.626H130.9L132.572 211.3H115.586ZM150.802 217.304C148.877 217.304 147.142 216.873 145.596 216.012C144.051 215.125 142.822 213.897 141.91 212.326C141.024 210.755 140.58 208.906 140.58 206.778C140.58 204.625 141.024 202.763 141.91 201.192C142.822 199.621 144.051 198.405 145.596 197.544C147.142 196.683 148.877 196.252 150.802 196.252C152.525 196.252 154.032 196.632 155.324 197.392C156.616 198.152 157.617 199.305 158.326 200.85C159.036 202.395 159.39 204.371 159.39 206.778C159.39 209.159 159.048 211.135 158.364 212.706C157.68 214.251 156.692 215.404 155.4 216.164C154.134 216.924 152.601 217.304 150.802 217.304ZM151.828 212.44C152.791 212.44 153.665 212.212 154.45 211.756C155.236 211.3 155.856 210.654 156.312 209.818C156.794 208.957 157.034 207.943 157.034 206.778C157.034 205.587 156.794 204.574 156.312 203.738C155.856 202.902 155.236 202.256 154.45 201.8C153.665 201.344 152.791 201.116 151.828 201.116C150.84 201.116 149.954 201.344 149.168 201.8C148.383 202.256 147.75 202.902 147.268 203.738C146.812 204.574 146.584 205.587 146.584 206.778C146.584 207.943 146.812 208.957 147.268 209.818C147.75 210.654 148.383 211.3 149.168 211.756C149.954 212.212 150.84 212.44 151.828 212.44ZM157.186 217V212.82L157.3 206.74L156.92 200.698V188.804H162.848V217H157.186ZM174.263 217L165.675 196.556H171.793L178.937 214.15H175.897L183.307 196.556H189.007L180.381 217H174.263ZM191.806 217V196.556H197.734V217H191.806ZM194.77 193.706C193.68 193.706 192.794 193.389 192.11 192.756C191.426 192.123 191.084 191.337 191.084 190.4C191.084 189.463 191.426 188.677 192.11 188.044C192.794 187.411 193.68 187.094 194.77 187.094C195.859 187.094 196.746 187.398 197.43 188.006C198.114 188.589 198.456 189.349 198.456 190.286C198.456 191.274 198.114 192.097 197.43 192.756C196.771 193.389 195.884 193.706 194.77 193.706ZM210.493 217.304C208.745 217.304 207.061 217.101 205.439 216.696C203.843 216.265 202.577 215.733 201.639 215.1L203.615 210.844C204.553 211.427 205.655 211.908 206.921 212.288C208.213 212.643 209.48 212.82 210.721 212.82C212.089 212.82 213.052 212.655 213.609 212.326C214.192 211.997 214.483 211.541 214.483 210.958C214.483 210.477 214.255 210.122 213.799 209.894C213.369 209.641 212.786 209.451 212.051 209.324C211.317 209.197 210.506 209.071 209.619 208.944C208.758 208.817 207.884 208.653 206.997 208.45C206.111 208.222 205.3 207.893 204.565 207.462C203.831 207.031 203.235 206.449 202.779 205.714C202.349 204.979 202.133 204.029 202.133 202.864C202.133 201.572 202.501 200.432 203.235 199.444C203.995 198.456 205.085 197.683 206.503 197.126C207.922 196.543 209.619 196.252 211.595 196.252C212.989 196.252 214.407 196.404 215.851 196.708C217.295 197.012 218.499 197.455 219.461 198.038L217.485 202.256C216.497 201.673 215.497 201.281 214.483 201.078C213.495 200.85 212.533 200.736 211.595 200.736C210.278 200.736 209.315 200.913 208.707 201.268C208.099 201.623 207.795 202.079 207.795 202.636C207.795 203.143 208.011 203.523 208.441 203.776C208.897 204.029 209.493 204.232 210.227 204.384C210.962 204.536 211.76 204.675 212.621 204.802C213.508 204.903 214.395 205.068 215.281 205.296C216.168 205.524 216.966 205.853 217.675 206.284C218.41 206.689 219.005 207.259 219.461 207.994C219.917 208.703 220.145 209.641 220.145 210.806C220.145 212.073 219.765 213.2 219.005 214.188C218.245 215.151 217.143 215.911 215.699 216.468C214.281 217.025 212.545 217.304 210.493 217.304ZM233.911 217.304C231.732 217.304 229.794 216.848 228.097 215.936C226.425 215.024 225.095 213.783 224.107 212.212C223.144 210.616 222.663 208.805 222.663 206.778C222.663 204.726 223.144 202.915 224.107 201.344C225.095 199.748 226.425 198.507 228.097 197.62C229.794 196.708 231.732 196.252 233.911 196.252C236.064 196.252 237.99 196.708 239.687 197.62C241.384 198.507 242.714 199.735 243.677 201.306C244.64 202.877 245.121 204.701 245.121 206.778C245.121 208.805 244.64 210.616 243.677 212.212C242.714 213.783 241.384 215.024 239.687 215.936C237.99 216.848 236.064 217.304 233.911 217.304ZM233.911 212.44C234.899 212.44 235.786 212.212 236.571 211.756C237.356 211.3 237.977 210.654 238.433 209.818C238.889 208.957 239.117 207.943 239.117 206.778C239.117 205.587 238.889 204.574 238.433 203.738C237.977 202.902 237.356 202.256 236.571 201.8C235.786 201.344 234.899 201.116 233.911 201.116C232.923 201.116 232.036 201.344 231.251 201.8C230.466 202.256 229.832 202.902 229.351 203.738C228.895 204.574 228.667 205.587 228.667 206.778C228.667 207.943 228.895 208.957 229.351 209.818C229.832 210.654 230.466 211.3 231.251 211.756C232.036 212.212 232.923 212.44 233.911 212.44ZM249.463 217V196.556H255.125V202.332L254.327 200.66C254.935 199.216 255.911 198.127 257.253 197.392C258.596 196.632 260.23 196.252 262.155 196.252V201.724C261.902 201.699 261.674 201.686 261.471 201.686C261.269 201.661 261.053 201.648 260.825 201.648C259.204 201.648 257.887 202.117 256.873 203.054C255.885 203.966 255.391 205.397 255.391 207.348V217H249.463Z" fill="black"/>
<path d="M296.008 190.4H302.164V217H296.008V190.4ZM283.924 217H277.768V190.4H283.924V217ZM296.464 206.094H283.468V200.888H296.464V206.094ZM318.148 217.304C315.969 217.304 314.031 216.848 312.334 215.936C310.662 215.024 309.332 213.783 308.344 212.212C307.381 210.616 306.9 208.805 306.9 206.778C306.9 204.726 307.381 202.915 308.344 201.344C309.332 199.748 310.662 198.507 312.334 197.62C314.031 196.708 315.969 196.252 318.148 196.252C320.301 196.252 322.226 196.708 323.924 197.62C325.621 198.507 326.951 199.735 327.914 201.306C328.876 202.877 329.358 204.701 329.358 206.778C329.358 208.805 328.876 210.616 327.914 212.212C326.951 213.783 325.621 215.024 323.924 215.936C322.226 216.848 320.301 217.304 318.148 217.304ZM318.148 212.44C319.136 212.44 320.022 212.212 320.808 211.756C321.593 211.3 322.214 210.654 322.67 209.818C323.126 208.957 323.354 207.943 323.354 206.778C323.354 205.587 323.126 204.574 322.67 203.738C322.214 202.902 321.593 202.256 320.808 201.8C320.022 201.344 319.136 201.116 318.148 201.116C317.16 201.116 316.273 201.344 315.488 201.8C314.702 202.256 314.069 202.902 313.588 203.738C313.132 204.574 312.904 205.587 312.904 206.778C312.904 207.943 313.132 208.957 313.588 209.818C314.069 210.654 314.702 211.3 315.488 211.756C316.273 212.212 317.16 212.44 318.148 212.44ZM337.817 217L330.445 196.556H336.031L342.149 214.15H339.489L345.873 196.556H350.889L357.083 214.15H354.423L360.731 196.556H365.975L358.565 217H352.827L347.393 201.914H349.141L343.517 217H337.817ZM380.671 217V190.4H386.827V217H380.671ZM401.462 217.304C399.055 217.304 397.18 216.696 395.838 215.48C394.495 214.239 393.824 212.402 393.824 209.97V192.034H399.752V209.894C399.752 210.755 399.98 211.427 400.436 211.908C400.892 212.364 401.512 212.592 402.298 212.592C403.235 212.592 404.033 212.339 404.692 211.832L406.288 216.012C405.68 216.443 404.945 216.772 404.084 217C403.248 217.203 402.374 217.304 401.462 217.304ZM390.67 201.572V197.012H404.844V201.572H390.67ZM427.939 217L419.237 190.4H425.621L433.183 213.96H429.991L437.895 190.4H443.595L451.195 213.96H448.117L455.869 190.4H461.759L453.057 217H446.445L439.719 196.328H441.467L434.551 217H427.939ZM473.364 217.304C471.186 217.304 469.248 216.848 467.55 215.936C465.878 215.024 464.548 213.783 463.56 212.212C462.598 210.616 462.116 208.805 462.116 206.778C462.116 204.726 462.598 202.915 463.56 201.344C464.548 199.748 465.878 198.507 467.55 197.62C469.248 196.708 471.186 196.252 473.364 196.252C475.518 196.252 477.443 196.708 479.14 197.62C480.838 198.507 482.168 199.735 483.13 201.306C484.093 202.877 484.574 204.701 484.574 206.778C484.574 208.805 484.093 210.616 483.13 212.212C482.168 213.783 480.838 215.024 479.14 215.936C477.443 216.848 475.518 217.304 473.364 217.304ZM473.364 212.44C474.352 212.44 475.239 212.212 476.024 211.756C476.81 211.3 477.43 210.654 477.886 209.818C478.342 208.957 478.57 207.943 478.57 206.778C478.57 205.587 478.342 204.574 477.886 203.738C477.43 202.902 476.81 202.256 476.024 201.8C475.239 201.344 474.352 201.116 473.364 201.116C472.376 201.116 471.49 201.344 470.704 201.8C469.919 202.256 469.286 202.902 468.804 203.738C468.348 204.574 468.12 205.587 468.12 206.778C468.12 207.943 468.348 208.957 468.804 209.818C469.286 210.654 469.919 211.3 470.704 211.756C471.49 212.212 472.376 212.44 473.364 212.44ZM488.917 217V196.556H494.579V202.332L493.781 200.66C494.389 199.216 495.364 198.127 496.707 197.392C498.049 196.632 499.683 196.252 501.609 196.252V201.724C501.355 201.699 501.127 201.686 500.925 201.686C500.722 201.661 500.507 201.648 500.279 201.648C498.657 201.648 497.34 202.117 496.327 203.054C495.339 203.966 494.845 205.397 494.845 207.348V217H488.917ZM510.453 212.82L510.605 205.6L520.143 196.556H527.211L518.053 205.866L514.975 208.374L510.453 212.82ZM505.551 217V188.804H511.479V217H505.551ZM520.789 217L513.873 208.412L517.597 203.814L527.971 217H520.789ZM537.227 217.304C535.479 217.304 533.794 217.101 532.173 216.696C530.577 216.265 529.31 215.733 528.373 215.1L530.349 210.844C531.286 211.427 532.388 211.908 533.655 212.288C534.947 212.643 536.213 212.82 537.455 212.82C538.823 212.82 539.785 212.655 540.343 212.326C540.925 211.997 541.217 211.541 541.217 210.958C541.217 210.477 540.989 210.122 540.533 209.894C540.102 209.641 539.519 209.451 538.785 209.324C538.05 209.197 537.239 209.071 536.353 208.944C535.491 208.817 534.617 208.653 533.731 208.45C532.844 208.222 532.033 207.893 531.299 207.462C530.564 207.031 529.969 206.449 529.513 205.714C529.082 204.979 528.867 204.029 528.867 202.864C528.867 201.572 529.234 200.432 529.969 199.444C530.729 198.456 531.818 197.683 533.237 197.126C534.655 196.543 536.353 196.252 538.329 196.252C539.722 196.252 541.141 196.404 542.585 196.708C544.029 197.012 545.232 197.455 546.195 198.038L544.219 202.256C543.231 201.673 542.23 201.281 541.217 201.078C540.229 200.85 539.266 200.736 538.329 200.736C537.011 200.736 536.049 200.913 535.441 201.268C534.833 201.623 534.529 202.079 534.529 202.636C534.529 203.143 534.744 203.523 535.175 203.776C535.631 204.029 536.226 204.232 536.961 204.384C537.695 204.536 538.493 204.675 539.355 204.802C540.241 204.903 541.128 205.068 542.015 205.296C542.901 205.524 543.699 205.853 544.409 206.284C545.143 206.689 545.739 207.259 546.195 207.994C546.651 208.703 546.879 209.641 546.879 210.806C546.879 212.073 546.499 213.2 545.739 214.188C544.979 215.151 543.877 215.911 542.433 216.468C541.014 217.025 539.279 217.304 537.227 217.304Z" fill="#9E7E04"/>
</svg>
